<?xml version="1.0" encoding="UTF-8"?><svg id="_圖層_1" xmlns="http://www.w3.org/2000/svg" viewBox="0 0 1975.91 554.39"><defs><style>.cls-1{fill:#4f4f4f;}</style></defs><path class="cls-1" d="M421.34,82.43c-37.49-32.63-86.44-52.43-140.03-52.43-117.86,0-213.44,95.56-213.44,213.44,0,63.91,28.13,121.22,72.62,160.33v-224.69c0-21.38,19.36-26.57,19.36-26.57l261.49-70.07ZM263.7,331.76v-52.81l62.63-16.78v-35.19l-62.63,16.8v-44.03l72.96-19.54v-35.19l-110.68,29.65v167.21l37.71-10.12ZM494.75,243.44c0-63.89-28.11-121.19-72.61-160.31v224.69c0,21.38-19.38,26.57-19.38,26.57l-261.47,70.07c37.47,32.61,86.42,52.41,140.01,52.41,117.88,0,213.44-95.54,213.44-213.44"/><path class="cls-1" d="M1861.15,166.8v45.11l-42.93-45.87h-10.14v77.36h17.86v-45.09l43.05,46.07h10.14v-77.58h-17.98ZM1772.17,166.8v45.11l-42.95-45.87h-10.12v77.36h17.88v-45.09l43.03,46.07h10.14v-77.58h-17.98ZM1671.03,192.86l9.04,21.58h-18l8.96-21.58ZM1691.29,243.41h19.4l-33.75-76.6h-11.48l-34.09,76.6h19.4l5.56-13.62h29.53l5.44,13.62ZM1623.58,243.41l-2.08-76.6h-11.22l-29.11,48.61-28.55-48.61h-11.32l-2.06,76.6h17.96l.12-39.55,18.3,32.13h11.24l18.64-32.01.12,39.43h17.98ZM1488.79,244.39c20.94,0,34.77-11.88,34.77-34.63v-42.95h-18.3v44.35c0,8.52-4.82,16.92-16.48,16.92s-16.24-8.4-16.24-16.92v-44.35h-18.3v42.95c0,22.76,13.82,34.63,34.53,34.63M1410.53,192.86l9.04,21.58h-17.96l8.92-21.58ZM1430.8,243.41h19.4l-33.79-76.6h-11.42l-34.11,76.6h19.4l5.56-13.62h29.53l5.44,13.62ZM1344.54,166.8v45.11l-42.95-45.87h-10.12v77.36h17.88v-45.09l43.03,46.07h10.14v-77.58h-17.98ZM1231.65,166.8v30.41h-34.65v-30.41h-18.3v76.6h18.3v-30.07h34.65v30.07h18.3v-76.6h-18.3ZM1141.98,244.39c13.48,0,21.68-4.68,25.47-7.64l-7.94-14.46c-1.64,1.08-7.52,4.9-16.78,4.9-13.86,0-22.92-8.52-22.92-22.14s9.06-22.02,22.92-22.02c9.26,0,15.14,3.8,16.78,4.9l7.94-14.5c-3.8-2.92-12.42-7.6-25.47-7.6-24.97,0-41.09,17.3-41.09,39.21s16.12,39.33,41.09,39.33M1069.34,243.41h18.3v-76.6h-18.3v76.6ZM1010.05,207.02v-24.31h8.62c8.82,0,14.38,5.46,14.38,12.54s-5.68,11.78-14.28,11.78h-8.72ZM1052.88,229.37c-7.74,0-9.26-6.12-15.7-10.48,9.14-4.58,14.48-12.98,14.48-23.66,0-16.78-12.62-28.43-31.93-28.43h-27.97v76.6h18.3v-20.5h7.18c7.86.34,10.9,21.48,30.29,21.48,5.56,0,8.4-.98,8.4-.98v-14.16c-.98.12-2.08.12-3.04.12M936.93,227.31h-11.78v-44.39h11.78c14.5,0,22.78,8.94,22.78,22.36s-8.28,22.04-22.78,22.04M938.01,166.8h-31.13v76.6h31.13c24.21,0,40.33-15.34,40.33-38.35s-16.12-38.25-40.33-38.25M855.36,227.41v-14.52h31.37v-16.12h-31.37v-13.86h35.51v-16.12h-53.81v76.6h54.35v-16h-36.05ZM801.18,243.41h18.3v-76.6h-18.3v76.6ZM741.87,207.02v-24.31h8.64c8.82,0,14.38,5.46,14.38,12.54s-5.68,11.78-14.3,11.78h-8.72ZM784.7,229.37c-7.72,0-9.24-6.12-15.7-10.48,9.16-4.58,14.5-12.98,14.5-23.66,0-16.78-12.64-28.43-31.93-28.43h-27.99v76.6h18.3v-20.5h7.2c7.86.34,10.9,21.48,30.31,21.48,5.54,0,8.38-.98,8.38-.98v-14.16c-.98.12-2.08.12-3.06.12M710.93,182.92v-16.12h-53.73v76.6h18.32v-24.19h30.39v-16.12h-30.39v-20.18h35.41Z"/><polygon class="cls-1" points="1453.07 325.24 1453.07 347.45 1477.98 347.45 1477.98 352.35 1453.07 352.35 1453.07 373.37 1447.71 373.37 1447.71 320.42 1481 320.42 1481 325.24 1453.07 325.24"/><path class="cls-1" d="M1486.01,356.13c0-10.34,8.12-18,18.06-18s18.08,7.66,18.08,18-8.22,17.92-18.08,17.92-18.06-7.68-18.06-17.92M1516.72,356.13c0-7.46-5.8-13.1-12.66-13.1s-12.66,5.64-12.66,13.1,5.8,13.02,12.66,13.02,12.66-5.64,12.66-13.02"/><path class="cls-1" d="M1550.88,338.26l-.46,5.36c-.9-.3-1.88-.46-3.18-.46-7.3,0-10.6,5.88-10.68,10.86v19.36h-5.34v-34.65h4.66l.32,7.24c1.34-4.22,5.48-7.92,11.96-7.92.98,0,1.96.08,2.72.22"/><polygon class="cls-1" points="1582 325.24 1582 347.45 1606.94 347.45 1606.94 352.35 1582 352.35 1582 373.37 1576.64 373.37 1576.64 320.42 1609.94 320.42 1609.94 325.24 1582 325.24"/><path class="cls-1" d="M1636.56,338.26l-.44,5.36c-.9-.3-1.9-.46-3.18-.46-7.3,0-10.62,5.88-10.7,10.86v19.36h-5.34v-34.65h4.68l.3,7.24c1.34-4.22,5.48-7.92,11.96-7.92,1,0,1.96.08,2.72.22"/><path class="cls-1" d="M1672.51,357.71h-28.33c.76,6.92,6.28,11.76,13.72,11.76,5.06,0,8.06-1.98,10.4-3.86l2.48,3.92c-2.7,2.18-6.7,4.52-13.42,4.52-10.7,0-18.38-7.62-18.38-18s7.1-18.02,17.48-18.02c9.5,0,16.14,7.02,16.14,17.34,0,1.36-.08,2.34-.08,2.34M1644.33,353.33h23.12c-.36-6.56-4.96-10.7-10.84-10.7-6.48,0-11.22,4.3-12.28,10.7"/><path class="cls-1" d="M1712.6,357.71h-28.33c.76,6.92,6.28,11.76,13.72,11.76,5.06,0,8.06-1.98,10.4-3.86l2.48,3.92c-2.7,2.18-6.7,4.52-13.4,4.52-10.7,0-18.4-7.62-18.4-18s7.1-18.02,17.48-18.02c9.5,0,16.14,7.02,16.14,17.34,0,1.36-.08,2.34-.08,2.34M1684.42,353.33h23.12c-.36-6.56-4.96-10.7-10.84-10.7-6.48,0-11.22,4.3-12.28,10.7"/><path class="cls-1" d="M1754.51,319.6v53.77h-4.68l-.22-6.32c-2.64,3.98-7.16,7-13.64,7-9.42,0-16.8-7.68-16.8-18s7.24-18,16.64-18c6.5,0,11.02,3.08,13.5,6.7v-25.15h5.2ZM1749.39,356.05c0-7.54-5.06-13.1-12.52-13.1-6.78,0-12.34,5.56-12.34,13.1s5.56,13.1,12.34,13.1c7.46,0,12.52-5.48,12.52-13.1"/><path class="cls-1" d="M1763.57,356.13c0-10.34,8.14-18,18.08-18s18.08,7.66,18.08,18-8.22,17.92-18.08,17.92-18.08-7.68-18.08-17.92M1794.3,356.13c0-7.46-5.8-13.1-12.66-13.1s-12.66,5.64-12.66,13.1,5.78,13.02,12.66,13.02,12.66-5.64,12.66-13.02"/><path class="cls-1" d="M1865.26,354.1v19.28h-5.34v-18.62c0-7.14-3.6-11.82-9.8-11.82s-10.38,5.28-10.38,11.46v18.98h-5.36v-18.62c0-7.14-3.7-11.9-9.86-11.82-6.34,0-9.88,5.12-10.34,9.88l-.08,20.56h-5.32v-34.65h4.36l.22,6.48c1.96-3.92,6.42-7.16,11.98-7.16,6.18,0,10.7,3.1,12.88,8.08,1.8-4.22,6.34-8.08,12.44-8.08,8.88,0,14.6,6.42,14.6,16.06"/><path class="cls-1" d="M1875.18,372.91c0-2.26,1.72-4.16,4.14-4.16s4.06,1.9,4.06,4.16-1.72,4.14-4.06,4.14-4.14-1.82-4.14-4.14"/><path class="cls-1" d="M701.31,500.22v19.46c-3.4,1.94-9.58,5.32-19.98,5.32-15.74,0-27.87-11.44-27.87-27.01s12.14-27.29,28.03-27.29c9.72,0,15.22,3.48,17.18,4.84l-2.5,4.28c-1.5-1.26-6.24-4.2-14.16-4.2-12.74,0-23.12,9.32-23.12,22.38s10.38,22.14,22.68,22.14c6.32,0,11.22-1.58,14.32-3.08v-16.82h5.42Z"/><rect class="cls-1" x="711.43" y="470.56" width="5.36" height="53.77"/><path class="cls-1" d="M725.97,507.07c0-10.32,8.14-17.98,18.08-17.98s18.08,7.66,18.08,17.98-8.22,17.92-18.08,17.92-18.08-7.66-18.08-17.92M756.71,507.07c0-7.44-5.8-13.1-12.66-13.1s-12.66,5.66-12.66,13.1,5.8,13.04,12.66,13.04,12.66-5.66,12.66-13.04"/><path class="cls-1" d="M806.53,507.01c0,10.32-7.4,17.98-16.8,17.98-6.48,0-11.02-3-13.64-6.98l-.24,6.32h-4.68v-53.77h5.22v25.15c2.48-3.62,7-6.7,13.48-6.7,9.4,0,16.66,7.66,16.66,18M801.17,507.01c0-7.54-5.58-13.1-12.36-13.1-7.44,0-12.5,5.56-12.5,13.1s5.06,13.1,12.5,13.1c6.78,0,12.36-5.58,12.36-13.1"/><path class="cls-1" d="M848.64,489.68v34.65h-4.68l-.12-6.24c-2.66,3.98-7.26,6.9-13.74,6.9-9.42,0-16.8-7.66-16.8-17.98s7.26-18,16.66-18c6.78,0,11.46,3.08,13.88,6.84l.12-6.18h4.68ZM843.52,507.01c0-7.54-5.06-13.1-12.5-13.1-6.8,0-12.36,5.56-12.36,13.1s5.56,13.1,12.36,13.1c7.44,0,12.5-5.5,12.5-13.1"/><rect class="cls-1" x="860.34" y="470.56" width="5.36" height="53.77"/><rect class="cls-1" x="896.43" y="470.56" width="5.36" height="53.77"/><path class="cls-1" d="M945.94,505.12v19.22h-5.36v-18.54c0-7.3-4.28-11.96-10.7-11.9-6.86,0-10.54,5.12-11.06,9.88l-.08,20.56h-5.36v-34.65h4.38l.24,6.48c1.94-3.92,6.46-7.16,12.8-7.16,9.02,0,15.14,6.42,15.14,16.12"/><path class="cls-1" d="M989.43,505.12v19.22h-5.36v-18.54c0-7.3-4.28-11.96-10.7-11.9-6.86,0-10.54,5.12-11.06,9.88l-.08,20.56h-5.36v-34.65h4.38l.22,6.48c1.96-3.92,6.48-7.16,12.8-7.16,9.04,0,15.16,6.42,15.16,16.12"/><path class="cls-1" d="M997.97,507.07c0-10.32,8.12-17.98,18.08-17.98s18.06,7.66,18.06,17.98-8.2,17.92-18.06,17.92-18.08-7.66-18.08-17.92M1028.68,507.07c0-7.44-5.78-13.1-12.64-13.1s-12.68,5.66-12.68,13.1,5.82,13.04,12.68,13.04,12.64-5.66,12.64-13.04"/><polygon class="cls-1" points="1073.38 489.67 1057.88 524.71 1053.26 524.71 1037.69 489.67 1043.56 489.67 1055.74 517.77 1067.66 489.67 1073.38 489.67"/><path class="cls-1" d="M1112.28,489.68v34.65h-4.7l-.12-6.24c-2.64,3.98-7.26,6.9-13.72,6.9-9.42,0-16.82-7.66-16.82-17.98s7.26-18,16.66-18c6.78,0,11.46,3.08,13.88,6.84l.12-6.18h4.7ZM1107.14,507.01c0-7.54-5.04-13.1-12.5-13.1-6.78,0-12.36,5.56-12.36,13.1s5.58,13.1,12.36,13.1c7.46,0,12.5-5.5,12.5-13.1"/><path class="cls-1" d="M1126.22,513.03v-18.98h-7.08v-4.38h7.16v-11.9h5.2v11.9h14.54v4.38h-14.54v18.98c0,5.06,2.7,7.24,7.76,7.24,3.92,0,6.1-2.12,6.94-2.64l2.04,4.14c-1.06.84-4.14,3.24-9.9,3.24-6.98,0-12.12-4.28-12.12-11.98"/><path class="cls-1" d="M1152.76,478.4c0-2.44,1.8-4.02,4.14-4.1,2.42,0,4.22,1.66,4.22,4.1s-1.8,4.06-4.22,4.06-4.14-1.66-4.14-4.06M1154.34,489.67h5.36v34.65h-5.44l.08-34.65Z"/><path class="cls-1" d="M1168.81,507.07c0-10.32,8.14-17.98,18.08-17.98s18.08,7.66,18.08,17.98-8.2,17.92-18.08,17.92-18.08-7.66-18.08-17.92M1199.54,507.07c0-7.44-5.8-13.1-12.66-13.1s-12.66,5.66-12.66,13.1,5.8,13.04,12.66,13.04,12.66-5.66,12.66-13.04"/><path class="cls-1" d="M1246.56,505.12v19.22h-5.36v-18.54c0-7.3-4.28-11.96-10.68-11.9-6.86,0-10.54,5.12-11.08,9.88l-.06,20.56h-5.36v-34.65h4.38l.22,6.48c1.94-3.92,6.48-7.16,12.8-7.16,9.04,0,15.14,6.42,15.14,16.12"/><polygon class="cls-1" points="1323.21 471.38 1323.21 524.33 1317.85 524.33 1317.85 499.93 1283.66 499.93 1283.66 524.33 1278.32 524.33 1278.32 471.38 1283.66 471.38 1283.66 495.11 1317.85 495.11 1317.85 471.38 1323.21 471.38"/><path class="cls-1" d="M1367.69,489.67v34.65h-4.68l-.14-5.94c-2.04,3.6-6.34,6.62-12.16,6.62-8.96,0-14.98-6.4-14.98-16.12v-19.22h5.36v18.24c0,7.22,3.98,11.98,10.24,11.98,7.32-.08,10.94-5.96,10.98-10.92v-19.3h5.38Z"/><path class="cls-1" d="M1414.49,507.01c0,10.32-7.4,17.98-16.8,17.98-6.48,0-11.02-3-13.64-6.98l-.24,6.32h-4.66v-53.77h5.2v25.15c2.48-3.62,7-6.7,13.5-6.7,9.4,0,16.64,7.66,16.64,18M1409.13,507.01c0-7.54-5.56-13.1-12.36-13.1-7.44,0-12.5,5.56-12.5,13.1s5.06,13.1,12.5,13.1c6.8,0,12.36-5.58,12.36-13.1"/><polygon class="cls-1" points="675.53 312.6 675.53 332.78 705.92 332.78 705.92 348.87 675.53 348.87 675.53 373.07 657.22 373.07 657.22 296.49 710.94 296.49 710.94 312.6 675.53 312.6"/><path class="cls-1" d="M717.22,334.94c0-22.34,17.2-39.43,40.73-39.43s40.41,16.66,40.41,39.43-17.1,39.11-40.41,39.11-40.73-17.1-40.73-39.11M779.63,334.94c0-12.86-9.14-22.44-21.68-22.44s-21.99,9.68-21.99,22.44,9.26,22.22,21.99,22.22,21.68-9.58,21.68-22.22"/><path class="cls-1" d="M810.13,339.41v-42.91h18.3v44.31c0,8.5,4.68,16.9,16.24,16.9s16.44-8.4,16.44-16.9v-44.31h18.32v42.91c0,22.78-13.86,34.63-34.75,34.63s-34.53-11.86-34.53-34.63"/><polygon class="cls-1" points="966.52 296.49 966.52 374.06 956.39 374.06 913.38 327.96 913.38 373.08 895.5 373.08 895.5 295.73 905.64 295.73 948.57 341.58 948.57 296.49 966.52 296.49"/><path class="cls-1" d="M1055.07,334.72c0,23-16.12,38.35-40.31,38.35h-31.15v-76.58h31.15c24.19,0,40.31,15.26,40.31,38.23M1036.45,334.94c0-13.4-8.28-22.34-22.78-22.34h-11.78v44.35h11.78c14.5,0,22.78-8.84,22.78-22.02"/><path class="cls-1" d="M1110.7,359.46h-29.51l-5.56,13.62h-19.38l34.09-76.58h11.44l33.77,76.58h-19.4l-5.46-13.62ZM1086.97,344.1h17.96l-9.04-21.58-8.92,21.58Z"/><polygon class="cls-1" points="1195.99 312.6 1170.93 312.6 1170.93 373.07 1152.64 373.07 1152.64 312.6 1127.68 312.6 1127.68 296.49 1195.99 296.49 1195.99 312.6"/><rect class="cls-1" x="1205.55" y="296.5" width="18.32" height="76.58"/><path class="cls-1" d="M1236.59,334.94c0-22.34,17.22-39.43,40.73-39.43s40.43,16.66,40.43,39.43-17.12,39.11-40.43,39.11-40.73-17.1-40.73-39.11M1299.02,334.94c0-12.86-9.16-22.44-21.7-22.44s-22,9.68-22,22.44,9.26,22.22,22,22.22,21.7-9.58,21.7-22.22"/><polygon class="cls-1" points="1401.61 296.49 1401.61 374.06 1391.47 374.06 1348.44 327.96 1348.44 373.08 1330.59 373.08 1330.59 295.73 1340.7 295.73 1383.63 341.58 1383.63 296.49 1401.61 296.49"/></svg>