<?xml version="1.0" encoding="UTF-8"?><svg id="_圖層_1" xmlns="http://www.w3.org/2000/svg" viewBox="0 0 1975.91 554.39"><defs><style>.cls-1{fill:#4f4f4f;}</style></defs><path class="cls-1" d="M416.51,107.41c-38.49-33.49-88.74-53.83-143.76-53.83-121.03,0-219.14,98.11-219.14,219.14,0,65.61,28.86,124.44,74.55,164.6v-230.69c0-21.96,19.88-27.29,19.88-27.29l268.47-71.93ZM254.65,363.4v-54.21l64.3-17.23v-36.14l-64.3,17.23v-45.18l74.9-20.07v-36.14l-113.62,30.45v171.67l38.72-10.38ZM491.88,272.72c0-65.61-28.87-124.44-74.55-164.6v230.69c0,21.97-19.88,27.29-19.88,27.29l-268.47,71.93c38.48,33.49,88.73,53.83,143.76,53.83,121.03,0,219.14-98.11,219.14-219.14"/><path class="cls-1" d="M1913.63,407.63c2.77,0,4.82-2.15,4.82-4.91s-2.05-4.91-4.82-4.91-4.91,2.23-4.91,4.91,2.06,4.91,4.91,4.91M1888.05,407.63c6.79,0,10.46-2.86,11.71-3.84l-2.42-4.91c-.99.62-3.58,3.12-8.22,3.12-5.98,0-9.2-2.59-9.2-8.58v-22.53h17.25v-5.17h-17.25v-14.12h-6.16v14.12h-8.48v5.17h8.4v22.53c0,9.12,6.07,14.21,14.37,14.21M1848.9,406.83h6.45v-41.1h-6.36l-.09,41.1ZM1852.06,357.15c2.85,0,5-1.97,5-4.82s-2.15-4.82-5-4.82c-2.77.09-4.91,1.96-4.91,4.82s2.14,4.82,4.91,4.82M1817.71,370.37c6.98,0,12.43,4.92,12.87,12.7h-27.44c1.26-7.6,6.89-12.7,14.57-12.7M1836.65,385.48c0-12.24-7.86-20.54-19.11-20.54-12.34,0-20.73,9.29-20.73,21.35s9.1,21.36,21.8,21.36c7.95,0,12.69-2.76,15.9-5.35l-2.94-4.65c-2.77,2.23-6.35,4.56-12.33,4.56-8.85,0-15.38-5.72-16.27-13.95h33.6s.09-1.16.09-2.76M1766.9,364.93c-7.06,0-12.07,3.48-14.49,7.67v-29.56h-6.16v63.79h6.34v-23.24c.09-5.81,4.46-12.86,13.23-12.86,7.6-.09,12.69,5.62,12.69,14.12v21.98h6.34v-22.79c0-11.53-7.23-19.11-17.95-19.11M1724.48,406.83h6.46v-41.1h-6.37l-.09,41.1ZM1727.64,357.15c2.85,0,5-1.97,5-4.82s-2.15-4.82-5-4.82c-2.76.09-4.91,1.96-4.91,4.82s2.15,4.82,4.91,4.82M1693.29,370.37c6.98,0,12.43,4.92,12.88,12.7h-27.44c1.25-7.6,6.88-12.7,14.56-12.7M1712.23,385.48c0-12.24-7.85-20.54-19.11-20.54-12.34,0-20.73,9.29-20.73,21.35s9.1,21.36,21.8,21.36c7.95,0,12.69-2.76,15.91-5.35l-2.95-4.65c-2.76,2.23-6.34,4.56-12.33,4.56-8.85,0-15.37-5.72-16.27-13.95h33.6s.09-1.16.09-2.76M1662.92,364.93c-7.68,0-12.6,4.37-14.21,9.37l-.36-8.57h-5.53v41.1h6.33v-22.96c.09-5.9,4.02-12.87,12.69-12.87,1.52,0,2.68.17,3.75.53l.54-6.33c-.9-.18-2.06-.27-3.22-.27M1633.52,349.73v-5.71h-39.48v62.81h6.33v-24.93h29.58v-5.8h-29.58v-26.37h33.16ZM1538.19,370.37c6.97,0,12.42,4.92,12.87,12.7h-27.44c1.25-7.6,6.88-12.7,14.57-12.7M1557.12,385.48c0-12.24-7.85-20.54-19.11-20.54-12.33,0-20.73,9.29-20.73,21.35s9.11,21.36,21.8,21.36c7.95,0,12.69-2.76,15.91-5.35l-2.95-4.65c-2.76,2.23-6.34,4.56-12.33,4.56-8.85,0-15.37-5.72-16.27-13.95h33.6s.09-1.16.09-2.76M1498.29,406.83h6.45v-41.1h-6.36l-.09,41.1ZM1501.45,357.15c2.86,0,5.01-1.97,5.01-4.82s-2.15-4.82-5.01-4.82c-2.76.09-4.91,1.96-4.91,4.82s2.15,4.82,4.91,4.82M1462.09,401.84c-8.04,0-14.66-6.62-14.66-15.56s6.62-15.55,14.66-15.55c8.85,0,14.84,6.61,14.84,15.55s-5.99,15.56-14.84,15.56M1476.84,343.04v29.83c-2.96-4.29-8.32-7.94-16-7.94-11.17,0-19.74,9.1-19.74,21.35s8.75,21.36,19.92,21.36c7.69,0,13.06-3.57,16.18-8.3l.27,7.5h5.53v-63.79h-6.15ZM1408.39,364.93c-7.69,0-12.6,4.37-14.21,9.37l-.36-8.57h-5.54v41.1h6.34v-22.96c.09-5.9,4.02-12.87,12.69-12.87,1.52,0,2.68.17,3.75.53l.54-6.33c-.9-.18-2.06-.27-3.22-.27M1366.69,365.73v22.87c-.1,5.9-4.39,12.87-13.06,12.96-7.42,0-12.16-5.62-12.16-14.21v-21.63h-6.33v22.79c0,11.53,7.13,19.11,17.77,19.11,6.88,0,11.98-3.57,14.39-7.86l.18,7.05h5.53v-41.1h-6.33ZM1363.1,356.52c2.5,0,4.55-1.88,4.46-4.46-.09-2.59-1.96-4.46-4.46-4.46s-4.46,1.88-4.46,4.46,2.06,4.46,4.46,4.46M1344.52,356.34c2.41,0,4.46-1.88,4.37-4.37-.09-2.59-1.96-4.46-4.37-4.46s-4.55,1.87-4.55,4.46,2.05,4.37,4.55,4.37M1326.15,349.73v-5.71h-39.48v62.81h6.34v-24.93h29.57v-5.8h-29.57v-26.37h33.15Z"/><path class="cls-1" d="M1215.81,366.23v22.5c-3.25,1.68-7.17,2.46-11.64,2.46-13.32,0-23.96-9.63-23.96-23.62s9.74-22.61,23.85-22.61c10.41,0,16.89,3.81,18.8,4.93l8.16-14.87c-2.91-1.9-11.18-7.72-27.51-7.72-25.52,0-42.74,17.78-42.74,40.28s17.22,40.38,42.29,40.38c16.9,0,26.29-6.26,30.09-9.72v-32.01h-17.33ZM1127.48,328.31v46.31l-44.09-47.09h-10.4v79.42h18.34v-46.32l44.2,47.32h10.4v-79.65h-18.45ZM1018.73,407.96c21.49,0,35.69-12.19,35.69-35.57v-44.07h-18.79v45.53c0,8.73-4.92,17.35-16.9,17.35s-16.68-8.62-16.68-17.35v-45.53h-18.78v44.07c0,23.39,14.2,35.57,35.46,35.57M973.24,328.31h-70.14v16.54h25.62v62.1h18.79v-62.1h25.73v-16.54ZM895.14,344.85v-16.54h-55.14v78.64h18.79v-24.84h31.21v-16.54h-31.21v-20.71h36.35ZM802.03,406.95h18.79v-78.64h-18.79v78.64ZM791.5,328.31h-70.14v16.54h25.62v62.1h18.79v-62.1h25.73v-16.54ZM684.2,407.96c17.91,0,28.75-9.72,28.75-24.38,0-16.12-11.4-20.71-22.93-24.51-10.63-3.47-15.22-4.59-15.22-9.18s4.59-6.38,10.41-6.38c7.28,0,13.88,2.57,19.13,6.26l8.49-14.09c-6.59-5.03-15.98-8.39-27.4-8.39-18.02,0-29.76,9.29-29.76,23.94s11.3,19.13,23.71,23.06c10.75,3.35,14.78,5.15,14.78,10.41s-4.25,7.05-9.4,7.05c-8.06,0-15.66-2.58-23.27-8.74l-9.17,14.77c8.05,6.38,17.78,10.18,31.88,10.18"/><path class="cls-1" d="M1894.83,194.04v46.31l-44.09-47.09h-10.4v79.42h18.33v-46.32l44.21,47.32h10.4v-79.65h-18.45ZM1803.46,194.04v46.31l-44.09-47.09h-10.4v79.42h18.34v-46.32l44.2,47.32h10.4v-79.65h-18.45ZM1699.61,220.78l9.29,22.15h-18.46l9.17-22.15ZM1720.42,272.69h19.91l-34.67-78.64h-11.75l-35.01,78.64h19.91l5.71-13.98h30.31l5.6,13.98ZM1650.88,272.69l-2.13-78.64h-11.52l-29.88,49.89-29.32-49.89h-11.63l-2.13,78.64h18.45l.12-40.61,18.81,33h11.53l19.13-32.89.12,40.5h18.45ZM1512.5,273.69c21.49,0,35.69-12.19,35.69-35.56v-44.08h-18.79v45.53c0,8.73-4.92,17.35-16.9,17.35s-16.68-8.62-16.68-17.35v-45.53h-18.78v44.08c0,23.38,14.2,35.56,35.46,35.56M1432.15,220.78l9.29,22.15h-18.46l9.17-22.15ZM1452.96,272.69h19.92l-34.68-78.64h-11.74l-35.02,78.64h19.92l5.7-13.98h30.31l5.6,13.98ZM1364.4,194.04v46.31l-44.09-47.09h-10.4v79.42h18.34v-46.32l44.2,47.32h10.4v-79.65h-18.45ZM1248.49,194.04v31.21h-35.6v-31.21h-18.78v78.64h18.78v-30.88h35.6v30.88h18.79v-78.64h-18.79ZM1156.4,273.69c13.87,0,22.26-4.8,26.18-7.83l-8.17-14.87c-1.68,1.12-7.72,5.03-17.23,5.03-14.21,0-23.5-8.73-23.5-22.72s9.29-22.61,23.5-22.61c9.51,0,15.55,3.92,17.23,5.04l8.17-14.88c-3.91-3.01-12.76-7.82-26.18-7.82-25.63,0-42.17,17.77-42.17,40.27s16.54,40.38,42.17,40.38M1081.83,272.69h18.79v-78.64h-18.79v78.64ZM1020.95,235.33v-24.96h8.84c9.07,0,14.79,5.6,14.79,12.87s-5.83,12.09-14.67,12.09h-8.96ZM1064.92,258.27c-7.93,0-9.5-6.28-16.1-10.76,9.39-4.7,14.87-13.31,14.87-24.27,0-17.23-12.97-29.19-32.78-29.19h-28.75v78.64h18.79v-21.04h7.39c8.06.34,11.19,22.04,31.1,22.04,5.71,0,8.62-1.01,8.62-1.01v-14.53c-1.01.12-2.13.12-3.14.12M945.89,256.14h-12.09v-45.55h12.09c14.88,0,23.39,9.18,23.39,22.94s-8.5,22.61-23.39,22.61M947,194.04h-31.99v78.64h31.99c24.85,0,41.4-15.76,41.4-39.38s-16.54-39.26-41.4-39.26M862.12,256.25v-14.89h32.22v-16.54h-32.22v-14.22h36.47v-16.54h-55.26v78.64h55.82v-16.44h-37.03ZM806.49,272.69h18.79v-78.64h-18.79v78.64ZM745.61,235.33v-24.96h8.85c9.06,0,14.78,5.6,14.78,12.87s-5.83,12.09-14.67,12.09h-8.96ZM789.59,258.27c-7.94,0-9.51-6.28-16.11-10.76,9.39-4.7,14.87-13.31,14.87-24.27,0-17.23-12.97-29.19-32.78-29.19h-28.75v78.64h18.79v-21.04h7.39c8.06.34,11.19,22.04,31.11,22.04,5.7,0,8.61-1.01,8.61-1.01v-14.53c-1.01.12-2.13.12-3.13.12M713.85,210.59v-16.54h-55.15v78.64h18.79v-24.85h31.21v-16.54h-31.21v-20.71h36.36Z"/></svg>