<svg width="345" height="88" viewBox="0 0 345 88" fill="none" xmlns="http://www.w3.org/2000/svg">
<path d="M311.22 28.0505V30.6573H287.079V28.0505H298.583C296.656 24.8204 293.936 20.6835 292.406 18.7001L293.823 17.2267C296.826 19.0968 300.566 21.9869 303.286 24.9337L299.773 28.0505H311.22ZM326.804 36.0976H337.628V38.6477H326.804V70.0993H321.591V38.6477H310.937V36.0976H321.591V17.9067H326.804V36.0976ZM289.346 38.421V35.9276H308.953V38.421H289.346ZM289.289 46.2981V43.8046H308.897V46.2981H289.289ZM289.346 69.9859V51.8517H308.783V69.2492H304.136V66.0191H294.219V69.9859H289.346ZM294.219 54.4018V63.4689H304.136V54.4018H294.219Z" fill="black"/>
<path d="M248.714 27.5405V30.1473H226.726V27.5405H237.153C235.566 24.197 233.47 20.4002 232.223 18.3034L233.753 17C236.303 18.9834 239.817 22.7236 241.8 25.7271L239.08 27.5405H248.714ZM247.864 42.1046L246.73 40.3478C251.547 36.6076 252.737 35.0209 252.737 25.9538V20.9669H268.435V32.5274C268.435 34.2842 268.718 35.0209 270.758 35.0209C272.515 35.0209 273.535 34.8509 275.008 33.4341L277.275 37.3443C275.858 38.8177 273.365 39.5544 269.908 39.5544C264.695 39.5544 263.448 38.1377 263.448 33.3208V23.517H257.838V26.1238C257.838 35.4742 254.551 38.9877 247.864 42.1046ZM246.504 37.911H228.766V35.4176H246.504V37.911ZM277.615 63.979L274.668 69.9859C269.285 68.3425 264.921 65.7924 261.464 62.5622C257.441 65.9624 252.341 68.7959 245.88 70.666L245.144 68.7959C251.037 66.4158 255.457 63.1856 258.744 59.7288C255.514 55.7052 253.304 50.945 252.114 45.6181H248.714V43.0679H266.338L267.868 42.0479L272.912 44.258C271.325 49.5849 268.831 54.6852 264.921 59.1621C269.115 61.7689 273.705 63.1289 277.615 63.979ZM246.504 43.3513V45.8448H228.766V43.3513H246.504ZM254.267 45.6181C255.854 50.3783 258.404 53.9485 261.408 56.5553C264.128 52.8718 265.715 49.0182 266.621 45.6181H254.267ZM246.844 51.3984V65.8491H233.81V69.7026H228.936V51.3984H246.844ZM242.083 63.2989V53.9485H233.81V63.2989H242.083Z" fill="black"/>
<path d="M180.54 26.8605V24.2537H166.26V21.7036H180.54V17.7934H185.414V21.7036H196.465V17.7934H201.281V21.7036H216.129V24.197H201.281V26.9172H196.465V24.2537H185.414V26.8605H180.54ZM168.923 30.8274V28.4472H213.919V30.8274H168.923ZM175.497 45.6181V33.0941H208.308V45.6181H175.497ZM180.144 38.1944H189.324V35.4176H180.144V38.1944ZM193.914 38.1944H203.662V35.4176H193.914V38.1944ZM180.144 43.2946H189.324V40.4612H180.144V43.2946ZM193.914 43.2946H203.662V40.4612H193.914V43.2946ZM167.903 49.8683V47.4882H215.222V49.8683H167.903ZM174.25 64.829V52.0784H209.215V64.829H174.25ZM178.897 57.3487H189.324V54.4018H178.897V57.3487ZM193.914 57.3487H204.455V54.4018H193.914V57.3487ZM178.897 62.5056H189.324V59.6154H178.897V62.5056ZM193.914 62.5056H204.455V59.6154H193.914V62.5056ZM166.656 69.1359V66.6991H216.356V69.1359H166.656Z" fill="black"/>
<path d="M151.016 36.7776L155.662 39.2711C153.906 42.5579 150.279 47.9982 148.239 49.7549L146.652 48.6782C147.842 46.0148 149.146 42.3879 149.712 40.3478H144.329V64.7723C144.329 70.0426 139.625 72.366 130.161 66.3591L130.785 64.4323C138.435 66.3024 139.342 65.509 139.342 62.8456V40.3478H130.445V37.7977H142.685C140.362 34.9075 136.905 31.4507 133.845 28.6172L134.978 26.8605C137.245 27.9939 139.568 29.2973 141.835 30.8273C143.932 28.3339 146.765 24.3104 147.842 22.1002H131.465V19.5501H147.842L149.656 18.8134L154.586 22.1569C151.866 25.4437 147.615 29.5239 143.819 32.2441C144.952 33.0374 146.029 33.9442 147.049 34.8509L144.102 37.7977H149.712L151.016 36.7776ZM131.521 57.5186L132.201 59.4454C124.778 63.0723 114.067 66.3024 106.417 67.6058L105 62.1655C108.4 61.9389 112.197 61.4855 116.164 60.8055V53.2684H106.473V50.7183H116.164V44.3713H107.607V20.0601H129.368V44.3713H120.924V50.7183H130.728V53.2684H120.924V59.9554C124.551 59.2754 128.121 58.4254 131.521 57.5186ZM112.254 22.6103V30.7707H116.164V22.6103H112.254ZM120.924 22.6103V30.7707H124.721V22.6103H120.924ZM112.254 41.8212H116.164V33.3208H112.254V41.8212ZM120.924 33.3208V41.8212H124.721V33.3208H120.924Z" fill="black"/>
<path d="M47.5 83C69.3152 83 87 65.3152 87 43.5C87 21.6848 69.3152 4 47.5 4C25.6847 4 8 21.6848 8 43.5C8 65.3152 25.6847 83 47.5 83Z" stroke="black" stroke-width="3" stroke-miterlimit="10"/>
<path d="M46.5306 50.1608C46.5306 50.1608 37.2043 47.6122 29.8198 50.4747C22.4352 53.3373 21 59.4185 21 59.4185C21 59.4185 26.5879 63.6635 32.371 62.6926C38.1541 61.7217 44.5282 57.4134 46.5306 50.1608Z" fill="black"/>
<path d="M49.4696 50.1658C49.4696 50.1658 58.7959 47.6146 66.1805 50.4771C73.565 53.3396 75.0002 59.4235 75.0002 59.4235C75.0002 59.4235 69.4123 63.6685 63.6292 62.695C57.8461 61.7214 51.4721 57.4158 49.4696 50.1658Z" fill="black"/>
<path d="M47.9516 51.15C47.9516 51.15 46.8962 59.5925 46.8962 61.9669C46.8962 64.3414 47.751 64.3414 47.9278 64.3414C48.1046 64.3414 49.0069 64.3414 49.0069 61.9907C49.0069 59.64 47.9516 51.15 47.9516 51.15Z" fill="black"/>
<path d="M62.0512 18C62.0512 18 59.1491 20.0922 57.2786 21.4034C55.5241 22.6328 50.2027 24.8754 47.9549 27.4503C45.7018 24.878 40.3857 22.6355 38.6312 21.406C36.758 20.0869 33.8586 18.0053 33.8586 18.0053C32.0672 18.9524 29.8035 28.8618 31.1148 34.3283C32.426 39.7948 41.404 43.6493 43.9183 45.723C45.8232 47.2902 47.9549 49.5116 47.9549 49.5116C47.9707 49.4958 50.0919 47.2875 51.9888 45.723C54.5057 43.652 63.4811 39.7974 64.7924 34.3309C66.1036 28.8644 63.8426 18.963 62.0512 18ZM47.9232 46.9445C47.9232 46.9445 46.8917 38.5021 46.8917 36.1276C46.8917 33.7532 47.7465 33.7532 47.9232 33.7532C48.1 33.7532 49.0023 33.7532 49.0023 36.1065C49.0023 38.4598 47.9232 46.9445 47.9232 46.9445Z" fill="black"/>
<path d="M41.1245 47.6516C41.1245 47.6516 33.1912 44.6018 31.099 43.4858C29.0068 42.3698 29.3999 41.6179 29.4844 41.4596C29.5688 41.3013 30.012 40.5098 32.0672 41.61C34.1225 42.7101 41.1245 47.6516 41.1245 47.6516Z" fill="black"/>
<path d="M54.8015 47.6069C54.8015 47.6069 62.8826 44.9686 65.038 43.974C67.1935 42.9793 66.8321 42.1958 66.7582 42.0322C66.6843 41.8686 66.2938 41.0587 64.17 42.048C62.0462 43.0374 54.8015 47.6069 54.8015 47.6069Z" fill="black"/>
</svg>
