<?xml version="1.0" encoding="UTF-8"?><svg xmlns="http://www.w3.org/2000/svg" viewBox="0 0 863.87 856.38"><defs><style>.cls-1{fill:#e0cea1;}.cls-2{fill:#e2d0a3;}.cls-3{fill:#00252c;}.cls-4{fill:#4e7878;}.cls-5{fill:#a7403b;}</style></defs><g id="_圖層_12"><rect class="cls-3" x=".62" y=".32" width="863.87" height="857.64"/></g><g id="_底圈"><circle class="cls-3" cx="429.76" cy="426.83" r="270.64"/></g><g id="_放射線"><rect class="cls-2" x="192.26" y="337.25" width="10" height="40.94" transform="translate(-204.28 282.63) rotate(-50.53)"/><rect class="cls-2" x="215.49" y="297.32" width="10" height="78.8" transform="translate(-178.05 280.5) rotate(-48.75)"/><rect class="cls-2" x="243.57" y="264.62" width="10" height="109.84" transform="translate(-155.61 296.41) rotate(-48.85)"/><polygon class="cls-2" points="332.79 316.91 259.07 221.07 266.75 215.27 342.19 312.95 332.79 316.91"/><polygon class="cls-2" points="364.26 305.83 303.23 188.61 312.1 183.99 374.34 303.53 364.26 305.83"/><polygon class="cls-2" points="394.7 295.37 353.68 170.94 362.57 168.22 403.59 292.64 394.7 295.37"/><rect class="cls-2" x="637.15" y="349.37" width="50.35" height="10" transform="translate(-58.38 566.11) rotate(-44.52)"/><rect class="cls-2" x="599.42" y="329.37" width="83.93" height="10" transform="translate(-45.76 560.21) rotate(-45.73)"/><rect class="cls-2" x="557.1" y="311.91" width="115.21" height="10" transform="translate(-43.65 528.71) rotate(-45.11)"/><polygon class="cls-2" points="526.39 316.95 514.52 311.27 588.8 211 598.85 217.93 526.39 316.95"/><polygon class="cls-2" points="498.93 305.83 486.19 302.94 542.47 184.81 551.51 189.09 498.93 305.83"/><polygon class="cls-2" points="461.63 295.37 452.62 292.4 495.65 162.93 504.65 165.9 461.63 295.37"/><rect class="cls-2" x="423.86" y="148.78" width="10" height="158.75"/></g><g id="_議會"><path class="cls-3" d="M182.98,485.06l51.72-12.48,196.86,111.59,190.26-111.59,53.98,20.44s-28.63,102.83-85.3,143.15c-56.67,40.31-93.82,57.86-158.21,59.6-64.38,1.74-130.4-32.14-157.28-55.51-26.87-23.37-86.88-88.72-92.03-155.19Z"/><polygon class="cls-4" points="387.94 443.93 428.41 437.97 469.78 444.87 469.78 457.15 387.94 457.15 387.94 443.93"/><polygon class="cls-4" points="363.58 447.13 363.58 457.15 293.21 465.2 287.05 461.48 326.85 450.77 363.58 447.13"/><polygon class="cls-4" points="494.87 447.13 494.87 457.15 565.24 465.2 571.4 461.48 531.6 450.77 494.87 447.13"/><polygon class="cls-4" points="414.27 483.95 443.72 483.95 470.35 561.38 431.13 583.8 387.51 559.07 414.27 483.95"/><polygon class="cls-4" points="393.12 485.88 368.61 486.31 335.17 529.6 366.41 547.09 393.12 485.88"/><polygon class="cls-4" points="465.16 485.31 493.7 486.31 524.89 528.81 493.27 548.45 465.16 485.31"/><polygon class="cls-4" points="345.09 487.31 310.7 515.5 285.19 501.21 324.89 486.83 345.09 487.31"/><polygon class="cls-4" points="518.3 487.83 547.33 516.23 572.68 501.43 539.61 487.31 518.3 487.83"/></g><g id="_觀眾"><path class="cls-3" d="M568.65,641.92h0s-.01.02,0,0Z"/><path class="cls-3" d="M641.82,516.91c0-10.94-8.9-19.83-19.83-19.83s-19.83,8.9-19.83,19.83c0,5.51,2.23,10.59,6.01,14.24-.03.47-.06.92-.1,1.36-.11,1.39-.22,2.96-.33,4.67,0,.07,0,.14-.01.21-3.49-4.2-8.75-6.88-14.64-6.88-3.2,0-6.21.8-8.86,2.2-2.93-7.29-10.07-12.46-18.4-12.46-10.94,0-19.83,8.9-19.83,19.83,0,5.92,2.64,11.39,6.97,15.09-.03,6.14-.57,15.34-.92,20.8-3.48-4.49-8.91-7.39-15.03-7.39-4.01,0-7.73,1.25-10.8,3.37-2.58-7.96-10.06-13.74-18.87-13.74-10.94,0-19.83,8.9-19.83,19.83,0,6.54,3.22,12.49,8.32,16.14.46,2.63.8,4.71,1.02,6.18-3.24-2.57-7.33-4.11-11.79-4.11-2.92,0-5.67.68-8.14,1.85-2.74-7.68-10.06-13.19-18.67-13.19-10.94,0-19.83,8.9-19.83,19.83,0,3.82,1.09,7.44,3.02,10.53-2.79-1.61-6.03-2.55-9.48-2.55-2.79,0-5.44.62-7.83,1.7,2.34-3.27,3.69-7.26,3.69-11.55,0-10.94-8.9-19.83-19.83-19.83s-19.08,8.19-19.77,18.51c-2.76-1.57-5.95-2.47-9.36-2.47-3.59,0-6.93,1.01-9.79,2.74l1.38-7.25c5.41-3.58,8.82-9.67,8.82-16.52,0-10.94-8.9-19.83-19.83-19.83-9.61,0-17.64,6.87-19.45,15.95-3.44-3.45-8.2-5.58-13.46-5.58-5.53,0-10.5,2.38-13.98,6.15-.08-.39-.15-.76-.2-1.07-.24-1.75-.27-9.52-.15-15.67v-2.37c4.63-3.67,7.49-9.31,7.49-15.53,0-10.94-8.9-19.83-19.83-19.83-9.7,0-17.78,7-19.49,16.22-3.24-2.55-7.31-4.08-11.74-4.08-4.73,0-9.04,1.74-12.37,4.59-.11-1.93-.15-4.13-.12-6.5,3.55-3.63,5.61-8.55,5.61-13.83,0-10.94-8.9-19.83-19.83-19.83s-19.83,8.9-19.83,19.83c0,4.6,1.58,8.97,4.4,12.46v2.47s.16,4.29.32,11.18c.19,8.22,1.53,16.91,3.58,23.26,1.06,3.29,2.84,6.53,4.56,9.65,1.06,1.92,2.64,4.81,2.97,5.98.87,8.86,13.36,26.15,19.72,32.35,6.9,6.73,20.63,17.99,21.21,18.47l16.34,13.38c.48.79.95.37,1.41,1.05l5.6,2.74c1.27.62,31.25,15.3,35.26,17.16l11.28,5.24,53.32,14.6,58.25.64,52.68-12.07.45-.1,3.38-1.74,51.87-31.44s.01-.02,0,0l14.64-7.66c.9-.47,22.14-11.75,33.49-32.63,3.14-5.78,5.54-9.89,7.47-13.2,4.27-7.31,6.62-11.34,8.65-19.47,3.16-12.62,3.99-25.39,4.17-29.01.12-2.39.17-5.86.15-10.35,2.94-3.51,4.59-7.96,4.59-12.7ZM424.19,667.57v-.3s.09.03.12.04l.9.27h-1.02Z"/><path class="cls-1" d="M268.6,536.14c-8.42,0-15.25,6.83-15.25,15.25s6.83,15.25,15.25,15.25,15.25-6.83,15.25-15.25-6.83-15.25-15.25-15.25ZM272.18,550.14c-.53-.44-.79-2.32-4.12-4.22l-3.33-1.9s.26-1.66,3.33-2.45c3.06-.79,5.52,1.07,6.65,1.98,1.14.91,2.98,5.38,2.98,6.25s-4.99.79-5.52.35Z"/><path class="cls-1" d="M326.5,573.27c-8.42,0-15.25,6.83-15.25,15.25s6.83,15.25,15.25,15.25,15.25-6.83,15.25-15.25-6.83-15.25-15.25-15.25ZM330.08,587.26c-.53-.44-.79-2.32-4.12-4.22l-3.33-1.9s.26-1.66,3.33-2.45c3.06-.79,5.52,1.07,6.65,1.98,1.14.91,2.98,5.38,2.98,6.25s-4.99.79-5.52.35Z"/><path class="cls-1" d="M378.84,603.1c-8.42,0-15.25,6.83-15.25,15.25s6.83,15.25,15.25,15.25,15.25-6.83,15.25-15.25-6.83-15.25-15.25-15.25ZM382.42,617.09c-.53-.44-.79-2.32-4.12-4.22l-3.33-1.9s.26-1.66,3.33-2.45c3.06-.79,5.52,1.07,6.65,1.98s2.98,5.38,2.98,6.25-4.99.79-5.52.35Z"/><path class="cls-1" d="M431.94,618.35c-8.42,0-15.25,6.83-15.25,15.25s6.83,15.25,15.25,15.25,15.25-6.83,15.25-15.25-6.83-15.25-15.25-15.25ZM435.52,632.35c-.53-.44-.79-2.32-4.12-4.22l-3.33-1.9s.26-1.66,3.33-2.45c3.06-.79,5.52,1.07,6.65,1.98,1.14.91,2.98,5.38,2.98,6.25s-4.99.79-5.52.35Z"/><path class="cls-1" d="M485.04,603.78c-8.42,0-15.25,6.83-15.25,15.25s6.83,15.25,15.25,15.25,15.25-6.83,15.25-15.25-6.83-15.25-15.25-15.25ZM488.62,617.77c-.53-.44-.79-2.32-4.12-4.22l-3.33-1.9s.26-1.66,3.33-2.45c3.06-.79,5.52,1.07,6.65,1.98s2.98,5.38,2.98,6.25-4.99.79-5.52.35Z"/><path class="cls-1" d="M536.99,573.27c-8.42,0-15.25,6.83-15.25,15.25s6.83,15.25,15.25,15.25,15.25-6.83,15.25-15.25-6.83-15.25-15.25-15.25ZM540.58,587.26c-.53-.44-.79-2.32-4.12-4.22l-3.33-1.9s.26-1.66,3.33-2.45c3.06-.79,5.52,1.07,6.65,1.98,1.14.91,2.98,5.38,2.98,6.25s-4.99.79-5.52.35Z"/><path class="cls-1" d="M593.07,535.21c-8.42,0-15.25,6.83-15.25,15.25s6.83,15.25,15.25,15.25,15.25-6.83,15.25-15.25-6.83-15.25-15.25-15.25ZM596.65,549.2c-.53-.44-.79-2.32-4.12-4.22l-3.33-1.9s.26-1.66,3.33-2.45c3.06-.79,5.52,1.07,6.65,1.98s2.98,5.38,2.98,6.25-4.99.79-5.52.35Z"/><path class="cls-2" d="M630.72,516.75c0-5.43-4.4-9.83-9.83-9.83s-9.83,4.4-9.83,9.83c0,4.16,2.59,7.71,6.24,9.15-.06,2.27-.17,4.82-.37,7.25-.54,6.69-.97,18.02-2.8,25.35-1.83,7.34-4.53,10.71-8.09,14.36-3.56,3.65-16.83,3.87-16.83,3.87l-7.8.46s-4.67-5.51-7.68-13.09c-1.68-4.24-2.65-11.08-3.17-16.29,2.42-1.79,4-4.65,4-7.9,0-5.43-4.4-9.83-9.83-9.83s-9.83,4.4-9.83,9.83c0,4.31,2.78,7.97,6.64,9.29.1.67.21,1.36.32,2.07,0,.97,0,2.04,0,3.26,0,9.57-1.27,26.53-1.27,26.53,0,0-1.27,6.08-2.91,11.26-1.65,5.19-3.16,11.01-6.33,14.56-3.16,3.54-12.28,5.95-12.28,5.95,0,0-8.48,1.8-12.4,1.09-3.92-.71-10.12-9.82-12.15-16.02-2.03-6.2-2.28-8.86-2.28-8.86l-.25-3.2c2.47-1.79,4.08-4.69,4.08-7.97,0-5.43-4.4-9.83-9.83-9.83s-9.83,4.4-9.83,9.83c0,4.55,3.1,8.37,7.3,9.49.73,4.11,1.56,8.85,1.99,11.71.87,5.84.99,14.7,0,21.41-.99,6.71-5.54,17.39-8.84,20.01-3.29,2.62-13.64,3.89-16.3,2.72-2.65-1.17-8.98-4.39-11.94-11.25,0,0-2.25-4.05-4.51-11.49-.82-2.69-1.18-5.45-1.31-7.88,2.53-1.78,4.19-4.71,4.19-8.04,0-5.43-4.4-9.83-9.83-9.83s-9.83,4.4-9.83,9.83c0,4.08,2.49,7.58,6.02,9.07.35,1.67.97,4.95,1.43,9.22,0,0,0,.01,0,.02.03.49.09,1.01.16,1.53.22,2.33.38,4.89.44,7.62.21,11.09-13.39,25.54-13.39,25.54h-15.9s-7.11-2.11-12.34-10.69c-5.23-8.58-5.23-15.27-5.23-15.27v-16.84c.21-.89.4-1.72.58-2.49,4.37-1,7.63-4.91,7.63-9.58,0-5.43-4.4-9.83-9.83-9.83s-9.83,4.4-9.83,9.83c0,3.45,1.78,6.48,4.47,8.23,0,0,0,.02,0,.02-.02.14-.14.91-.31,2.15-.47,2.85-1.29,6.45-2.73,10.33-3.35,8.99-7.53,15.06-12.55,18.62-5.02,3.56-16.73-2.3-17.78-2.72-1.05-.42-9.2-9.62-12.34-22.17l1.82-14.64,2.86-15.07c4.4-.98,7.68-4.9,7.68-9.59,0-5.43-4.4-9.83-9.83-9.83s-9.83,4.4-9.83,9.83c0,2.64,1.04,5.03,2.73,6.79-.18,1.23-.47,3.35-.8,5.98-.38,1.69-.91,3.64-1.64,5.83-2.72,8.06-9.93,15.94-9.93,15.94l-1.56,1.46-15.56-.85s-7.5-3.11-12.16-12.02c-4.67-8.91-7.64-22.63-8.2-25.88-.57-3.25-.28-17.51-.28-17.51v-8.16c4.3-1.05,7.49-4.91,7.49-9.54,0-5.43-4.4-9.83-9.83-9.83s-9.83,4.4-9.83,9.83c0,3.16,1.5,5.97,3.82,7.77-.64,4.61-1.53,10.6-2.07,13.3-.81,4.07-5.69,15.45-10.73,15.45s-8.46.65-15.65-1.14c-7.2-1.79-9.06-5.04-11.67-9.27-2.6-4.23-6.18-16.75-7.16-25.21-.6-5.23-.46-11.51-.26-15.54,3.23-1.61,5.45-4.94,5.45-8.8,0-5.43-4.4-9.83-9.83-9.83s-9.83,4.4-9.83,9.83c0,3.42,1.75,6.43,4.4,8.19v6.39s.15,4.31.31,11.3c.16,6.99,1.31,14.88,3.1,20.41,1.79,5.53,7.64,13.17,7.97,17.73s6.38,22.73,13.05,29.23c6.67,6.51,24.26,18.39,24.26,18.39v-35.1s6.58-9.57,8.54-13.52c.11,2.28.25,4.48.45,6.53,1.53,15.82,10.02,30.24,12.42,32.36v25.83s31.11,13.28,35.07,15.12v-29.78s4.86-2.48,8.08-10.66c.04.55.09,1.09.15,1.58,1.37,10.7,3.96,22.62,8.84,28.27v16.52l33.32,8.37v-19.03s5.07-4.71,9.81-15.3c0,0,0,0,0,0,2.11,10.49,10.06,24.71,12.36,27.22v10.88h36.07v-8.37s5.22-9.35,8.84-17.43c1.6-3.59,2.54-6.94,3.08-9.56,2.38,4.49,5.09,8.32,7.52,10.16v22.47l37.07-8.49v-16.45s5.65-5.84,7.24-18.04c.49-3.78.81-7.96.94-12.12.58,1.05,1.18,1.99,1.8,2.74,7.21,8.86,6.2,9.49,6.2,9.49v26.96l35.57-18.29v-20.44s6.46-9.37,9.49-22.4c1.33-5.7,2.22-11.84,2.81-16.94,3.49,6.61,7.83,14.03,7.83,14.03v30.51s22.37-8.18,32.4-26.63c10.03-18.45,9.67-22.31,12.15-32.24,2.48-9.93,3.56-20.61,3.88-27.08.18-3.63.16-9.64.1-14.21,2.78-1.74,4.63-4.82,4.63-8.33Z"/></g><g id="_圖層_7"><path class="cls-2" d="M289.23,670.62l-3-1.97-6.26,9.51-5.81-3.82,6.26-9.51-3-1.97,3.34-5.07,11.81,7.77-3.34,5.07Z"/><path class="cls-2" d="M303.55,675.99l-7.01,12.15-3.49-2.02-.28-2.12-2.27.65-3.93-2.27-.92-3.73,4.24-7.35,3.84-.98,9.82,5.67ZM293.98,680.38l2-3.46-1.75-1.01-2,3.46,1.75,1.01Z"/><path class="cls-2" d="M298.6,689.16l6.02-11.69,5.94,3.06-6.02,11.69-5.94-3.06ZM305.1,676.54l1.87-3.64,5.94,3.06-1.87,3.64-5.94-3.06Z"/><path class="cls-2" d="M312.45,680.57l10.03,4.57,1.41,3.69-4.67,10.24-5.71-2.61,3.45-7.56-1.22-.56-3.45,7.56-5.65-2.58,5.82-12.76Z"/><path class="cls-2" d="M339.67,691.99l-5.04,13.1-3.76-1.45-.61-2.06-2.14,1-4.24-1.63-1.5-3.54,3.05-7.92,3.64-1.57,10.59,4.07ZM330.9,697.82l1.43-3.73-1.88-.72-1.43,3.73,1.88.72Z"/><path class="cls-2" d="M341.12,692.49l10.51,3.33,1.85,3.49-3.39,10.73-5.99-1.89,2.51-7.93-1.28-.41-2.51,7.93-5.93-1.88,4.23-13.37Z"/><path class="cls-2" d="M375.89,709.67l-1.37,6.19-11.69-2.58-2.2-3.46,2.52-11.42,3.46-2.25,11.48,2.54-1.39,6.3-7.36-1.63-1.02,4.63,7.57,1.67Z"/><path class="cls-2" d="M376.64,716.23l2.25-12.95,6.58,1.14-2.25,12.95-6.58-1.14ZM379.06,702.24l.7-4.03,6.58,1.14-.7,4.04-6.58-1.14Z"/><path class="cls-2" d="M394.07,710.42l-.39,2.89,2.77.38-.74,5.45-6.58-.9-2.41-3.13.76-5.6-1.44-.2.73-5.35,1.44.2.42-3.12,6.6.9-.43,3.12,2.77.38-.73,5.35-2.77-.38Z"/><path class="cls-2" d="M412.35,706.62l-1.35,15.12-3.01,2.52-9.89-.88.41-4.67,6.3.56.1-1.13-4.92-.44-1.82-2.31.88-9.96,5.77.51-.59,6.67,1.49.13.59-6.67,6.03.54Z"/><path class="cls-2" d="M436.22,714.96l-.1,6.34-11.97-.19-2.85-2.94.19-11.7,2.94-2.89,11.76.19-.1,6.45-7.54-.12-.08,4.75,7.75.12Z"/><path class="cls-2" d="M438.2,718.61l-.33-8.62,2.6-2.85,8.56-.32,2.81,2.65.33,8.62-2.6,2.87-8.56.32-2.81-2.67ZM446.28,716.04l-.15-4.07-2.29.09.15,4.07,2.29-.09Z"/><path class="cls-2" d="M467.13,705.44l1.26,13.97-4.12.37-1.39-1.56-1.46,1.82-4.23.38-2.89-2.52-1.01-11.21,6.23-.56.76,8.37,1.34-.12-.76-8.37,6.25-.57Z"/><path class="cls-2" d="M468.67,705.2l10.91-1.59,3.18,2.34,1.62,11.14-6.21.9-1.2-8.23-1.33.19,1.2,8.23-6.15.89-2.02-13.88Z"/><path class="cls-2" d="M489.41,716.13l-3.31-2.16-1.68-8.32,2.21-3.27,9.51-1.92,1.1,5.48-6.15,1.24.54,2.68,6.16-1.24,1.13,5.6-9.51,1.92Z"/><path class="cls-2" d="M497.67,699.89l-.98-3.98,6.48-1.6.98,3.98-6.48,1.6ZM501.07,713.67l-3.14-12.76,6.48-1.6,3.14,12.76-6.48,1.6Z"/><path class="cls-2" d="M515.97,709.71l-6.23,1.75-4.93-17.57,6.23-1.75,4.93,17.57Z"/><path class="cls-2" d="M536.72,692.98l-.97,2.04,2.07.94,2.04,5.54-6.26,2.31-1.56-4.24-1.91.71,1.57,4.25-5.87,2.16-6.07-16.47,12.23-4.51,2.6,1.48,2.13,5.79ZM530.49,694.41l-.94-2.54-2.46.91.94,2.54,2.46-.91Z"/><path class="cls-2" d="M541.06,698.18l-3.5-7.88,1.36-3.61,7.83-3.48,3.59,1.41,3.51,7.88-1.35,3.63-7.83,3.48-3.6-1.43ZM547.6,692.79l-1.65-3.72-2.09.93,1.66,3.72,2.09-.93Z"/><path class="cls-2" d="M564.32,677.4l3.93,7.51-1.21,3.76-9.9,5.18-8.48-16.2,5.54-2.9,1.98,3.78,4.35-2.28,3.78,1.15ZM560.06,682.12l-1.71.9,1.98,3.78,1.71-.9-1.98-3.78Z"/><path class="cls-2" d="M570.21,683.92l-4.48-7.38.89-3.76,7.32-4.45,3.74.94,4.48,7.38-.88,3.78-7.32,4.45-3.75-.96ZM576.01,677.74l-2.12-3.48-1.96,1.19,2.12,3.48,1.96-1.19Z"/><path class="cls-2" d="M586.99,666.36l1.66,2.41,2.3-1.58,3.12,4.53-5.47,3.76-3.89-.69-3.2-4.66-1.19.82-3.06-4.45,1.19-.82-1.79-2.6,5.49-3.77,1.79,2.6,2.3-1.58,3.06,4.45-2.3,1.58Z"/><path class="cls-2" d="M170.77,184.33c-7.33,7.12-11.12,16.51-11.4,25.97-.19,6.77,1.36,13.57,4.76,19.67l52.44-50.94c-5.4-3.22-11.39-4.99-17.5-5.32-10.14-.53-20.46,2.98-28.31,10.61h0Z"/><path class="cls-2" d="M228.92,185.69c-.04-.33-.16-.64-.4-.89l-3.78-3.89c-.23-.24-.53-.35-.84-.41-.09-.02-.18-.04-.29-.04-.37,0-.73.13-1.02.41l-56.79,55.17c-.23.22-.32.49-.4.78-.08.36-.02.72.15,1.04.07.12.13.25.21.33l3.78,3.89c.14.15.33.26.51.34.02.02.07,0,.09.02.53.17,1.13.09,1.56-.33l56.79-55.17c.36-.35.47-.82.43-1.28v.02Z"/><path class="cls-2" d="M230.18,193.04l-52.42,50.92c5.62,3.37,11.93,5.12,18.28,5.31,1.63.04,3.26.01,4.9-.13l33.76-32.79c.23-1.82.3-3.63.28-5.44-.1-6.16-1.69-12.31-4.78-17.84v-.03Z"/><path class="cls-2" d="M299.18,331.94l14.6-13.88c2.48-2.36,2.67-6.22.41-8.83l-70.15-80.95-30.99,29.46,77.29,74.17c2.47,2.38,6.36,2.4,8.84.04h0ZM249.4,270.99c-1.59-1.67-1.52-4.28.15-5.87,1.67-1.59,4.28-1.52,5.87.15l7.31,7.69c1.59,1.67,1.52,4.28-.15,5.87s-4.28,1.52-5.87-.15l-7.31-7.69Z"/><path class="cls-2" d="M270.97,591.41c-3.53-7.44-11.15-10.97-17.1-8.18l-.37.19c-1.12.56-2.42,1.12-3.53,1.67,0,0-7.66,3.35-13.66,5.63-6,2.28-16.26,2.93-16.26,2.93-13.75,1.86-28.07,1.3-42.57-1.86-10.41-2.23-19.89-3.35-24.16-1.12-14.13,6.88-15.43,33.46-2.79,59.29,12.64,25.65,34.2,41.08,48.33,34.2,4.28-2.04,9.29-10.22,13.94-19.89,12.08-24.54,30.48-43.49,53.53-54.65,5.76-2.79,8.18-10.97,4.65-18.22ZM193.64,673.76c-10.97,5.39-27.7-6.69-37.36-26.77-9.85-20.07-8.74-40.71,2.04-45.91,10.97-5.39,27.7,6.69,37.36,26.77,9.85,19.89,8.92,40.52-2.04,45.91Z"/><ellipse class="cls-2" cx="184.23" cy="634.08" rx="9.14" ry="17.66" transform="translate(-246.63 133.72) rotate(-24.53)"/><path class="cls-2" d="M611.58,602.2c23.05,11.15,41.45,30.11,53.53,54.65,4.65,9.67,9.67,17.84,13.94,19.89,14.13,6.88,35.69-8.55,48.33-34.2,12.64-25.84,11.34-52.42-2.79-59.29-4.28-2.23-13.75-1.12-24.16,1.12-14.5,3.16-28.81,3.72-42.57,1.86,0,0-10.26-.65-16.26-2.93-6-2.28-13.66-5.63-13.66-5.63-1.12-.56-2.42-1.12-3.53-1.67l-.37-.19c-5.95-2.79-13.57.74-17.1,8.18-3.53,7.25-1.12,15.43,4.65,18.22ZM682.21,620.42c9.67-20.07,26.39-32.16,37.36-26.77,10.78,5.2,11.9,25.84,2.04,45.91-9.67,20.07-26.39,32.16-37.36,26.77s-11.9-26.02-2.04-45.91Z"/><ellipse class="cls-2" cx="693.66" cy="626.65" rx="17.66" ry="9.14" transform="translate(-164.42 997.54) rotate(-65.47)"/><path class="cls-2" d="M689.9,188.98c-7.5-7.96-17.66-11.94-27.81-11.85-6.11.05-12.18,1.56-17.71,4.54l50.13,53.21c3.66-5.94,5.52-12.67,5.62-19.44.15-9.46-3.22-19.01-10.23-26.45h0Z"/><path class="cls-2" d="M631.73,187.75c-.06.45.03.93.37,1.29l54.29,57.63c.41.44,1,.55,1.54.4.02-.02.07,0,.09-.02.19-.07.38-.18.53-.31l3.94-3.72c.09-.08.15-.21.22-.32.19-.32.26-.67.2-1.03-.07-.3-.15-.57-.36-.8l-54.29-57.63c-.27-.29-.62-.44-1-.45-.11,0-.2,0-.29.03-.32.05-.61.15-.86.38l-3.94,3.72c-.25.24-.38.54-.43.87v-.02Z"/><path class="cls-2" d="M630.15,195.1c-3.33,5.38-5.2,11.45-5.57,17.61-.1,1.81-.11,3.62.04,5.45l32.27,34.26c1.63.21,3.26.31,4.89.35,6.35.1,12.73-1.38,18.49-4.49l-50.11-53.19v.03Z"/><path class="cls-2" d="M555.58,336.75c2.52,2.32,6.41,2.23,8.84-.19l75.98-75.51-31.5-28.91-68.73,82.16c-2.21,2.65-1.96,6.51.56,8.82l14.84,13.62h0ZM597.12,282.75c-1.56,1.7-4.17,1.81-5.87.25s-1.81-4.17-.25-5.87l7.17-7.81c1.56-1.7,4.17-1.81,5.87-.25s1.81,4.17.25,5.87l-7.17,7.81Z"/><polygon class="cls-5" points="260.77 642.55 251.08 642.55 246.23 650.95 251.08 659.34 260.77 659.34 265.62 650.95 260.77 642.55"/><polygon class="cls-5" points="615.86 642.55 606.17 642.55 601.32 650.95 606.17 659.34 615.86 659.34 620.71 650.95 615.86 642.55"/><polygon class="cls-5" points="320.62 141.7 310.93 141.7 306.08 150.1 310.93 158.49 320.62 158.49 325.47 150.1 320.62 141.7"/><polygon class="cls-5" points="550.94 140.38 541.24 140.38 536.4 148.78 541.24 157.18 550.94 157.18 555.79 148.78 550.94 140.38"/><path class="cls-2" d="M429.39,148.78c-149.61,0-270.89,121.28-270.89,270.89s121.28,270.89,270.89,270.89,270.89-121.28,270.89-270.89-121.28-270.89-270.89-270.89ZM429.76,672.63c-141.59,0-256.37-114.78-256.37-256.37s114.78-256.37,256.37-256.37,256.37,114.78,256.37,256.37-114.78,256.37-256.37,256.37Z"/><path class="cls-2" d="M358.8,131.76l-3.43,1.08,3.42,10.86-6.63,2.09-3.42-10.86-3.43,1.08-1.83-5.79,13.48-4.25,1.83,5.79Z"/><path class="cls-2" d="M373.28,125.74l3.2,13.66-3.93.92-1.66-1.36-1.21,2.03-4.42,1.03-3.23-2.09-1.94-8.26,2.13-3.35,11.04-2.59ZM369.31,135.49l-.91-3.88-1.96.46.91,3.88,1.96-.46Z"/><path class="cls-2" d="M375.32,125.25l-.73-4.03,6.57-1.19.73,4.03-6.57,1.19ZM377.86,139.21l-2.35-12.93,6.57-1.19,2.35,12.93-6.57,1.19Z"/><path class="cls-2" d="M383.98,123.81l10.93-1.47,3.16,2.37,1.5,11.16-6.22.83-1.11-8.24-1.33.18,1.11,8.24-6.16.83-1.87-13.9Z"/><path class="cls-2" d="M413.91,120.66l1.08,13.98-4.02.31-1.43-1.6-1.5,1.82-4.52.35-2.87-2.56-.65-8.46,2.61-2.98,11.31-.87ZM408.5,129.7l-.31-3.98-2.01.16.31,3.98,2.01-.16Z"/><path class="cls-2" d="M416.01,120.56l11.02-.26,2.88,2.7.27,11.25-6.28.15-.2-8.31-1.34.03.2,8.31-6.21.15-.34-14.03Z"/><path class="cls-2" d="M438.82,134.38l.18-3.82,5.98.29.05-1.09-4.57-.22-1.44-1.52.26-5.5,2.05-2.07,10.47.5-.16,3.36-6-.29-.05,1.09,4.87.23,1.44,1.52-.29,5.96-2.05,2.07-10.74-.52Z"/><path class="cls-2" d="M467.85,125.22l-.82,8.45-3.07,2.49-4.87-.47-.44,4.54-6.23-.6,1.8-18.5,11.1,1.08,2.53,3.03ZM461.64,126.64l-1.92-.19-.41,4.24,1.92.19.41-4.24Z"/><path class="cls-2" d="M480,130.89l-4.14-.6-1.05,7.29-6.82-.98,2-13.88,6.55.94-.22,1.54,1.84-1.14,2.76.4-.92,6.42Z"/><path class="cls-2" d="M480.36,135.68l1.64-8.47,3.18-2.19,8.41,1.62,2.14,3.21-1.64,8.47-3.18,2.21-8.41-1.62-2.13-3.23ZM488.81,135.01l.77-4-2.25-.43-.77,4,2.25.43Z"/><path class="cls-2" d="M511.75,131.12l-3.47,13.6-4.01-1.02-.79-1.93-1.98,1.23-4.11-1.05-1.88-3.34,2.78-10.91,6.07,1.55-2.08,8.14,1.3.33,2.08-8.14,6.09,1.55Z"/><path class="cls-2" d="M519.38,139.4l-.9,2.78,2.66.86-1.7,5.23-6.31-2.05-1.82-3.51,1.75-5.37-1.38-.45,1.67-5.13,1.38.45.98-3,6.33,2.06-.97,3,2.66.86-1.67,5.13-2.66-.86Z"/></g><g id="_中間字條"><path class="cls-2" d="M720.89,509.85l61.25,5.85-26.9-66.07,26.9-52.62-61.25-15.2v-15.57s-125.53-46.25-294.22-46.25-289.63,46.25-289.63,46.25v15.75l-61.25,15.2,26.9,52.62-26.9,66.07,61.25-5.85s12.4-5.33,33.19-12.98l-16.16,5.42-17.03,7.56h42.65l-9.46-12.98c53.1-19.55,160.89-54.29,256.44-54.29s206.87,35.01,261,54.45l-5.34,12.82,38.56-.18"/><polygon class="cls-3" points="174.5 382.5 153.91 389.69 153.91 394.42 173.89 386.53 174.5 382.5"/><polygon class="cls-3" points="174.5 395.29 153.91 402.48 153.91 407.21 173.89 399.32 174.5 395.29"/><polygon class="cls-3" points="174.5 408.08 153.91 415.27 153.91 420 173.89 412.11 174.5 408.08"/><polygon class="cls-3" points="174.5 420.87 153.91 428.06 153.91 432.79 173.89 424.9 174.5 420.87"/><polygon class="cls-3" points="174.5 433.66 153.91 440.85 153.91 445.58 173.89 437.69 174.5 433.66"/><polygon class="cls-3" points="174.5 446.45 153.91 453.64 153.91 458.37 173.89 450.48 174.5 446.45"/><polygon class="cls-3" points="174.5 459.24 153.91 466.43 153.91 471.16 173.89 463.27 174.5 459.24"/><polygon class="cls-3" points="684.82 380.86 705.41 388.04 705.41 392.77 685.43 384.88 684.82 380.86"/><polygon class="cls-3" points="684.82 393.65 705.41 400.83 705.41 405.56 685.43 397.67 684.82 393.65"/><polygon class="cls-3" points="684.82 406.44 705.41 413.62 705.41 418.35 685.43 410.46 684.82 406.44"/><polygon class="cls-3" points="684.82 419.23 705.41 426.41 705.41 431.14 685.43 423.25 684.82 419.23"/><polygon class="cls-3" points="684.82 432.02 705.41 439.2 705.41 443.93 685.43 436.04 684.82 432.02"/><polygon class="cls-3" points="684.82 444.81 705.41 452 705.41 456.72 685.43 448.83 684.82 444.81"/><polygon class="cls-3" points="684.82 457.6 705.41 464.79 705.41 469.51 685.43 461.62 684.82 457.6"/><polygon class="cls-3" points="137.11 388.31 89.76 402.04 91.7 406.44 137.11 392.92 137.11 388.31"/><polygon class="cls-3" points="137.11 403.21 94.71 413.95 96.38 417.94 137.11 407.28 137.11 403.21"/><polygon class="cls-3" points="136.37 416.44 100.25 425.49 101.91 429.19 136.44 420.3 136.37 416.44"/><polygon class="cls-3" points="136.5 429.87 136.5 433.4 106.9 440.1 105.54 436.95 136.5 429.87"/><polygon class="cls-3" points="136.5 442.03 110.51 448.03 110.51 450.49 136.5 447.56 136.5 442.03"/><polygon class="cls-3" points="136.5 456.93 136.5 460.22 107.27 460.22 108.25 457.07 136.5 456.93"/><polygon class="cls-3" points="136.5 466.94 136.5 470.22 103.42 470.22 104.71 467.12 136.5 466.94"/><polygon class="cls-3" points="136.94 477.44 101.03 477.37 99.96 480.42 136.94 480.42 136.94 477.44"/><polygon class="cls-3" points="136.94 486.96 136.94 490.52 96.24 490.52 97.55 487.09 136.94 486.96"/><polygon class="cls-3" points="136.94 496.46 94.36 499.33 92.32 504.09 136.94 499.96 136.94 496.46"/><polygon class="cls-3" points="723.54 387.61 770.89 401.34 768.95 405.73 723.54 392.22 723.54 387.61"/><polygon class="cls-3" points="723.54 402.5 765.94 413.24 764.27 417.23 723.54 406.57 723.54 402.5"/><polygon class="cls-3" points="724.28 415.74 760.4 424.78 758.74 428.48 724.21 419.6 724.28 415.74"/><polygon class="cls-3" points="724.15 429.16 724.15 432.69 753.74 439.39 755.11 436.24 724.15 429.16"/><polygon class="cls-3" points="724.15 441.32 750.14 447.32 750.14 449.79 724.15 446.85 724.15 441.32"/><polygon class="cls-3" points="724.15 456.22 724.15 459.51 753.38 459.51 752.39 456.36 724.15 456.22"/><polygon class="cls-3" points="724.15 466.23 724.15 469.51 757.23 469.51 755.94 466.41 724.15 466.23"/><polygon class="cls-3" points="723.71 476.74 759.62 476.66 760.69 479.72 723.71 479.72 723.71 476.74"/><polygon class="cls-3" points="723.71 486.26 723.71 489.81 764.41 489.81 763.1 486.39 723.71 486.26"/><polygon class="cls-3" points="723.71 495.75 766.29 498.62 768.33 503.38 723.71 499.26 723.71 495.75"/><path class="cls-3" d="M176.67,403.84l3.62-11.7,19.83-5.22.82,3.11-1.61,6.12.19.72,9.34-2.46-.19-.72-4.36-4.55-.82-3.11,19.77-5.21,8.91,8.4,3.16,11.99-55.51,14.62-3.16-11.99ZM234.8,403.55l6.75,25.65-53.52,14.09-6.75-25.65,53.52-14.09ZM203.14,427.03l16.82-4.43-.8-3.05-16.82,4.43.8,3.05Z"/><path class="cls-3" d="M296.61,380.31l6.73,37.76-19.33,3.44-.62-3.45.85-1.26-3.31.59.65,3.67-13.01,2.32-.65-3.67-5.21.93-1.26-7.07,5.21-.93-.26-1.47-5.15.92-1.29-7.24,1.47-.26-2.36-3.66-.19-1.07,10.12-1.8,2.43,4.76.31-.05.64-5.3,10.12-1.8.19,1.07-.95,4.25,1.47-.26,1.29,7.24-5.09.91.26,1.47,5.15-.92.93,5.2,1.31-1.87-3.29-18.49-26.45,4.71,4.71,26.46-15.03,2.68-6.73-37.76,17.98-3.2-.28-1.58-17.42,3.1-1.94-10.91,17.42-3.1-.4-2.26,20.37-3.63.4,2.26,17.79-3.17,1.94,10.91-17.79,3.17.28,1.58,17.98-3.2Z"/><path class="cls-3" d="M343.15,376.77l.26,2.51,17.11-1.79,2.7,25.87-4.5,7.28-10.78,1.13-1.99-19.01-2.66.28,2.18,20.84-18.66,1.95-2.18-20.84-2.67.28,1.99,19.01-15.19,1.59-3.41-32.6,16.3-1.71-.26-2.51-18.1,1.89-1.45-13.88,18.1-1.89-.27-2.57,21.76-2.28.27,2.57,18.66-1.95,1.45,13.87-18.66,1.95Z"/><path class="cls-3" d="M383.05,359.75l3.61-.13.47,12.91-18.94.68-.47-12.91,3.49-.13-.08-2.29,11.83-.43.08,2.29ZM368.5,374.52l18.62-.67.3,8.32-18.62.67-.3-8.32ZM368.84,384.16l18.62-.67.29,7.97-18.62.67-.29-7.97ZM369.06,393.57l18.75-.67.64,17.61-18.75.68-.64-17.61ZM377.7,403.25l2.49-.09-.08-2.12-2.49.09.08,2.12ZM426.89,404.47l.17,4.76-10.84.39-1.62-1.78-1.81,1.79-6.23.22-.2-5.62,2.65-2.57-1.37-1.56-.17-4.7-2.74.1.04,1.21,1.56-.06.21,5.79-1.54.46.27,7.34-15.2.55-.15-4.19,4.48-1.88-.02-.46-4.92.18-.26-7.17,4.92-.18-.04-1.2-4.92.18-.26-7.11,4.92-.18-.04-1.15-4.61.17-.19-5.11,16.88-.61.15,4.07-1.6.63.06,1.61,2.74-.1-.27-7.34-18.25.66-.23-6.43,10.28-.37-.05-1.32-9.97.36-.19-5.16,9.96-.36-.04-1.26-10.15.37-.26-7.17,3.99-.14-1.08-2.26-.02-.63,12.89-.46,1.35,2.88,1.37-.05.95-2.96,13.46-.48.02.63-.85,2.33,4.42-.16.26,7.17-11.4.41.04,1.26,11.03-.4.19,5.16-11.02.4.05,1.32,11.4-.41.23,6.43-6.91.25.24,6.6,7.41-.27.25,7-7.41.27.04,1.03.91,1.06,1.27-1.02,5.04-.18.2,5.51-1.63,1.44,2.15,2.51ZM419.62,386.12l-.16-4.53,5.92-.21.16,4.53-5.92.21Z"/><path class="cls-3" d="M490.82,377.08l-1.74-.05-.42,13.72-55.82-1.7.42-13.72-1.62-.05.4-13.14,17.71-6.24,24.11.73,17.37,7.3-.4,13.14ZM433.86,390.34l53.77,1.63-.57,18.88-53.77-1.63.57-18.88ZM479.33,373.45l-5.72-2.41-.03,1.03-24.61-.75.03-.98-5.74,2.01,36.07,1.1ZM446.85,383.55l2.49.08-1.21-1.3.09-2.98,6.42.19-.13,4.25,1.25.04.16-5.17-8.91-.27-.16,5.17ZM470.35,404.37l.04-1.21-19.81-.6-.04,1.21,19.81.6ZM450.76,396.6l-.04,1.26,19.81.6.04-1.26-19.81-.6ZM459.6,366.13l-3.46,1.1,10.65.32-3.39-1.31-3.8-.12ZM474.98,379.24l-8.85-.27-.16,5.17,1.18.04.13-4.25,6.48.2-.09,2.98-1.35,1.22,2.49.08.16-5.17Z"/><path class="cls-3" d="M510.95,400.23l-1.25,12.57-12.71-1.26.84-8.46-1.72,2.83-2.54-.25,2.19-21.94,4.39-6.31-3.29-.33,1.42-14.23,3.53.35.45-4.46,12.71,1.26-.44,4.46,2.17.22-1.42,14.23-2.17-.22-.21,2.11,1.73,2.71-1.68,16.91-1.98-.2ZM551.31,411.98l-.52,5.2-10.54-1.05-1.79-2.83-2.22,2.15-8.68-.86.56-5.66,3.14-3.26-3.19-5.68.21-2.17-1.67-.17-.27,2.74,1.19,2.48-1.06,10.68-2.54-.25-1.35-2.15-1.72,2.83-9.74-.97.7-6.97,2.56-4.3,1.66-16.62,13.46,1.34,2.5-25.08,12.03,1.2-.57,5.77,4.2-4.49,7.44.74-.41,4.11-2.94,3.11-.03.29,2.61.26-.51,5.08-2.94,3.11-.03.29,2.6.26-.64,6.4-1.3-.13.19,1.29,1.43.14-1.04,10.4-10.67-1.06,1.38,2.5,1.1-.99,8.06.8-.56,5.6-2.29,2.25,2.2,3.68ZM528.37,385.06l-12.28-1.22.72-7.2,2.52-2.69.02-.17-2.23-.22.73-7.31,4.5-4.92,8.31.83-.41,4.11-2.94,3.11-.03.29,2.6.26-.51,5.08-2.94,3.11-.03.29,2.61.26-.64,6.4ZM541.52,387.64l2.17.22.12-1.26-2.17-.22-.12,1.26ZM542.67,376.1l-.26,2.57,2.1-2.21.02-.17-1.86-.18Z"/><path class="cls-3" d="M614.72,413.5l-1.41-.25-2.48,14.2-26.7-4.67,3.27-18.72,3.19.56-2.6-3.6-1.96-.34-3.66,2.51,3.44.6-3.27,18.72-26.64-4.66,2.48-14.2-1.53-.27,1.21-6.9,8.12-1.96-6.94-1.21,1.48-8.48,18.6,3.25.26-1.47-17.74-3.1,3.1-17.71,26.7,4.67-2.82,16.12,1.6.28,2.82-16.12,26.7,4.67-3.1,17.71-3.87-.68.42,1.59,3.74.66-1.48,8.48-6.81-1.19,7.1,4.62-1.21,6.9ZM572.99,409.75l-3.31-.58-.41,2.32,3.31.58.41-2.32ZM578.83,376.38l-3.31-.58-.43,2.43,3.31.58.43-2.43ZM601.23,414.69l-3.25-.57-.41,2.32,3.25.57.41-2.32ZM598.4,391.41l3.07.54.26-1.47-3.07-.54-.26,1.47ZM603.38,383.18l3.25.57.43-2.43-3.25-.57-.43,2.43Z"/><path class="cls-3" d="M618.72,416.61l22.3-16.62,4.89-18.54,21.45,5.66-4.89,18.54,11.92,25.65-3.02,11.44-16.15-4.26-6.05-20.54-2.05-.54-15.1,14.96-16.33-4.31,3.02-11.44Z"/><path class="cls-3" d="M712.25,491.08l-.39-.15v-116.39l-2.14-.9c-1.08-.46-27.06-11.35-74.41-22.39-43.61-10.17-114.21-22.3-202.87-22.3-169.69,0-282.22,44.22-283.34,44.67l-2.2.88v116.76l.5-.18,22.91,14.4-15.19-17.16c23.53-8.18,161.23-54.25,277.33-54.25s250.8,46.8,271.83,54.43l-9.78,16.22,17.75-13.63ZM153.91,481.33v-102.04c16.43-6.09,123.27-43.33,278.54-43.33s256.66,37.13,272.42,43.29v102.03c-26.33-9.44-157.29-54.2-272.42-54.2s-251.72,45-278.54,54.26Z"/></g><g id="_小亭子"><circle class="cls-2" cx="429.39" cy="242.52" r="65"/><circle class="cls-3" cx="429.39" cy="242.52" r="58.79"/><path class="cls-2" d="M462.69,278.45h-65.93c-.84,0-1.47.59-1.47,1.39v5.44c0,.79.63,1.39,1.47,1.39h65.83c.84,0,1.47-.59,1.47-1.39v-5.44c.1-.79-.63-1.39-1.36-1.39Z"/><path class="cls-2" d="M462.67,236.39h-7.8c-2.28-11.08-11.68-19.6-23.16-20.59v-9.4h11.88c.89,0,1.39-.99.89-1.78l-3.86-5.15,3.86-5.15c.49-.69,0-1.78-.89-1.78h-14.85c-.89,0-1.68.79-1.68,1.68v21.48c-11.48.99-20.88,9.5-23.16,20.59h-7.8c-.79,0-1.39.59-1.39,1.39v5.44c0,.79.59,1.39,1.39,1.39h66.57c.79,0,1.39-.59,1.39-1.39v-5.44c0-.59-.69-1.29-1.39-1.29Z"/><rect class="cls-2" x="455.85" y="248.27" width="8.21" height="26.62"/><rect class="cls-2" x="435.66" y="248.27" width="8.21" height="26.62"/><rect class="cls-2" x="415.48" y="248.27" width="8.21" height="26.62"/><rect class="cls-2" x="395.29" y="248.27" width="8.21" height="26.62"/></g></svg>