<?xml version="1.0" encoding="UTF-8"?><svg xmlns="http://www.w3.org/2000/svg" viewBox="0 0 863.87 856.38"><defs><style>.cls-1{fill:#e0cea1;}.cls-2{fill:#e2d0a3;}.cls-3{fill:#00252c;}.cls-4{fill:#4e7878;}.cls-5{fill:#a7403b;}</style></defs><g id="_圖層_12"><rect class="cls-3" width="866.49" height="859.96"/></g><g id="_小亭子"><circle class="cls-3" cx="429.76" cy="426.83" r="270.64"/><rect class="cls-2" x="192.26" y="337.25" width="10" height="40.94" transform="translate(-204.28 282.63) rotate(-50.53)"/><rect class="cls-2" x="215.49" y="297.32" width="10" height="78.8" transform="translate(-178.05 280.5) rotate(-48.75)"/><rect class="cls-2" x="243.57" y="264.62" width="10" height="109.84" transform="translate(-155.61 296.41) rotate(-48.85)"/><polygon class="cls-2" points="332.79 316.91 259.07 221.07 266.75 215.27 342.19 312.95 332.79 316.91"/><polygon class="cls-2" points="364.26 305.83 303.23 188.61 312.1 183.99 374.34 303.53 364.26 305.83"/><polygon class="cls-2" points="394.7 295.37 353.68 170.94 362.57 168.22 403.59 292.64 394.7 295.37"/><rect class="cls-2" x="637.15" y="349.37" width="50.35" height="10" transform="translate(-58.38 566.11) rotate(-44.52)"/><rect class="cls-2" x="599.42" y="329.37" width="83.93" height="10" transform="translate(-45.76 560.21) rotate(-45.73)"/><rect class="cls-2" x="557.1" y="311.91" width="115.21" height="10" transform="translate(-43.65 528.71) rotate(-45.11)"/><polygon class="cls-2" points="526.39 316.95 514.52 311.27 588.8 211 598.85 217.93 526.39 316.95"/><polygon class="cls-2" points="498.93 305.83 486.19 302.94 542.47 184.81 551.51 189.09 498.93 305.83"/><polygon class="cls-2" points="461.63 295.37 452.62 292.4 495.65 162.93 504.65 165.9 461.63 295.37"/><rect class="cls-2" x="423.86" y="148.78" width="10" height="158.75"/><path class="cls-3" d="M182.98,485.06l51.72-12.48,196.86,111.59,190.26-111.59,53.98,20.44s-28.63,102.83-85.3,143.15c-56.67,40.31-93.82,57.86-158.21,59.6-64.38,1.74-130.4-32.14-157.28-55.51-26.87-23.37-86.88-88.72-92.03-155.19Z"/><polygon class="cls-4" points="387.94 443.93 428.41 437.97 469.78 444.87 469.78 457.15 387.94 457.15 387.94 443.93"/><polygon class="cls-4" points="363.58 447.13 363.58 457.15 293.21 465.2 287.05 461.48 326.85 450.77 363.58 447.13"/><polygon class="cls-4" points="494.87 447.13 494.87 457.15 565.24 465.2 571.4 461.48 531.6 450.77 494.87 447.13"/><polygon class="cls-4" points="414.27 483.95 443.72 483.95 470.35 561.38 431.13 583.8 387.51 559.07 414.27 483.95"/><polygon class="cls-4" points="393.12 485.88 368.61 486.31 335.17 529.6 366.41 547.09 393.12 485.88"/><polygon class="cls-4" points="465.16 485.31 493.7 486.31 524.89 528.81 493.27 548.45 465.16 485.31"/><polygon class="cls-4" points="345.09 487.31 310.7 515.5 285.19 501.21 324.89 486.83 345.09 487.31"/><polygon class="cls-4" points="518.3 487.83 547.33 516.23 572.68 501.43 539.61 487.31 518.3 487.83"/><path class="cls-3" d="M568.65,641.92h0s-.01.02,0,0Z"/><path class="cls-3" d="M641.82,516.91c0-10.94-8.9-19.83-19.83-19.83s-19.83,8.9-19.83,19.83c0,5.51,2.23,10.59,6.01,14.24-.03.47-.06.92-.1,1.36-.11,1.39-.22,2.96-.33,4.67,0,.07,0,.14-.01.21-3.49-4.2-8.75-6.88-14.64-6.88-3.2,0-6.21.8-8.86,2.2-2.93-7.29-10.07-12.46-18.4-12.46-10.94,0-19.83,8.9-19.83,19.83,0,5.92,2.64,11.39,6.97,15.09-.03,6.14-.57,15.34-.92,20.8-3.48-4.49-8.91-7.39-15.03-7.39-4.01,0-7.73,1.25-10.8,3.37-2.58-7.96-10.06-13.74-18.87-13.74-10.94,0-19.83,8.9-19.83,19.83,0,6.54,3.22,12.49,8.32,16.14.46,2.63.8,4.71,1.02,6.18-3.24-2.57-7.33-4.11-11.79-4.11-2.92,0-5.67.68-8.14,1.85-2.74-7.68-10.06-13.19-18.67-13.19-10.94,0-19.83,8.9-19.83,19.83,0,3.82,1.09,7.44,3.02,10.53-2.79-1.61-6.03-2.55-9.48-2.55-2.79,0-5.44.62-7.83,1.7,2.34-3.27,3.69-7.26,3.69-11.55,0-10.94-8.9-19.83-19.83-19.83s-19.08,8.19-19.77,18.51c-2.76-1.57-5.95-2.47-9.36-2.47-3.59,0-6.93,1.01-9.79,2.74l1.38-7.25c5.41-3.58,8.82-9.67,8.82-16.52,0-10.94-8.9-19.83-19.83-19.83-9.61,0-17.64,6.87-19.45,15.95-3.44-3.45-8.2-5.58-13.46-5.58-5.53,0-10.5,2.38-13.98,6.15-.08-.39-.15-.76-.2-1.07-.24-1.75-.27-9.52-.15-15.67v-2.37c4.63-3.67,7.49-9.31,7.49-15.53,0-10.94-8.9-19.83-19.83-19.83-9.7,0-17.78,7-19.49,16.22-3.24-2.55-7.31-4.08-11.74-4.08-4.73,0-9.04,1.74-12.37,4.59-.11-1.93-.15-4.13-.12-6.5,3.55-3.63,5.61-8.55,5.61-13.83,0-10.94-8.9-19.83-19.83-19.83s-19.83,8.9-19.83,19.83c0,4.6,1.58,8.97,4.4,12.46v2.47s.16,4.29.32,11.18c.19,8.22,1.53,16.91,3.58,23.26,1.06,3.29,2.84,6.53,4.56,9.65,1.06,1.92,2.64,4.81,2.97,5.98.87,8.86,13.36,26.15,19.72,32.35,6.9,6.73,20.63,17.99,21.21,18.47l16.34,13.38c.48.79.95.37,1.41,1.05l5.6,2.74c1.27.62,31.25,15.3,35.26,17.16l11.28,5.24,53.32,14.6,58.25.64,52.68-12.07.45-.1,3.38-1.74,51.87-31.44s.01-.02,0,0l14.64-7.66c.9-.47,22.14-11.75,33.49-32.63,3.14-5.78,5.54-9.89,7.47-13.2,4.27-7.31,6.62-11.34,8.65-19.47,3.16-12.62,3.99-25.39,4.17-29.01.12-2.39.17-5.86.15-10.35,2.94-3.51,4.59-7.96,4.59-12.7ZM424.19,667.57v-.3s.09.03.12.04l.9.27h-1.02Z"/><path class="cls-1" d="M268.6,536.14c-8.42,0-15.25,6.83-15.25,15.25s6.83,15.25,15.25,15.25,15.25-6.83,15.25-15.25-6.83-15.25-15.25-15.25ZM272.18,550.14c-.53-.44-.79-2.32-4.12-4.22l-3.33-1.9s.26-1.66,3.33-2.45c3.06-.79,5.52,1.07,6.65,1.98,1.14.91,2.98,5.38,2.98,6.25s-4.99.79-5.52.35Z"/><path class="cls-1" d="M326.5,573.27c-8.42,0-15.25,6.83-15.25,15.25s6.83,15.25,15.25,15.25,15.25-6.83,15.25-15.25-6.83-15.25-15.25-15.25ZM330.08,587.26c-.53-.44-.79-2.32-4.12-4.22l-3.33-1.9s.26-1.66,3.33-2.45c3.06-.79,5.52,1.07,6.65,1.98,1.14.91,2.98,5.38,2.98,6.25s-4.99.79-5.52.35Z"/><path class="cls-1" d="M378.84,603.1c-8.42,0-15.25,6.83-15.25,15.25s6.83,15.25,15.25,15.25,15.25-6.83,15.25-15.25-6.83-15.25-15.25-15.25ZM382.42,617.09c-.53-.44-.79-2.32-4.12-4.22l-3.33-1.9s.26-1.66,3.33-2.45c3.06-.79,5.52,1.07,6.65,1.98,1.14.91,2.98,5.38,2.98,6.25s-4.99.79-5.52.35Z"/><path class="cls-1" d="M431.94,618.35c-8.42,0-15.25,6.83-15.25,15.25s6.83,15.25,15.25,15.25,15.25-6.83,15.25-15.25-6.83-15.25-15.25-15.25ZM435.52,632.35c-.53-.44-.79-2.32-4.12-4.22l-3.33-1.9s.26-1.66,3.33-2.45c3.06-.79,5.52,1.07,6.65,1.98,1.14.91,2.98,5.38,2.98,6.25s-4.99.79-5.52.35Z"/><path class="cls-1" d="M485.04,603.78c-8.42,0-15.25,6.83-15.25,15.25s6.83,15.25,15.25,15.25,15.25-6.83,15.25-15.25-6.83-15.25-15.25-15.25ZM488.62,617.77c-.53-.44-.79-2.32-4.12-4.22l-3.33-1.9s.26-1.66,3.33-2.45c3.06-.79,5.52,1.07,6.65,1.98,1.14.91,2.98,5.38,2.98,6.25s-4.99.79-5.52.35Z"/><path class="cls-1" d="M536.99,573.27c-8.42,0-15.25,6.83-15.25,15.25s6.83,15.25,15.25,15.25,15.25-6.83,15.25-15.25-6.83-15.25-15.25-15.25ZM540.58,587.26c-.53-.44-.79-2.32-4.12-4.22l-3.33-1.9s.26-1.66,3.33-2.45c3.06-.79,5.52,1.07,6.65,1.98,1.14.91,2.98,5.38,2.98,6.25s-4.99.79-5.52.35Z"/><path class="cls-1" d="M593.07,535.21c-8.42,0-15.25,6.83-15.25,15.25s6.83,15.25,15.25,15.25,15.25-6.83,15.25-15.25-6.83-15.25-15.25-15.25ZM596.65,549.2c-.53-.44-.79-2.32-4.12-4.22l-3.33-1.9s.26-1.66,3.33-2.45c3.06-.79,5.52,1.07,6.65,1.98s2.98,5.38,2.98,6.25-4.99.79-5.52.35Z"/><path class="cls-2" d="M630.72,516.75c0-5.43-4.4-9.83-9.83-9.83s-9.83,4.4-9.83,9.83c0,4.16,2.59,7.71,6.24,9.15-.06,2.27-.17,4.82-.37,7.25-.54,6.69-.97,18.02-2.8,25.35-1.83,7.34-4.53,10.71-8.09,14.36-3.56,3.65-16.83,3.87-16.83,3.87l-7.8.46s-4.67-5.51-7.68-13.09c-1.68-4.24-2.65-11.08-3.17-16.29,2.42-1.79,4-4.65,4-7.9,0-5.43-4.4-9.83-9.83-9.83s-9.83,4.4-9.83,9.83c0,4.31,2.78,7.97,6.64,9.29.1.67.21,1.36.32,2.07,0,.97,0,2.04,0,3.26,0,9.57-1.27,26.53-1.27,26.53,0,0-1.27,6.08-2.91,11.26-1.65,5.19-3.16,11.01-6.33,14.56-3.16,3.54-12.28,5.95-12.28,5.95,0,0-8.48,1.8-12.4,1.09-3.92-.71-10.12-9.82-12.15-16.02-2.03-6.2-2.28-8.86-2.28-8.86l-.25-3.2c2.47-1.79,4.08-4.69,4.08-7.97,0-5.43-4.4-9.83-9.83-9.83s-9.83,4.4-9.83,9.83c0,4.55,3.1,8.37,7.3,9.49.73,4.11,1.56,8.85,1.99,11.71.87,5.84.99,14.7,0,21.41-.99,6.71-5.54,17.39-8.84,20.01-3.29,2.62-13.64,3.89-16.3,2.72-2.65-1.17-8.98-4.39-11.94-11.25,0,0-2.25-4.05-4.51-11.49-.82-2.69-1.18-5.45-1.31-7.88,2.53-1.78,4.19-4.71,4.19-8.04,0-5.43-4.4-9.83-9.83-9.83s-9.83,4.4-9.83,9.83c0,4.08,2.49,7.58,6.02,9.07.35,1.67.97,4.95,1.43,9.22,0,0,0,.01,0,.02.03.49.09,1.01.16,1.53.22,2.33.38,4.89.44,7.62.21,11.09-13.39,25.54-13.39,25.54h-15.9s-7.11-2.11-12.34-10.69c-5.23-8.58-5.23-15.27-5.23-15.27v-16.84c.21-.89.4-1.72.58-2.49,4.37-1,7.63-4.91,7.63-9.58,0-5.43-4.4-9.83-9.83-9.83s-9.83,4.4-9.83,9.83c0,3.45,1.78,6.48,4.47,8.23,0,0,0,.02,0,.02-.02.14-.14.91-.31,2.15-.47,2.85-1.29,6.45-2.73,10.33-3.35,8.99-7.53,15.06-12.55,18.62-5.02,3.56-16.73-2.3-17.78-2.72-1.05-.42-9.2-9.62-12.34-22.17l1.82-14.64,2.86-15.07c4.4-.98,7.68-4.9,7.68-9.59,0-5.43-4.4-9.83-9.83-9.83s-9.83,4.4-9.83,9.83c0,2.64,1.04,5.03,2.73,6.79-.18,1.23-.47,3.35-.8,5.98-.38,1.69-.91,3.64-1.64,5.83-2.72,8.06-9.93,15.94-9.93,15.94l-1.56,1.46-15.56-.85s-7.5-3.11-12.16-12.02c-4.67-8.91-7.64-22.63-8.2-25.88-.57-3.25-.28-17.51-.28-17.51v-8.16c4.3-1.05,7.49-4.91,7.49-9.54,0-5.43-4.4-9.83-9.83-9.83s-9.83,4.4-9.83,9.83c0,3.16,1.5,5.97,3.82,7.77-.64,4.61-1.53,10.6-2.07,13.3-.81,4.07-5.69,15.45-10.73,15.45s-8.46.65-15.65-1.14c-7.2-1.79-9.06-5.04-11.67-9.27-2.6-4.23-6.18-16.75-7.16-25.21-.6-5.23-.46-11.51-.26-15.54,3.23-1.61,5.45-4.94,5.45-8.8,0-5.43-4.4-9.83-9.83-9.83s-9.83,4.4-9.83,9.83c0,3.42,1.75,6.43,4.4,8.19v6.39s.15,4.31.31,11.3c.16,6.99,1.31,14.88,3.1,20.41,1.79,5.53,7.64,13.17,7.97,17.73s6.38,22.73,13.05,29.23c6.67,6.51,24.26,18.39,24.26,18.39v-35.1s6.58-9.57,8.54-13.52c.11,2.28.25,4.48.45,6.53,1.53,15.82,10.02,30.24,12.42,32.36v25.83s31.11,13.28,35.07,15.12v-29.78s4.86-2.48,8.08-10.66c.04.55.09,1.09.15,1.58,1.37,10.7,3.96,22.62,8.84,28.27v16.52l33.32,8.37v-19.03s5.07-4.71,9.81-15.3c0,0,0,0,0,0,2.11,10.49,10.06,24.71,12.36,27.22v10.88h36.07v-8.37s5.22-9.35,8.84-17.43c1.6-3.59,2.54-6.94,3.08-9.56,2.38,4.49,5.09,8.32,7.52,10.16v22.47l37.07-8.49v-16.45s5.65-5.84,7.24-18.04c.49-3.78.81-7.96.94-12.12.58,1.05,1.18,1.99,1.8,2.74,7.21,8.86,6.2,9.49,6.2,9.49v26.96l35.57-18.29v-20.44s6.46-9.37,9.49-22.4c1.33-5.7,2.22-11.84,2.81-16.94,3.49,6.61,7.83,14.03,7.83,14.03v30.51s22.37-8.18,32.4-26.63c10.03-18.45,9.67-22.31,12.15-32.24,2.48-9.93,3.56-20.61,3.88-27.08.18-3.63.16-9.64.1-14.21,2.78-1.74,4.63-4.82,4.63-8.33Z"/><path class="cls-2" d="M275.23,661.91l-2.73-2.05-6.51,8.67-5.29-3.97,6.51-8.67-2.73-2.05,3.47-4.62,10.76,8.08-3.47,4.62Z"/><path class="cls-2" d="M288.54,667.92l-7.42,11.11-3.19-2.13-.13-2.04-2.2.48-3.59-2.4-.65-3.61,4.49-6.72,3.71-.7,8.98,6ZM279.17,671.5l2.11-3.16-1.6-1.07-2.11,3.16,1.6,1.07Z"/><path class="cls-2" d="M282.97,680.12l6.48-10.72,5.44,3.29-6.48,10.72-5.44-3.29ZM289.96,668.54l2.02-3.34,5.44,3.29-2.02,3.34-5.44-3.29Z"/><path class="cls-2" d="M296.72,672.87l9.22,5.02,1.09,3.6-5.13,9.41-5.25-2.86,3.79-6.96-1.12-.61-3.79,6.96-5.2-2.83,6.39-11.73Z"/><path class="cls-2" d="M321.83,685.59l-5.69,12.09-3.47-1.63-.43-1.99-2.1.8-3.91-1.84-1.17-3.47,3.44-7.31,3.57-1.24,9.77,4.6ZM313.1,690.53l1.62-3.44-1.74-.82-1.62,3.44,1.74.82Z"/><path class="cls-2" d="M323.21,686.2l9.74,3.91,1.5,3.45-3.99,9.95-5.55-2.23,2.95-7.35-1.19-.48-2.95,7.35-5.49-2.2,4.97-12.39Z"/><path class="cls-2" d="M355.03,705.07l-1.76,5.78-10.91-3.31-1.84-3.44,3.24-10.66,3.45-1.88,10.72,3.26-1.79,5.87-6.87-2.09-1.31,4.33,7.06,2.14Z"/><path class="cls-2" d="M355.26,711.35l3.09-12.13,6.16,1.57-3.09,12.13-6.16-1.57ZM358.6,698.25l.96-3.78,6.16,1.57-.96,3.78-6.16-1.57Z"/><path class="cls-2" d="M372.24,707.13l-.59,2.72,2.6.56-1.11,5.12-6.18-1.34-2.06-3.15,1.14-5.26-1.35-.29,1.09-5.02,1.35.29.64-2.93,6.2,1.34-.64,2.93,2.6.56-1.09,5.02-2.6-.56Z"/><path class="cls-2" d="M389.9,704.88l-2.39,14.26-3.04,2.17-9.33-1.57.74-4.4,5.94,1,.18-1.07-4.64-.78-1.56-2.33,1.58-9.39,5.45.91-1.06,6.29,1.4.23,1.06-6.29,5.68.95Z"/><path class="cls-2" d="M412.01,714.53l-.54,6.02-11.36-1.02-2.5-3,1-11.1,3-2.54,11.16,1-.55,6.12-7.15-.64-.4,4.5,7.35.66Z"/><path class="cls-2" d="M413.66,718.16l.31-8.21,2.68-2.52,8.16.31,2.48,2.72-.31,8.22-2.68,2.54-8.16-.31-2.48-2.74ZM421.52,716.3l.15-3.88-2.18-.08-.15,3.88,2.18.08Z"/><path class="cls-2" d="M442.09,707.78l.21,13.36-3.94.06-1.21-1.58-1.51,1.62-4.04.07-2.56-2.6-.17-10.72,5.96-.1.13,8,1.28-.02-.13-8,5.98-.1Z"/><path class="cls-2" d="M443.62,707.72l10.49-.58,2.82,2.49.6,10.71-5.97.33-.44-7.91-1.28.07.44,7.91-5.91.33-.74-13.34Z"/><path class="cls-2" d="M462.35,719.87l-2.94-2.35-.84-8.04,2.39-2.9,9.19-.96.55,5.29-5.95.62.27,2.59,5.95-.62.56,5.41-9.19.96Z"/><path class="cls-2" d="M471.7,705.22l-.55-3.86,6.3-.9.55,3.86-6.3.9ZM473.61,718.6l-1.77-12.4,6.3-.9,1.77,12.4-6.3.9Z"/><path class="cls-2" d="M488.1,716.28l-6.07,1.05-2.96-17.13,6.07-1.05,2.96,17.13Z"/><path class="cls-2" d="M499.43,696.88l2.57,9.93,1.24-.32-2.54-9.82,4.96-1.28,2.54,9.82,1.24-.32-2.57-9.93,5.85-1.51,3.02,11.68-.96,4.94-6.18,1.6-1.87-2.43-.25.06-.46,3.03-6.16,1.59-3.23-3.85-3.02-11.68,5.81-1.5Z"/><path class="cls-2" d="M527.79,691.82l4.26,12.66-3.64,1.22-1.69-1.14-.96,2.03-4.09,1.38-3.25-1.69-2.58-7.66,1.72-3.36,10.23-3.44ZM524.91,701.42l-1.21-3.6-1.82.61,1.21,3.6,1.82-.61Z"/><path class="cls-2" d="M537.95,693.53l1.02,2.58,2.47-.98,1.93,4.87-5.87,2.33-3.46-1.47-1.98-5-1.28.51-1.89-4.78,1.28-.51-1.11-2.79,5.89-2.34,1.11,2.79,2.47-.98,1.89,4.78-2.47.98Z"/><path class="cls-2" d="M547.76,698.09l-3.53-1.29-3.35-7.35,1.34-3.51,8.4-3.83,2.21,4.84-5.44,2.48,1.08,2.36,5.44-2.48,2.26,4.95-8.4,3.83Z"/><path class="cls-2" d="M564.51,677.83l5,9.49-5.12,2.69-3.69-7.01-1.08.57,3.69,7.01-5.06,2.67-8.12-15.42,5.28-2.78,1.89,3.59,3.61-1.9,3.6,1.09Z"/><path class="cls-2" d="M580.37,672.11l2.69,4.41-.68,2.99-10.74,6.56-8.7-14.26,10.69-6.52,2.89.98,2.67,4.37-.55,1.44,1.74.04ZM570.23,672.89l.97,1.59,2.41-1.47-.97-1.59-2.41,1.47ZM576.58,677.87l-.91-1.49-2.41,1.47.91,1.49,2.41-1.47Z"/><path class="cls-2" d="M584.7,675.08l-4.72-6.73.61-3.63,6.68-4.69,3.62.66,4.72,6.73-.59,3.64-6.68,4.69-3.63-.68ZM589.83,668.84l-2.23-3.18-1.78,1.25,2.23,3.18,1.79-1.25Z"/><path class="cls-2" d="M599.61,657.35l1.71,2.19,2.09-1.64,3.23,4.13-4.98,3.9-3.74-.43-3.32-4.24-1.09.85-3.17-4.05,1.09-.85-1.85-2.36,4.99-3.91,1.85,2.36,2.09-1.64,3.17,4.05-2.09,1.64Z"/><path class="cls-2" d="M170.77,184.33c-7.33,7.12-11.12,16.51-11.4,25.97-.19,6.77,1.36,13.57,4.76,19.67l52.44-50.94c-5.4-3.22-11.39-4.99-17.5-5.32-10.14-.53-20.46,2.98-28.31,10.61h0Z"/><path class="cls-2" d="M228.92,185.69c-.04-.33-.16-.64-.4-.89l-3.78-3.89c-.23-.24-.53-.35-.84-.41-.09-.02-.18-.04-.29-.04-.37,0-.73.13-1.02.41l-56.79,55.17c-.23.22-.32.49-.4.78-.08.36-.02.72.15,1.04.07.12.13.25.21.33l3.78,3.89c.14.15.33.26.51.34.02.02.07,0,.09.02.53.17,1.13.09,1.56-.33l56.79-55.17c.36-.35.47-.82.43-1.28v.02Z"/><path class="cls-2" d="M230.18,193.04l-52.42,50.92c5.62,3.37,11.93,5.12,18.28,5.31,1.63.04,3.26.01,4.9-.13l33.76-32.79c.23-1.82.3-3.63.28-5.44-.1-6.16-1.69-12.31-4.78-17.84v-.03Z"/><path class="cls-2" d="M299.18,331.94l14.6-13.88c2.48-2.36,2.67-6.22.41-8.83l-70.15-80.95-30.99,29.46,77.29,74.17c2.47,2.38,6.36,2.4,8.84.04h0ZM249.4,270.99c-1.59-1.67-1.52-4.28.15-5.87,1.67-1.59,4.28-1.52,5.87.15l7.31,7.69c1.59,1.67,1.52,4.28-.15,5.87s-4.28,1.52-5.87-.15l-7.31-7.69Z"/><path class="cls-2" d="M270.97,591.41c-3.53-7.44-11.15-10.97-17.1-8.18l-.37.19c-1.12.56-2.42,1.12-3.53,1.67,0,0-7.66,3.35-13.66,5.63-6,2.28-16.26,2.93-16.26,2.93-13.75,1.86-28.07,1.3-42.57-1.86-10.41-2.23-19.89-3.35-24.16-1.12-14.13,6.88-15.43,33.46-2.79,59.29,12.64,25.65,34.2,41.08,48.33,34.2,4.28-2.04,9.29-10.22,13.94-19.89,12.08-24.54,30.48-43.49,53.53-54.65,5.76-2.79,8.18-10.97,4.65-18.22ZM193.64,673.76c-10.97,5.39-27.7-6.69-37.36-26.77-9.85-20.07-8.74-40.71,2.04-45.91,10.97-5.39,27.7,6.69,37.36,26.77,9.85,19.89,8.92,40.52-2.04,45.91Z"/><ellipse class="cls-2" cx="184.23" cy="634.08" rx="9.14" ry="17.66" transform="translate(-246.63 133.72) rotate(-24.53)"/><path class="cls-2" d="M611.58,602.2c23.05,11.15,41.45,30.11,53.53,54.65,4.65,9.67,9.67,17.84,13.94,19.89,14.13,6.88,35.69-8.55,48.33-34.2,12.64-25.84,11.34-52.42-2.79-59.29-4.28-2.23-13.75-1.12-24.16,1.12-14.5,3.16-28.81,3.72-42.57,1.86,0,0-10.26-.65-16.26-2.93-6-2.28-13.66-5.63-13.66-5.63-1.12-.56-2.42-1.12-3.53-1.67l-.37-.19c-5.95-2.79-13.57.74-17.1,8.18-3.53,7.25-1.12,15.43,4.65,18.22ZM682.21,620.42c9.67-20.07,26.39-32.16,37.36-26.77,10.78,5.2,11.9,25.84,2.04,45.91-9.67,20.07-26.39,32.16-37.36,26.77-10.97-5.39-11.9-26.02-2.04-45.91Z"/><ellipse class="cls-2" cx="693.66" cy="626.65" rx="17.66" ry="9.14" transform="translate(-164.42 997.54) rotate(-65.47)"/><path class="cls-2" d="M689.9,188.98c-7.5-7.96-17.66-11.94-27.81-11.85-6.11.05-12.18,1.56-17.71,4.54l50.13,53.21c3.66-5.94,5.52-12.67,5.62-19.44.15-9.46-3.22-19.01-10.23-26.45h0Z"/><path class="cls-2" d="M631.73,187.75c-.06.45.03.93.37,1.29l54.29,57.63c.41.44,1,.55,1.54.4.02-.02.07,0,.09-.02.19-.07.38-.18.53-.31l3.94-3.72c.09-.08.15-.21.22-.32.19-.32.26-.67.2-1.03-.07-.3-.15-.57-.36-.8l-54.29-57.63c-.27-.29-.62-.44-1-.45-.11,0-.2,0-.29.03-.32.05-.61.15-.86.38l-3.94,3.72c-.25.24-.38.54-.43.87v-.02Z"/><path class="cls-2" d="M630.15,195.1c-3.33,5.38-5.2,11.45-5.57,17.61-.1,1.81-.11,3.62.04,5.45l32.27,34.26c1.63.21,3.26.31,4.89.35,6.35.1,12.73-1.38,18.49-4.49l-50.11-53.19v.03Z"/><path class="cls-2" d="M555.58,336.75c2.52,2.32,6.41,2.23,8.84-.19l75.98-75.51-31.5-28.91-68.73,82.16c-2.21,2.65-1.96,6.51.56,8.82l14.84,13.62h0ZM597.12,282.75c-1.56,1.7-4.17,1.81-5.87.25s-1.81-4.17-.25-5.87l7.17-7.81c1.56-1.7,4.17-1.81,5.87-.25,1.7,1.56,1.81,4.17.25,5.87l-7.17,7.81Z"/><polygon class="cls-5" points="254.77 640.55 245.08 640.55 240.23 648.95 245.08 657.34 254.77 657.34 259.62 648.95 254.77 640.55"/><polygon class="cls-5" points="619.86 639.55 610.17 639.55 605.32 647.95 610.17 656.34 619.86 656.34 624.71 647.95 619.86 639.55"/><polygon class="cls-5" points="320.62 141.7 310.93 141.7 306.08 150.1 310.93 158.49 320.62 158.49 325.47 150.1 320.62 141.7"/><polygon class="cls-5" points="550.94 140.38 541.24 140.38 536.4 148.78 541.24 157.18 550.94 157.18 555.79 148.78 550.94 140.38"/><path class="cls-2" d="M429.39,148.78c-149.61,0-270.89,121.28-270.89,270.89s121.28,270.89,270.89,270.89,270.89-121.28,270.89-270.89-121.28-270.89-270.89-270.89ZM429.76,672.63c-141.59,0-256.37-114.78-256.37-256.37s114.78-256.37,256.37-256.37,256.37,114.78,256.37,256.37-114.78,256.37-256.37,256.37Z"/><path class="cls-2" d="M358.8,131.76l-3.43,1.08,3.42,10.86-6.63,2.09-3.42-10.86-3.43,1.08-1.83-5.79,13.48-4.25,1.83,5.79Z"/><path class="cls-2" d="M373.28,125.74l3.2,13.66-3.93.92-1.66-1.36-1.21,2.03-4.42,1.03-3.23-2.09-1.94-8.26,2.13-3.35,11.04-2.59ZM369.31,135.49l-.91-3.88-1.96.46.91,3.88,1.96-.46Z"/><path class="cls-2" d="M375.33,125.25l-.73-4.03,6.57-1.19.73,4.03-6.57,1.19ZM377.86,139.21l-2.35-12.93,6.57-1.19,2.35,12.93-6.57,1.19Z"/><path class="cls-2" d="M383.98,123.81l10.93-1.47,3.16,2.37,1.5,11.16-6.22.83-1.11-8.24-1.33.18,1.11,8.24-6.16.83-1.87-13.9Z"/><path class="cls-2" d="M413.91,120.66l1.08,13.98-4.02.31-1.43-1.6-1.5,1.82-4.52.35-2.87-2.56-.65-8.46,2.61-2.98,11.31-.87ZM408.5,129.7l-.31-3.98-2.01.16.31,3.98,2.01-.16Z"/><path class="cls-2" d="M416.01,120.56l11.02-.26,2.88,2.7.27,11.25-6.28.15-.2-8.31-1.34.03.2,8.31-6.21.15-.34-14.03Z"/><path class="cls-2" d="M438.82,134.38l.18-3.82,5.98.29.05-1.09-4.57-.22-1.44-1.52.26-5.5,2.05-2.07,10.47.5-.16,3.36-6-.29-.05,1.09,4.87.23,1.44,1.52-.29,5.96-2.05,2.07-10.74-.52Z"/><path class="cls-2" d="M467.85,125.22l-.82,8.45-3.07,2.49-4.87-.47-.44,4.54-6.23-.6,1.8-18.5,11.1,1.08,2.53,3.03ZM461.64,126.64l-1.92-.19-.41,4.24,1.92.19.41-4.24Z"/><path class="cls-2" d="M480,130.89l-4.14-.6-1.05,7.29-6.82-.98,2-13.88,6.55.94-.22,1.54,1.84-1.14,2.76.4-.92,6.42Z"/><path class="cls-2" d="M480.36,135.68l1.64-8.47,3.18-2.19,8.41,1.62,2.14,3.21-1.64,8.47-3.18,2.21-8.41-1.62-2.13-3.23ZM488.81,135.01l.77-4-2.25-.43-.77,4,2.25.43Z"/><path class="cls-2" d="M511.75,131.12l-3.47,13.6-4.01-1.02-.79-1.93-1.98,1.23-4.11-1.05-1.88-3.34,2.78-10.91,6.07,1.55-2.08,8.14,1.3.33,2.08-8.14,6.09,1.55Z"/><path class="cls-2" d="M519.38,139.4l-.9,2.78,2.66.86-1.7,5.23-6.31-2.05-1.82-3.51,1.75-5.37-1.38-.45,1.67-5.13,1.38.45.98-3,6.33,2.06-.97,3,2.66.86-1.67,5.13-2.66-.86Z"/><path class="cls-2" d="M720.89,509.85l61.25,5.85-26.9-66.07,26.9-52.62-61.25-15.2v-15.57s-125.53-46.25-294.22-46.25-289.63,46.25-289.63,46.25v15.75l-61.25,15.2,26.9,52.62-26.9,66.07,61.25-5.85s12.4-5.33,33.19-12.98l-16.16,5.42-17.03,7.56h42.65l-9.46-12.98c53.1-19.55,160.89-54.29,256.44-54.29s206.87,35.01,261,54.45l-5.34,12.82,38.56-.18"/><polygon class="cls-3" points="174.5 382.5 153.91 389.69 153.91 394.42 173.89 386.53 174.5 382.5"/><polygon class="cls-3" points="174.5 395.29 153.91 402.48 153.91 407.21 173.89 399.32 174.5 395.29"/><polygon class="cls-3" points="174.5 408.08 153.91 415.27 153.91 420 173.89 412.11 174.5 408.08"/><polygon class="cls-3" points="174.5 420.87 153.91 428.06 153.91 432.79 173.89 424.9 174.5 420.87"/><polygon class="cls-3" points="174.5 433.66 153.91 440.85 153.91 445.58 173.89 437.69 174.5 433.66"/><polygon class="cls-3" points="174.5 446.45 153.91 453.64 153.91 458.37 173.89 450.48 174.5 446.45"/><polygon class="cls-3" points="174.5 459.24 153.91 466.43 153.91 471.16 173.89 463.27 174.5 459.24"/><polygon class="cls-3" points="684.82 380.86 705.41 388.04 705.41 392.77 685.43 384.88 684.82 380.86"/><polygon class="cls-3" points="684.82 393.65 705.41 400.83 705.41 405.56 685.43 397.67 684.82 393.65"/><polygon class="cls-3" points="684.82 406.44 705.41 413.62 705.41 418.35 685.43 410.46 684.82 406.44"/><polygon class="cls-3" points="684.82 419.23 705.41 426.41 705.41 431.14 685.43 423.25 684.82 419.23"/><polygon class="cls-3" points="684.82 432.02 705.41 439.2 705.41 443.93 685.43 436.04 684.82 432.02"/><polygon class="cls-3" points="684.82 444.81 705.41 452 705.41 456.72 685.43 448.83 684.82 444.81"/><polygon class="cls-3" points="684.82 457.6 705.41 464.79 705.41 469.51 685.43 461.62 684.82 457.6"/><polygon class="cls-3" points="137.11 388.31 89.76 402.04 91.7 406.44 137.11 392.92 137.11 388.31"/><polygon class="cls-3" points="137.11 403.21 94.71 413.95 96.38 417.94 137.11 407.28 137.11 403.21"/><polygon class="cls-3" points="136.37 416.44 100.25 425.49 101.91 429.19 136.44 420.3 136.37 416.44"/><polygon class="cls-3" points="136.5 429.87 136.5 433.4 106.9 440.1 105.54 436.95 136.5 429.87"/><polygon class="cls-3" points="136.5 442.03 110.51 448.03 110.51 450.49 136.5 447.56 136.5 442.03"/><polygon class="cls-3" points="136.5 456.93 136.5 460.22 107.27 460.22 108.25 457.07 136.5 456.93"/><polygon class="cls-3" points="136.5 466.94 136.5 470.22 103.42 470.22 104.71 467.12 136.5 466.94"/><polygon class="cls-3" points="136.94 477.44 101.03 477.37 99.96 480.42 136.94 480.42 136.94 477.44"/><polygon class="cls-3" points="136.94 486.96 136.94 490.52 96.24 490.52 97.55 487.09 136.94 486.96"/><polygon class="cls-3" points="136.94 496.46 94.36 499.33 92.32 504.09 136.94 499.96 136.94 496.46"/><polygon class="cls-3" points="723.54 387.61 770.89 401.34 768.95 405.73 723.54 392.22 723.54 387.61"/><polygon class="cls-3" points="723.54 402.5 765.94 413.24 764.27 417.23 723.54 406.57 723.54 402.5"/><polygon class="cls-3" points="724.28 415.74 760.4 424.78 758.74 428.48 724.21 419.6 724.28 415.74"/><polygon class="cls-3" points="724.15 429.16 724.15 432.69 753.74 439.39 755.11 436.24 724.15 429.16"/><polygon class="cls-3" points="724.15 441.32 750.14 447.32 750.14 449.79 724.15 446.85 724.15 441.32"/><polygon class="cls-3" points="724.15 456.22 724.15 459.51 753.38 459.51 752.39 456.36 724.15 456.22"/><polygon class="cls-3" points="724.15 466.23 724.15 469.51 757.23 469.51 755.94 466.41 724.15 466.23"/><polygon class="cls-3" points="723.71 476.74 759.62 476.66 760.69 479.72 723.71 479.72 723.71 476.74"/><polygon class="cls-3" points="723.71 486.26 723.71 489.81 764.41 489.81 763.1 486.39 723.71 486.26"/><polygon class="cls-3" points="723.71 495.75 766.29 498.62 768.33 503.38 723.71 499.26 723.71 495.75"/><path class="cls-3" d="M177.42,408.01l3.17-10.41,17.59-4.72.74,2.76-1.4,5.45.17.64,8.29-2.23-.17-.64-3.89-4.02-.74-2.76,17.54-4.71,7.96,7.42,2.86,10.64-49.24,13.22-2.86-10.64ZM229.05,407.5l6.11,22.76-47.48,12.75-6.11-22.76,47.48-12.75ZM201.04,428.49l14.92-4.01-.73-2.71-14.92,4.01.73,2.71Z"/><path class="cls-3" d="M283.62,386.21l6.39,33.46-17.12,3.27-.58-3.06.74-1.13-2.94.56.62,3.26-11.53,2.2-.62-3.26-4.62.88-1.2-6.26,4.62-.88-.25-1.3-4.57.87-1.22-6.41,1.3-.25-2.14-3.23-.18-.95,8.97-1.71,2.21,4.2.27-.05.51-4.72,8.97-1.71.18.95-.8,3.79,1.3-.25,1.22,6.41-4.51.86.25,1.3,4.57-.87.88,4.61,1.15-1.67-3.13-16.38-23.43,4.48,4.48,23.44-13.32,2.55-6.39-33.46,15.93-3.04-.27-1.4-15.44,2.95-1.85-9.67,15.44-2.95-.38-2,18.05-3.45.38,2,15.77-3.01,1.85,9.67-15.77,3.01.27,1.4,15.93-3.04Z"/><path class="cls-3" d="M302.11,372.47l3.19-.4,1.42,11.39-16.7,2.07-1.42-11.39,3.08-.38-.25-2.03,10.44-1.3.25,2.03ZM290.38,386.67l16.42-2.04.91,7.34-16.42,2.04-.91-7.34ZM291.43,395.18l16.42-2.04.87,7.04-16.42,2.04-.87-7.04ZM292.36,403.49l16.53-2.05,1.93,15.54-16.53,2.05-1.93-15.54ZM300.75,411.39l2.2-.27-.23-1.87-2.2.27.23,1.87ZM344.37,408.65l.52,4.2-9.56,1.19-1.58-1.45-1.46,1.72-5.49.68-.62-4.96,2.15-2.48-1.33-1.27-.52-4.15-2.42.3.13,1.06,1.37-.17.63,5.11-1.33.52.8,6.48-13.4,1.66-.46-3.69,3.82-2.02-.05-.4-4.34.54-.79-6.33,4.34-.54-.13-1.06-4.34.54-.78-6.28,4.34-.54-.13-1.01-4.06.5-.56-4.5,14.89-1.85.45,3.59-1.37.68.18,1.42,2.42-.3-.8-6.48-16.1,2-.7-5.67,9.06-1.12-.15-1.16-8.79,1.09-.57-4.56,8.79-1.09-.14-1.11-8.95,1.11-.79-6.33,3.52-.44-1.13-1.92-.07-.56,11.37-1.41,1.42,2.45,1.21-.15.61-2.7,11.87-1.47.07.56-.57,2.13,3.9-.48.79,6.33-10.05,1.25.14,1.11,9.72-1.21.57,4.55-9.72,1.21.15,1.16,10.05-1.25.7,5.67-6.1.76.72,5.82,6.54-.81.77,6.17-6.54.81.11.91.89.87,1.05-1,4.45-.55.6,4.86-1.33,1.4,2.1,2.05ZM336.51,392.97l-.5-4,5.22-.65.5,4-5.22.65Z"/><path class="cls-3" d="M398.69,379.21l-1.55.1.75,12.17-49.51,3.08-.75-12.17-1.44.09-.72-11.66,15.15-6.97,21.38-1.33,15.95,5.04.72,11.66ZM349.4,395.61l47.68-2.96,1.04,16.75-47.68,2.96-1.04-16.75ZM388.23,376.95l-5.26-1.67.06.92-21.82,1.36-.05-.87-4.91,2.25,31.99-1.99ZM360.33,388.54l2.21-.14-1.17-1.05-.16-2.65,5.69-.35.23,3.77,1.1-.07-.28-4.58-7.9.49.29,4.58ZM364.85,399.76l.07,1.12,17.57-1.09-.07-1.12-17.57,1.09ZM382.82,405.03l-.07-1.07-17.57,1.09.07,1.07,17.57-1.09ZM370.18,372.09l-2.97,1.26,9.45-.59-3.11-.88-3.37.21ZM384.85,382.42l-7.85.49.28,4.58,1.05-.07-.23-3.77,5.75-.36.16,2.65-1.09,1.19,2.21-.14-.28-4.58Z"/><path class="cls-3" d="M428.25,363.21h2.38s.02,8.41.02,8.41h-2.38s0,1.23,0,1.23h2.21s.03,10.5.03,10.5h-2.71s0,1.13,0,1.13h2.88s.01,5.55.01,5.55h-2.88s0,1.13,0,1.13h2.66s.01,4.48.01,4.48h-2.66s0,1.13,0,1.13h2.66s.01,4.53.01,4.53h-2.66s0,1.18,0,1.18h2.88s.02,6.77.02,6.77l-26.02.07-.03-12.44h-1.38s-.03-9.48-.03-9.48l2.98-3.99h-2.1s-.03-10.5-.03-10.5h2.6s0-1.23,0-1.23h-3.04s-.02-8.41-.02-8.41h3.04s0-1.23,0-1.23l8.86-.02v1.22s3.99-.01,3.99-.01v-1.17s8.69-.02,8.69-.02v1.17ZM409.91,378.76h1.77s0-1.48,0-1.48h-1.77s0,1.48,0,1.48ZM418.08,390.06h-2.77s0,1.13,0,1.13h2.77s0-1.13,0-1.13ZM418.09,395.67h-2.77s0,1.13,0,1.13h2.77s0-1.13,0-1.13ZM418.11,401.33h-2.77s0,1.18,0,1.18h2.77s0-1.18,0-1.18ZM419.58,371.65h-3.99s0,1.23,0,1.23h1.38s.03,10.5.03,10.5h-.89s0,1.12,0,1.12h1.94s-.03-11.63-.03-11.63h1.55s0-1.23,0-1.23ZM423.19,377.25v1.48s1.72,0,1.72,0v-1.48s-1.72,0-1.72,0ZM455.02,397.55l.03,11.53-12.79.04-.03-11.22h-.66s-1.19,11.22-1.19,11.22l-8.58.02v-3.72s2.07-9.03,2.07-9.03h-1.99s-.09-34.01-.09-34.01l22.64-.06.09,34.01h-4.21s0,2.97,0,2.97h.83s.71-1.74.71-1.74h3.16ZM440.73,372.56v1.53s4.32-.01,4.32-.01v-1.53s-4.32.01-4.32.01ZM445.06,379.48h-4.32s0,1.54,0,1.54h4.32s0-1.54,0-1.54ZM440.77,387.91h4.32s0-1.54,0-1.54h-4.32s0,1.54,0,1.54Z"/><path class="cls-3" d="M462.81,391.78l8.84.5-1.01,17.67-11.83-.67.72-12.63,3.27-4.87ZM460.88,376.96l11.61.66-.76,13.34-11.61-.66.76-13.34ZM461.71,362.45l11.61.66-.75,13.19-11.61-.66.75-13.19ZM474.52,363.33l19.07,1.08-2.17,38.04-1.88-.11,1.6,4.94-.21,3.67-8.51-.48-.34-6.61-.72-.04-1.15,6.52-8.57-.49.21-3.67,2.16-4.73-1.66-.09,2.17-38.04ZM481.01,393.38l2.43.14.15-2.7-2.43-.14-.15,2.7ZM484.08,382.41l-2.43-.14-.13,2.34,2.43.14.13-2.34ZM482.15,373.42l-.16,2.8,2.43.14.16-2.8-2.43-.14ZM512.4,365.17l-2.67,46.84-17.52-1,.32-5.6,6.52-4.43,2.08-36.46,11.27.64ZM497.81,400.26l-4.97-.28,1.9-33.4,4.97.28-1.9,33.4Z"/><path class="cls-3" d="M529.84,402.98l-1.34,11.14-11.27-1.35.9-7.5-1.58,2.48-2.25-.27,2.33-19.45,4.01-5.53-2.91-.35,1.51-12.61,3.13.38.47-3.95,11.27,1.35-.47,3.95,1.92.23-1.51,12.61-1.92-.23-.23,1.87,1.49,2.44-1.8,14.99-1.76-.21ZM565.47,414.13l-.55,4.61-9.34-1.12-1.54-2.55-2.01,1.87-7.69-.92.6-5.01,2.85-2.84-2.73-5.11.23-1.92-1.48-.18-.29,2.43,1.02,2.23-1.14,9.47-2.25-.27-1.16-1.94-1.58,2.48-8.63-1.04.74-6.18,2.35-3.78,1.77-14.74,11.93,1.43,2.67-22.23,10.66,1.28-.61,5.12,3.81-3.91,6.6.79-.44,3.65-2.67,2.71-.03.25,2.31.28-.54,4.51-2.67,2.71-.03.25,2.31.28-.68,5.67-1.15-.14.14,1.15,1.26.15-1.11,9.22-9.45-1.13,1.18,2.25.99-.86,7.15.86-.59,4.96-2.08,1.96,1.89,3.31ZM545.58,389.81l-10.88-1.31.76-6.38,2.29-2.35.02-.15-1.98-.24.78-6.48,4.08-4.29,7.36.88-.44,3.65-2.67,2.71-.03.25,2.31.28-.54,4.51-2.67,2.71-.03.25,2.31.28-.68,5.67ZM557.21,392.34l1.92.23.13-1.11-1.92-.23-.13,1.11ZM558.43,382.11l-.27,2.28,1.9-1.93.02-.15-1.65-.2Z"/><path class="cls-3" d="M621.84,416.27l-1.25-.24-2.37,12.58-23.66-4.47,3.13-16.59,2.83.53-2.26-3.23-1.74-.33-3.29,2.18,3.05.58-3.13,16.59-23.61-4.46,2.38-12.58-1.36-.26,1.15-6.11,7.24-1.64-6.15-1.16,1.42-7.52,16.48,3.11.25-1.3-15.72-2.97,2.96-15.68,23.66,4.47-2.7,14.28,1.41.27,2.7-14.28,23.66,4.47-2.96,15.68-3.43-.65.35,1.42,3.32.63-1.42,7.52-6.04-1.14,6.25,4.19-1.15,6.11ZM584.82,412.44l-2.94-.55-.39,2.05,2.94.55.39-2.05ZM590.4,382.88l-2.94-.55-.41,2.16,2.94.55.41-2.15ZM609.84,417.17l-2.88-.54-.39,2.05,2.88.54.39-2.05ZM607.61,396.45l2.72.51.25-1.3-2.72-.51-.25,1.3ZM612.13,389.21l2.88.54.41-2.16-2.88-.54-.41,2.15Z"/><path class="cls-3" d="M625.37,419.07l19.9-14.65,4.44-16.45,19.02,5.14-4.44,16.45,10.45,22.85-2.74,10.14-14.32-3.87-5.27-18.28-1.82-.49-13.49,13.21-14.48-3.91,2.74-10.14Z"/><path class="cls-3" d="M712.25,491.08l-.39-.15v-116.39l-2.14-.9c-1.08-.46-27.06-11.35-74.41-22.39-43.61-10.17-114.21-22.3-202.87-22.3-169.69,0-282.22,44.22-283.34,44.67l-2.2.88v116.76l.5-.18,22.91,14.4-15.19-17.16c23.53-8.18,161.23-54.25,277.33-54.25s250.8,46.8,271.83,54.43l-9.78,16.22,17.75-13.63ZM153.91,481.33v-102.04c16.43-6.09,123.27-43.33,278.54-43.33s256.66,37.13,272.42,43.29v102.03c-26.33-9.44-157.29-54.2-272.42-54.2s-251.72,45-278.54,54.26Z"/><circle class="cls-2" cx="429.39" cy="242.52" r="65"/><circle class="cls-3" cx="429.39" cy="242.52" r="58.79"/><path class="cls-2" d="M462.69,278.45h-65.93c-.84,0-1.47.59-1.47,1.39v5.44c0,.79.63,1.39,1.47,1.39h65.83c.84,0,1.47-.59,1.47-1.39v-5.44c.1-.79-.63-1.39-1.36-1.39Z"/><path class="cls-2" d="M462.67,236.39h-7.8c-2.28-11.08-11.68-19.6-23.16-20.59v-9.4h11.88c.89,0,1.39-.99.89-1.78l-3.86-5.15,3.86-5.15c.49-.69,0-1.78-.89-1.78h-14.85c-.89,0-1.68.79-1.68,1.68v21.48c-11.48.99-20.88,9.5-23.16,20.59h-7.8c-.79,0-1.39.59-1.39,1.39v5.44c0,.79.59,1.39,1.39,1.39h66.57c.79,0,1.39-.59,1.39-1.39v-5.44c0-.59-.69-1.29-1.39-1.29Z"/><rect class="cls-2" x="455.85" y="248.27" width="8.21" height="26.62"/><rect class="cls-2" x="435.66" y="248.27" width="8.21" height="26.62"/><rect class="cls-2" x="415.48" y="248.27" width="8.21" height="26.62"/><rect class="cls-2" x="395.29" y="248.27" width="8.21" height="26.62"/></g></svg>