<svg width="1326" height="132" viewBox="0 0 1326 132" fill="none" xmlns="http://www.w3.org/2000/svg">
<g clip-path="url(#clip0_58_366)">
<path d="M200.263 6.58H198.401V8.526H200.263V12.194H195.839L193.963 10.346V6.58H192.997V2.982H193.963V0.882002H198.401V2.982H200.263V6.58Z" fill="#00252C"/>
<path d="M188.078 2.884H192.264V12.236H189.506L188.68 11.116L187.602 12.236H184.774L183.01 10.388V2.884H187.182V8.484H188.078V2.884Z" fill="#00252C"/>
<path d="M174.452 12.264L172.646 10.416V4.662L174.452 2.828H180.164L181.97 4.662V10.416L180.164 12.264H174.452ZM176.566 8.904H178.092V6.188H176.566V8.904Z" fill="#00252C"/>
<path d="M171.889 2.954V7.28H169.103V12.194H164.511V2.842H168.921V3.878L170.027 2.954H171.889Z" fill="#00252C"/>
<path d="M161.665 2.842L163.541 4.69V10.346L161.665 12.194H158.403V15.232H154.231V2.842H161.665ZM159.509 8.876V6.034H158.221V8.876H159.509Z" fill="#00252C"/>
<path d="M151.884 12.194H144.716V9.646H148.706V8.918H145.654L144.646 7.952V4.284L145.948 2.842H152.934V5.082H148.93V5.81H152.178L153.186 6.776V10.752L151.884 12.194Z" fill="#00252C"/>
<path d="M129.512 12.194V2.842H136.862L138.738 4.69V12.194H134.552V6.65H133.656V12.194H129.512Z" fill="#00252C"/>
<path d="M120.902 2.842H128.462V12.194H125.774L124.906 11.06L123.814 12.194H120.79L119.012 10.346V4.69L120.902 2.842ZM123.058 8.568H124.402V5.908H123.058V8.568Z" fill="#00252C"/>
<path d="M108.744 12.194V2.842H116.094L117.97 4.69V12.194H113.784V6.65H112.888V12.194H108.744Z" fill="#00252C"/>
<path d="M107.632 2.73H103.18V0H107.632V2.73ZM107.632 12.194H103.18V3.43H107.632V12.194Z" fill="#00252C"/>
<path d="M94.556 2.842H102.116V12.194H99.428L98.56 11.06L97.468 12.194H94.444L92.666 10.346V4.69L94.556 2.842ZM96.712 8.568H98.056V5.908H96.712V8.568Z" fill="#00252C"/>
<path d="M92.1593 0.49V4.536H89.7653V12.124H85.1313V4.536H82.7373V0.49H92.1593Z" fill="#00252C"/>
<path d="M349.263 6.58H347.401V8.526H349.263V12.194H344.839L342.963 10.346V6.58H341.997V2.982H342.963V0.882002H347.401V2.982H349.263V6.58Z" fill="#00252C"/>
<path d="M337.078 2.884H341.264V12.236H338.506L337.68 11.116L336.602 12.236H333.774L332.01 10.388V2.884H336.182V8.484H337.078V2.884Z" fill="#00252C"/>
<path d="M323.452 12.264L321.646 10.416V4.662L323.452 2.828H329.164L330.97 4.662V10.416L329.164 12.264H323.452ZM325.566 8.904H327.092V6.188H325.566V8.904Z" fill="#00252C"/>
<path d="M320.889 2.954V7.28H318.103V12.194H313.511V2.842H317.921V3.878L319.027 2.954H320.889Z" fill="#00252C"/>
<path d="M310.665 2.842L312.541 4.69V10.346L310.665 12.194H307.403V15.232H303.231V2.842H310.665ZM308.509 8.876V6.034H307.221V8.876H308.509Z" fill="#00252C"/>
<path d="M300.884 12.194H293.716V9.646H297.706V8.918H294.654L293.646 7.952V4.284L294.948 2.842H301.934V5.082H297.93V5.81H301.178L302.186 6.776V10.752L300.884 12.194Z" fill="#00252C"/>
<path d="M278.512 12.194V2.842H285.862L287.738 4.69V12.194H283.552V6.65H282.656V12.194H278.512Z" fill="#00252C"/>
<path d="M269.902 2.842H277.462V12.194H274.774L273.906 11.06L272.814 12.194H269.79L268.012 10.346V4.69L269.902 2.842ZM272.058 8.568H273.402V5.908H272.058V8.568Z" fill="#00252C"/>
<path d="M257.744 12.194V2.842H265.094L266.97 4.69V12.194H262.784V6.65H261.888V12.194H257.744Z" fill="#00252C"/>
<path d="M256.632 2.73H252.18V0H256.632V2.73ZM256.632 12.194H252.18V3.43H256.632V12.194Z" fill="#00252C"/>
<path d="M243.556 2.842H251.116V12.194H248.428L247.56 11.06L246.468 12.194H243.444L241.666 10.346V4.69L243.556 2.842ZM245.712 8.568H247.056V5.908H245.712V8.568Z" fill="#00252C"/>
<path d="M241.159 0.49V4.536H238.765V12.124H234.131V4.536H231.737V0.49H241.159Z" fill="#00252C"/>
<path d="M498.263 6.58H496.401V8.526H498.263V12.194H493.839L491.963 10.346V6.58H490.997V2.982H491.963V0.882002H496.401V2.982H498.263V6.58Z" fill="#00252C"/>
<path d="M486.078 2.884H490.264V12.236H487.506L486.68 11.116L485.602 12.236H482.774L481.01 10.388V2.884H485.182V8.484H486.078V2.884Z" fill="#00252C"/>
<path d="M472.452 12.264L470.646 10.416V4.662L472.452 2.828H478.164L479.97 4.662V10.416L478.164 12.264H472.452ZM474.566 8.904H476.092V6.188H474.566V8.904Z" fill="#00252C"/>
<path d="M469.889 2.954V7.28H467.103V12.194H462.511V2.842H466.921V3.878L468.027 2.954H469.889Z" fill="#00252C"/>
<path d="M459.665 2.842L461.541 4.69V10.346L459.665 12.194H456.403V15.232H452.231V2.842H459.665ZM457.509 8.876V6.034H456.221V8.876H457.509Z" fill="#00252C"/>
<path d="M449.884 12.194H442.716V9.646H446.706V8.918H443.654L442.646 7.952V4.284L443.948 2.842H450.934V5.082H446.93V5.81H450.178L451.186 6.776V10.752L449.884 12.194Z" fill="#00252C"/>
<path d="M427.512 12.194V2.842H434.862L436.738 4.69V12.194H432.552V6.65H431.656V12.194H427.512Z" fill="#00252C"/>
<path d="M418.902 2.842H426.462V12.194H423.774L422.906 11.06L421.814 12.194H418.79L417.012 10.346V4.69L418.902 2.842ZM421.058 8.568H422.402V5.908H421.058V8.568Z" fill="#00252C"/>
<path d="M406.744 12.194V2.842H414.094L415.97 4.69V12.194H411.784V6.65H410.888V12.194H406.744Z" fill="#00252C"/>
<path d="M405.632 2.73H401.18V0H405.632V2.73ZM405.632 12.194H401.18V3.43H405.632V12.194Z" fill="#00252C"/>
<path d="M392.556 2.842H400.116V12.194H397.428L396.56 11.06L395.468 12.194H392.444L390.666 10.346V4.69L392.556 2.842ZM394.712 8.568H396.056V5.908H394.712V8.568Z" fill="#00252C"/>
<path d="M390.159 0.49V4.536H387.765V12.124H383.131V4.536H380.737V0.49H390.159Z" fill="#00252C"/>
<path d="M647.263 6.58H645.401V8.526H647.263V12.194H642.839L640.963 10.346V6.58H639.997V2.982H640.963V0.882002H645.401V2.982H647.263V6.58Z" fill="#00252C"/>
<path d="M635.078 2.884H639.264V12.236H636.506L635.68 11.116L634.602 12.236H631.774L630.01 10.388V2.884H634.182V8.484H635.078V2.884Z" fill="#00252C"/>
<path d="M621.453 12.264L619.647 10.416V4.662L621.453 2.828H627.165L628.971 4.662V10.416L627.165 12.264H621.453ZM623.567 8.904H625.093V6.188H623.567V8.904Z" fill="#00252C"/>
<path d="M618.889 2.954V7.28H616.103V12.194H611.511V2.842H615.921V3.878L617.027 2.954H618.889Z" fill="#00252C"/>
<path d="M608.666 2.842L610.542 4.69V10.346L608.666 12.194H605.404V15.232H601.232V2.842H608.666ZM606.51 8.876V6.034H605.222V8.876H606.51Z" fill="#00252C"/>
<path d="M598.884 12.194H591.716V9.646H595.706V8.918H592.654L591.646 7.952V4.284L592.948 2.842H599.934V5.082H595.93V5.81H599.178L600.186 6.776V10.752L598.884 12.194Z" fill="#00252C"/>
<path d="M576.512 12.194V2.842H583.862L585.738 4.69V12.194H581.552V6.65H580.656V12.194H576.512Z" fill="#00252C"/>
<path d="M567.902 2.842H575.462V12.194H572.774L571.906 11.06L570.814 12.194H567.79L566.012 10.346V4.69L567.902 2.842ZM570.058 8.568H571.402V5.908H570.058V8.568Z" fill="#00252C"/>
<path d="M555.744 12.194V2.842H563.094L564.97 4.69V12.194H560.784V6.65H559.888V12.194H555.744Z" fill="#00252C"/>
<path d="M554.632 2.73H550.18V0H554.632V2.73ZM554.632 12.194H550.18V3.43H554.632V12.194Z" fill="#00252C"/>
<path d="M541.556 2.842H549.116V12.194H546.428L545.56 11.06L544.468 12.194H541.444L539.666 10.346V4.69L541.556 2.842ZM543.712 8.568H545.056V5.908H543.712V8.568Z" fill="#00252C"/>
<path d="M539.159 0.49V4.536H536.765V12.124H532.131V4.536H529.737V0.49H539.159Z" fill="#00252C"/>
<path d="M796.263 6.58H794.401V8.526H796.263V12.194H791.839L789.963 10.346V6.58H788.997V2.982H789.963V0.882002H794.401V2.982H796.263V6.58Z" fill="#00252C"/>
<path d="M784.078 2.884H788.264V12.236H785.506L784.68 11.116L783.602 12.236H780.774L779.01 10.388V2.884H783.182V8.484H784.078V2.884Z" fill="#00252C"/>
<path d="M770.452 12.264L768.646 10.416V4.662L770.452 2.828H776.164L777.97 4.662V10.416L776.164 12.264H770.452ZM772.566 8.904H774.092V6.188H772.566V8.904Z" fill="#00252C"/>
<path d="M767.889 2.954V7.28H765.103V12.194H760.511V2.842H764.921V3.878L766.027 2.954H767.889Z" fill="#00252C"/>
<path d="M757.665 2.842L759.541 4.69V10.346L757.665 12.194H754.403V15.232H750.231V2.842H757.665ZM755.509 8.876V6.034H754.221V8.876H755.509Z" fill="#00252C"/>
<path d="M747.884 12.194H740.716V9.646H744.706V8.918H741.654L740.646 7.952V4.284L741.948 2.842H748.934V5.082H744.93V5.81H748.178L749.186 6.776V10.752L747.884 12.194Z" fill="#00252C"/>
<path d="M725.512 12.194V2.842H732.862L734.738 4.69V12.194H730.552V6.65H729.656V12.194H725.512Z" fill="#00252C"/>
<path d="M716.902 2.842H724.462V12.194H721.774L720.906 11.06L719.814 12.194H716.79L715.012 10.346V4.69L716.902 2.842ZM719.058 8.568H720.402V5.908H719.058V8.568Z" fill="#00252C"/>
<path d="M704.744 12.194V2.842H712.094L713.97 4.69V12.194H709.784V6.65H708.888V12.194H704.744Z" fill="#00252C"/>
<path d="M703.632 2.73H699.18V0H703.632V2.73ZM703.632 12.194H699.18V3.43H703.632V12.194Z" fill="#00252C"/>
<path d="M690.556 2.842H698.116V12.194H695.428L694.56 11.06L693.468 12.194H690.444L688.666 10.346V4.69L690.556 2.842ZM692.712 8.568H694.056V5.908H692.712V8.568Z" fill="#00252C"/>
<path d="M688.159 0.49V4.536H685.765V12.124H681.131V4.536H678.737V0.49H688.159Z" fill="#00252C"/>
<path d="M945.263 6.58H943.401V8.526H945.263V12.194H940.839L938.963 10.346V6.58H937.997V2.982H938.963V0.882002H943.401V2.982H945.263V6.58Z" fill="#00252C"/>
<path d="M933.078 2.884H937.264V12.236H934.506L933.68 11.116L932.602 12.236H929.774L928.01 10.388V2.884H932.182V8.484H933.078V2.884Z" fill="#00252C"/>
<path d="M919.452 12.264L917.646 10.416V4.662L919.452 2.828H925.164L926.97 4.662V10.416L925.164 12.264H919.452ZM921.566 8.904H923.092V6.188H921.566V8.904Z" fill="#00252C"/>
<path d="M916.889 2.954V7.28H914.103V12.194H909.511V2.842H913.921V3.878L915.027 2.954H916.889Z" fill="#00252C"/>
<path d="M906.665 2.842L908.541 4.69V10.346L906.665 12.194H903.403V15.232H899.231V2.842H906.665ZM904.509 8.876V6.034H903.221V8.876H904.509Z" fill="#00252C"/>
<path d="M896.884 12.194H889.716V9.646H893.706V8.918H890.654L889.646 7.952V4.284L890.948 2.842H897.934V5.082H893.93V5.81H897.178L898.186 6.776V10.752L896.884 12.194Z" fill="#00252C"/>
<path d="M874.512 12.194V2.842H881.862L883.738 4.69V12.194H879.552V6.65H878.656V12.194H874.512Z" fill="#00252C"/>
<path d="M865.902 2.842H873.462V12.194H870.774L869.906 11.06L868.814 12.194H865.79L864.012 10.346V4.69L865.902 2.842ZM868.058 8.568H869.402V5.908H868.058V8.568Z" fill="#00252C"/>
<path d="M853.744 12.194V2.842H861.094L862.97 4.69V12.194H858.784V6.65H857.888V12.194H853.744Z" fill="#00252C"/>
<path d="M852.632 2.73H848.18V0H852.632V2.73ZM852.632 12.194H848.18V3.43H852.632V12.194Z" fill="#00252C"/>
<path d="M839.556 2.842H847.116V12.194H844.428L843.56 11.06L842.468 12.194H839.444L837.666 10.346V4.69L839.556 2.842ZM841.712 8.568H843.056V5.908H841.712V8.568Z" fill="#00252C"/>
<path d="M837.159 0.49V4.536H834.765V12.124H830.131V4.536H827.737V0.49H837.159Z" fill="#00252C"/>
<path d="M1094.26 6.58H1092.4V8.526H1094.26V12.194H1089.84L1087.96 10.346V6.58H1087V2.982H1087.96V0.882002H1092.4V2.982H1094.26V6.58Z" fill="#00252C"/>
<path d="M1082.08 2.884H1086.26V12.236H1083.51L1082.68 11.116L1081.6 12.236H1078.77L1077.01 10.388V2.884H1081.18V8.484H1082.08V2.884Z" fill="#00252C"/>
<path d="M1068.45 12.264L1066.65 10.416V4.662L1068.45 2.828H1074.16L1075.97 4.662V10.416L1074.16 12.264H1068.45ZM1070.57 8.904H1072.09V6.188H1070.57V8.904Z" fill="#00252C"/>
<path d="M1065.89 2.954V7.28H1063.1V12.194H1058.51V2.842H1062.92V3.878L1064.03 2.954H1065.89Z" fill="#00252C"/>
<path d="M1055.67 2.842L1057.54 4.69V10.346L1055.67 12.194H1052.4V15.232H1048.23V2.842H1055.67ZM1053.51 8.876V6.034H1052.22V8.876H1053.51Z" fill="#00252C"/>
<path d="M1045.88 12.194H1038.72V9.646H1042.71V8.918H1039.65L1038.65 7.952V4.284L1039.95 2.842H1046.93V5.082H1042.93V5.81H1046.18L1047.19 6.776V10.752L1045.88 12.194Z" fill="#00252C"/>
<path d="M1023.51 12.194V2.842H1030.86L1032.74 4.69V12.194H1028.55V6.65H1027.66V12.194H1023.51Z" fill="#00252C"/>
<path d="M1014.9 2.842H1022.46V12.194H1019.77L1018.91 11.06L1017.81 12.194H1014.79L1013.01 10.346V4.69L1014.9 2.842ZM1017.06 8.568H1018.4V5.908H1017.06V8.568Z" fill="#00252C"/>
<path d="M1002.74 12.194V2.842H1010.09L1011.97 4.69V12.194H1007.78V6.65H1006.89V12.194H1002.74Z" fill="#00252C"/>
<path d="M1001.63 2.73H997.18V0H1001.63V2.73ZM1001.63 12.194H997.18V3.43H1001.63V12.194Z" fill="#00252C"/>
<path d="M988.556 2.842H996.116V12.194H993.428L992.56 11.06L991.468 12.194H988.444L986.666 10.346V4.69L988.556 2.842ZM990.712 8.568H992.056V5.908H990.712V8.568Z" fill="#00252C"/>
<path d="M986.159 0.49V4.536H983.765V12.124H979.131V4.536H976.737V0.49H986.159Z" fill="#00252C"/>
<path d="M1243.26 6.58H1241.4V8.526H1243.26V12.194H1238.84L1236.96 10.346V6.58H1236V2.982H1236.96V0.882002H1241.4V2.982H1243.26V6.58Z" fill="#00252C"/>
<path d="M1231.08 2.884H1235.26V12.236H1232.51L1231.68 11.116L1230.6 12.236H1227.77L1226.01 10.388V2.884H1230.18V8.484H1231.08V2.884Z" fill="#00252C"/>
<path d="M1217.45 12.264L1215.65 10.416V4.662L1217.45 2.828H1223.16L1224.97 4.662V10.416L1223.16 12.264H1217.45ZM1219.57 8.904H1221.09V6.188H1219.57V8.904Z" fill="#00252C"/>
<path d="M1214.89 2.954V7.28H1212.1V12.194H1207.51V2.842H1211.92V3.878L1213.03 2.954H1214.89Z" fill="#00252C"/>
<path d="M1204.67 2.842L1206.54 4.69V10.346L1204.67 12.194H1201.4V15.232H1197.23V2.842H1204.67ZM1202.51 8.876V6.034H1201.22V8.876H1202.51Z" fill="#00252C"/>
<path d="M1194.88 12.194H1187.72V9.646H1191.71V8.918H1188.65L1187.65 7.952V4.284L1188.95 2.842H1195.93V5.082H1191.93V5.81H1195.18L1196.19 6.776V10.752L1194.88 12.194Z" fill="#00252C"/>
<path d="M1172.51 12.194V2.842H1179.86L1181.74 4.69V12.194H1177.55V6.65H1176.66V12.194H1172.51Z" fill="#00252C"/>
<path d="M1163.9 2.842H1171.46V12.194H1168.77L1167.91 11.06L1166.81 12.194H1163.79L1162.01 10.346V4.69L1163.9 2.842ZM1166.06 8.568H1167.4V5.908H1166.06V8.568Z" fill="#00252C"/>
<path d="M1151.74 12.194V2.842H1159.09L1160.97 4.69V12.194H1156.78V6.65H1155.89V12.194H1151.74Z" fill="#00252C"/>
<path d="M1150.63 2.73H1146.18V0H1150.63V2.73ZM1150.63 12.194H1146.18V3.43H1150.63V12.194Z" fill="#00252C"/>
<path d="M1137.56 2.842H1145.12V12.194H1142.43L1141.56 11.06L1140.47 12.194H1137.44L1135.67 10.346V4.69L1137.56 2.842ZM1139.71 8.568H1141.06V5.908H1139.71V8.568Z" fill="#00252C"/>
<path d="M1135.16 0.49V4.536H1132.77V12.124H1128.13V4.536H1125.74V0.49H1135.16Z" fill="#00252C"/>
<path d="M1309.5 79.232L1309.5 129.232" stroke="#00252C" stroke-width="5"/>
<path d="M1312 81.232V81.232C1284.58 81.232 1262.28 59.1509 1262.01 31.7345L1262 31.232" stroke="#00252C" stroke-width="5"/>
<path d="M16.5 79.232L16.5 131.232" stroke="#00252C" stroke-width="5"/>
<path fill-rule="evenodd" clip-rule="evenodd" d="M71.4166 34.232H1264.5V29.232H66.5V31.7194C66.2328 57.7609 44.5439 79.232 18.5 79.232V84.232C46.4609 84.232 69.8296 61.8907 71.4166 34.232Z" fill="#00252C"/>
<path d="M14 27.232L25.6913 33.982V47.482L14 54.232L2.30866 47.482V33.982L14 27.232Z" fill="#A7403B"/>
<path d="M1312 15.232L1323.69 21.982V35.482L1312 42.232L1300.31 35.482V21.982L1312 15.232Z" fill="#A7403B"/>
</g>
<defs>
<clipPath id="clip0_58_366">
<rect width="1325" height="131.232" fill="white" transform="translate(0.5)"/>
</clipPath>
</defs>
</svg>
