<svg width="1162" height="16" viewBox="0 0 1162 16" fill="none" xmlns="http://www.w3.org/2000/svg">
<g clip-path="url(#clip0_58_368)">
<path d="M118.263 6.81201H116.401V8.75801H118.263V12.426H113.839L111.963 10.578V6.81201H110.997V3.21401H111.963V1.11401H116.401V3.21401H118.263V6.81201Z" fill="#00252C"/>
<path d="M106.078 3.11603H110.264V12.468H107.506L106.68 11.348L105.602 12.468H102.774L101.01 10.62V3.11603H105.182V8.71603H106.078V3.11603Z" fill="#00252C"/>
<path d="M92.4525 12.496L90.6465 10.648V4.894L92.4525 3.06H98.1645L99.9705 4.894V10.648L98.1645 12.496H92.4525ZM94.5665 9.136H96.0925V6.42H94.5665V9.136Z" fill="#00252C"/>
<path d="M89.8887 3.18604V7.51204H87.1027V12.426H82.5107V3.07404H86.9207V4.11003L88.0267 3.18604H89.8887Z" fill="#00252C"/>
<path d="M79.6655 3.07404L81.5415 4.92204V10.578L79.6655 12.426H76.4035V15.464H72.2314V3.07404H79.6655ZM77.5094 9.10804V6.26604H76.2215V9.10804H77.5094Z" fill="#00252C"/>
<path d="M69.8839 12.426H62.7159V9.87804H66.7059V9.15004H63.6539L62.6459 8.18404V4.51604L63.9479 3.07404H70.9339V5.31404H66.9299V6.04204H70.1779L71.1859 7.00804V10.984L69.8839 12.426Z" fill="#00252C"/>
<path d="M47.5117 12.426V3.07404H54.8617L56.7377 4.92204V12.426H52.5517V6.88204H51.6557V12.426H47.5117Z" fill="#00252C"/>
<path d="M38.9017 3.07404H46.4617V12.426H43.7737L42.9057 11.292L41.8137 12.426H38.7897L37.0117 10.578V4.92204L38.9017 3.07404ZM41.0577 8.80004H42.4017V6.14004H41.0577V8.80004Z" fill="#00252C"/>
<path d="M26.7441 12.426V3.07404H34.0941L35.9701 4.92204V12.426H31.7841V6.88204H30.8881V12.426H26.7441Z" fill="#00252C"/>
<path d="M25.6321 2.96199H21.1801V0.231995H25.6321V2.96199ZM25.6321 12.426H21.1801V3.66199H25.6321V12.426Z" fill="#00252C"/>
<path d="M12.556 3.07404H20.116V12.426H17.428L16.56 11.292L15.468 12.426H12.444L10.666 10.578V4.92204L12.556 3.07404ZM14.712 8.80004H16.056V6.14004H14.712V8.80004Z" fill="#00252C"/>
<path d="M10.1593 0.722046V4.76805H7.76531V12.356H3.1313V4.76805H0.737305V0.722046H10.1593Z" fill="#00252C"/>
<path d="M267.263 6.81201H265.401V8.75801H267.263V12.426H262.839L260.963 10.578V6.81201H259.997V3.21401H260.963V1.11401H265.401V3.21401H267.263V6.81201Z" fill="#00252C"/>
<path d="M255.078 3.11603H259.264V12.468H256.506L255.68 11.348L254.602 12.468H251.774L250.01 10.62V3.11603H254.182V8.71603H255.078V3.11603Z" fill="#00252C"/>
<path d="M241.452 12.496L239.646 10.648V4.894L241.452 3.06H247.164L248.97 4.894V10.648L247.164 12.496H241.452ZM243.566 9.136H245.092V6.42H243.566V9.136Z" fill="#00252C"/>
<path d="M238.889 3.18604V7.51204H236.103V12.426H231.511V3.07404H235.921V4.11003L237.027 3.18604H238.889Z" fill="#00252C"/>
<path d="M228.665 3.07404L230.541 4.92204V10.578L228.665 12.426H225.403V15.464H221.231V3.07404H228.665ZM226.509 9.10804V6.26604H225.221V9.10804H226.509Z" fill="#00252C"/>
<path d="M218.884 12.426H211.716V9.87804H215.706V9.15004H212.654L211.646 8.18404V4.51604L212.948 3.07404H219.934V5.31404H215.93V6.04204H219.178L220.186 7.00804V10.984L218.884 12.426Z" fill="#00252C"/>
<path d="M196.512 12.426V3.07404H203.862L205.738 4.92204V12.426H201.552V6.88204H200.656V12.426H196.512Z" fill="#00252C"/>
<path d="M187.902 3.07404H195.462V12.426H192.774L191.906 11.292L190.814 12.426H187.79L186.012 10.578V4.92204L187.902 3.07404ZM190.058 8.80004H191.402V6.14004H190.058V8.80004Z" fill="#00252C"/>
<path d="M175.744 12.426V3.07404H183.094L184.97 4.92204V12.426H180.784V6.88204H179.888V12.426H175.744Z" fill="#00252C"/>
<path d="M174.632 2.96199H170.18V0.231995H174.632V2.96199ZM174.632 12.426H170.18V3.66199H174.632V12.426Z" fill="#00252C"/>
<path d="M161.556 3.07404H169.116V12.426H166.428L165.56 11.292L164.468 12.426H161.444L159.666 10.578V4.92204L161.556 3.07404ZM163.712 8.80004H165.056V6.14004H163.712V8.80004Z" fill="#00252C"/>
<path d="M159.159 0.722046V4.76805H156.765V12.356H152.131V4.76805H149.737V0.722046H159.159Z" fill="#00252C"/>
<path d="M416.263 6.81201H414.401V8.75801H416.263V12.426H411.839L409.963 10.578V6.81201H408.997V3.21401H409.963V1.11401H414.401V3.21401H416.263V6.81201Z" fill="#00252C"/>
<path d="M404.078 3.11603H408.264V12.468H405.506L404.68 11.348L403.602 12.468H400.774L399.01 10.62V3.11603H403.182V8.71603H404.078V3.11603Z" fill="#00252C"/>
<path d="M390.452 12.496L388.646 10.648V4.894L390.452 3.06H396.164L397.97 4.894V10.648L396.164 12.496H390.452ZM392.566 9.136H394.092V6.42H392.566V9.136Z" fill="#00252C"/>
<path d="M387.889 3.18604V7.51204H385.103V12.426H380.511V3.07404H384.921V4.11003L386.027 3.18604H387.889Z" fill="#00252C"/>
<path d="M377.665 3.07404L379.541 4.92204V10.578L377.665 12.426H374.403V15.464H370.231V3.07404H377.665ZM375.509 9.10804V6.26604H374.221V9.10804H375.509Z" fill="#00252C"/>
<path d="M367.884 12.426H360.716V9.87804H364.706V9.15004H361.654L360.646 8.18404V4.51604L361.948 3.07404H368.934V5.31404H364.93V6.04204H368.178L369.186 7.00804V10.984L367.884 12.426Z" fill="#00252C"/>
<path d="M345.512 12.426V3.07404H352.862L354.738 4.92204V12.426H350.552V6.88204H349.656V12.426H345.512Z" fill="#00252C"/>
<path d="M336.902 3.07404H344.462V12.426H341.774L340.906 11.292L339.814 12.426H336.79L335.012 10.578V4.92204L336.902 3.07404ZM339.058 8.80004H340.402V6.14004H339.058V8.80004Z" fill="#00252C"/>
<path d="M324.744 12.426V3.07404H332.094L333.97 4.92204V12.426H329.784V6.88204H328.888V12.426H324.744Z" fill="#00252C"/>
<path d="M323.632 2.96199H319.18V0.231995H323.632V2.96199ZM323.632 12.426H319.18V3.66199H323.632V12.426Z" fill="#00252C"/>
<path d="M310.556 3.07404H318.116V12.426H315.428L314.56 11.292L313.468 12.426H310.444L308.666 10.578V4.92204L310.556 3.07404ZM312.712 8.80004H314.056V6.14004H312.712V8.80004Z" fill="#00252C"/>
<path d="M308.159 0.722046V4.76805H305.765V12.356H301.131V4.76805H298.737V0.722046H308.159Z" fill="#00252C"/>
<path d="M565.263 6.81201H563.401V8.75801H565.263V12.426H560.839L558.963 10.578V6.81201H557.997V3.21401H558.963V1.11401H563.401V3.21401H565.263V6.81201Z" fill="#00252C"/>
<path d="M553.078 3.11603H557.264V12.468H554.506L553.68 11.348L552.602 12.468H549.774L548.01 10.62V3.11603H552.182V8.71603H553.078V3.11603Z" fill="#00252C"/>
<path d="M539.453 12.496L537.647 10.648V4.894L539.453 3.06H545.165L546.971 4.894V10.648L545.165 12.496H539.453ZM541.567 9.136H543.093V6.42H541.567V9.136Z" fill="#00252C"/>
<path d="M536.889 3.18604V7.51204H534.103V12.426H529.511V3.07404H533.921V4.11003L535.027 3.18604H536.889Z" fill="#00252C"/>
<path d="M526.666 3.07404L528.542 4.92204V10.578L526.666 12.426H523.404V15.464H519.232V3.07404H526.666ZM524.51 9.10804V6.26604H523.222V9.10804H524.51Z" fill="#00252C"/>
<path d="M516.884 12.426H509.716V9.87804H513.706V9.15004H510.654L509.646 8.18404V4.51604L510.948 3.07404H517.934V5.31404H513.93V6.04204H517.178L518.186 7.00804V10.984L516.884 12.426Z" fill="#00252C"/>
<path d="M494.512 12.426V3.07404H501.862L503.738 4.92204V12.426H499.552V6.88204H498.656V12.426H494.512Z" fill="#00252C"/>
<path d="M485.902 3.07404H493.462V12.426H490.774L489.906 11.292L488.814 12.426H485.79L484.012 10.578V4.92204L485.902 3.07404ZM488.058 8.80004H489.402V6.14004H488.058V8.80004Z" fill="#00252C"/>
<path d="M473.744 12.426V3.07404H481.094L482.97 4.92204V12.426H478.784V6.88204H477.888V12.426H473.744Z" fill="#00252C"/>
<path d="M472.632 2.96199H468.18V0.231995H472.632V2.96199ZM472.632 12.426H468.18V3.66199H472.632V12.426Z" fill="#00252C"/>
<path d="M459.556 3.07404H467.116V12.426H464.428L463.56 11.292L462.468 12.426H459.444L457.666 10.578V4.92204L459.556 3.07404ZM461.712 8.80004H463.056V6.14004H461.712V8.80004Z" fill="#00252C"/>
<path d="M457.159 0.722046V4.76805H454.765V12.356H450.131V4.76805H447.737V0.722046H457.159Z" fill="#00252C"/>
<path d="M714.263 6.81201H712.401V8.75801H714.263V12.426H709.839L707.963 10.578V6.81201H706.997V3.21401H707.963V1.11401H712.401V3.21401H714.263V6.81201Z" fill="#00252C"/>
<path d="M702.078 3.11603H706.264V12.468H703.506L702.68 11.348L701.602 12.468H698.774L697.01 10.62V3.11603H701.182V8.71603H702.078V3.11603Z" fill="#00252C"/>
<path d="M688.452 12.496L686.646 10.648V4.894L688.452 3.06H694.164L695.97 4.894V10.648L694.164 12.496H688.452ZM690.566 9.136H692.092V6.42H690.566V9.136Z" fill="#00252C"/>
<path d="M685.889 3.18604V7.51204H683.103V12.426H678.511V3.07404H682.921V4.11003L684.027 3.18604H685.889Z" fill="#00252C"/>
<path d="M675.665 3.07404L677.541 4.92204V10.578L675.665 12.426H672.403V15.464H668.231V3.07404H675.665ZM673.509 9.10804V6.26604H672.221V9.10804H673.509Z" fill="#00252C"/>
<path d="M665.884 12.426H658.716V9.87804H662.706V9.15004H659.654L658.646 8.18404V4.51604L659.948 3.07404H666.934V5.31404H662.93V6.04204H666.178L667.186 7.00804V10.984L665.884 12.426Z" fill="#00252C"/>
<path d="M643.512 12.426V3.07404H650.862L652.738 4.92204V12.426H648.552V6.88204H647.656V12.426H643.512Z" fill="#00252C"/>
<path d="M634.902 3.07404H642.462V12.426H639.774L638.906 11.292L637.814 12.426H634.79L633.012 10.578V4.92204L634.902 3.07404ZM637.058 8.80004H638.402V6.14004H637.058V8.80004Z" fill="#00252C"/>
<path d="M622.744 12.426V3.07404H630.094L631.97 4.92204V12.426H627.784V6.88204H626.888V12.426H622.744Z" fill="#00252C"/>
<path d="M621.632 2.96199H617.18V0.231995H621.632V2.96199ZM621.632 12.426H617.18V3.66199H621.632V12.426Z" fill="#00252C"/>
<path d="M608.556 3.07404H616.116V12.426H613.428L612.56 11.292L611.468 12.426H608.444L606.666 10.578V4.92204L608.556 3.07404ZM610.712 8.80004H612.056V6.14004H610.712V8.80004Z" fill="#00252C"/>
<path d="M606.159 0.722046V4.76805H603.765V12.356H599.131V4.76805H596.737V0.722046H606.159Z" fill="#00252C"/>
<path d="M863.263 6.81201H861.401V8.75801H863.263V12.426H858.839L856.963 10.578V6.81201H855.997V3.21401H856.963V1.11401H861.401V3.21401H863.263V6.81201Z" fill="#00252C"/>
<path d="M851.078 3.11603H855.264V12.468H852.506L851.68 11.348L850.602 12.468H847.774L846.01 10.62V3.11603H850.182V8.71603H851.078V3.11603Z" fill="#00252C"/>
<path d="M837.452 12.496L835.646 10.648V4.894L837.452 3.06H843.164L844.97 4.894V10.648L843.164 12.496H837.452ZM839.566 9.136H841.092V6.42H839.566V9.136Z" fill="#00252C"/>
<path d="M834.889 3.18604V7.51204H832.103V12.426H827.511V3.07404H831.921V4.11003L833.027 3.18604H834.889Z" fill="#00252C"/>
<path d="M824.665 3.07404L826.541 4.92204V10.578L824.665 12.426H821.403V15.464H817.231V3.07404H824.665ZM822.509 9.10804V6.26604H821.221V9.10804H822.509Z" fill="#00252C"/>
<path d="M814.884 12.426H807.716V9.87804H811.706V9.15004H808.654L807.646 8.18404V4.51604L808.948 3.07404H815.934V5.31404H811.93V6.04204H815.178L816.186 7.00804V10.984L814.884 12.426Z" fill="#00252C"/>
<path d="M792.512 12.426V3.07404H799.862L801.738 4.92204V12.426H797.552V6.88204H796.656V12.426H792.512Z" fill="#00252C"/>
<path d="M783.902 3.07404H791.462V12.426H788.774L787.906 11.292L786.814 12.426H783.79L782.012 10.578V4.92204L783.902 3.07404ZM786.058 8.80004H787.402V6.14004H786.058V8.80004Z" fill="#00252C"/>
<path d="M771.744 12.426V3.07404H779.094L780.97 4.92204V12.426H776.784V6.88204H775.888V12.426H771.744Z" fill="#00252C"/>
<path d="M770.632 2.96199H766.18V0.231995H770.632V2.96199ZM770.632 12.426H766.18V3.66199H770.632V12.426Z" fill="#00252C"/>
<path d="M757.556 3.07404H765.116V12.426H762.428L761.56 11.292L760.468 12.426H757.444L755.666 10.578V4.92204L757.556 3.07404ZM759.712 8.80004H761.056V6.14004H759.712V8.80004Z" fill="#00252C"/>
<path d="M755.159 0.722046V4.76805H752.765V12.356H748.131V4.76805H745.737V0.722046H755.159Z" fill="#00252C"/>
<path d="M1012.26 6.81201H1010.4V8.75801H1012.26V12.426H1007.84L1005.96 10.578V6.81201H1005V3.21401H1005.96V1.11401H1010.4V3.21401H1012.26V6.81201Z" fill="#00252C"/>
<path d="M1000.08 3.11603H1004.26V12.468H1001.51L1000.68 11.348L999.602 12.468H996.774L995.01 10.62V3.11603H999.182V8.71603H1000.08V3.11603Z" fill="#00252C"/>
<path d="M986.452 12.496L984.646 10.648V4.894L986.452 3.06H992.164L993.97 4.894V10.648L992.164 12.496H986.452ZM988.566 9.136H990.092V6.42H988.566V9.136Z" fill="#00252C"/>
<path d="M983.889 3.18604V7.51204H981.103V12.426H976.511V3.07404H980.921V4.11003L982.027 3.18604H983.889Z" fill="#00252C"/>
<path d="M973.665 3.07404L975.541 4.92204V10.578L973.665 12.426H970.403V15.464H966.231V3.07404H973.665ZM971.509 9.10804V6.26604H970.221V9.10804H971.509Z" fill="#00252C"/>
<path d="M963.884 12.426H956.716V9.87804H960.706V9.15004H957.654L956.646 8.18404V4.51604L957.948 3.07404H964.934V5.31404H960.93V6.04204H964.178L965.186 7.00804V10.984L963.884 12.426Z" fill="#00252C"/>
<path d="M941.512 12.426V3.07404H948.862L950.738 4.92204V12.426H946.552V6.88204H945.656V12.426H941.512Z" fill="#00252C"/>
<path d="M932.902 3.07404H940.462V12.426H937.774L936.906 11.292L935.814 12.426H932.79L931.012 10.578V4.92204L932.902 3.07404ZM935.058 8.80004H936.402V6.14004H935.058V8.80004Z" fill="#00252C"/>
<path d="M920.744 12.426V3.07404H928.094L929.97 4.92204V12.426H925.784V6.88204H924.888V12.426H920.744Z" fill="#00252C"/>
<path d="M919.632 2.96199H915.18V0.231995H919.632V2.96199ZM919.632 12.426H915.18V3.66199H919.632V12.426Z" fill="#00252C"/>
<path d="M906.556 3.07404H914.116V12.426H911.428L910.56 11.292L909.468 12.426H906.444L904.666 10.578V4.92204L906.556 3.07404ZM908.712 8.80004H910.056V6.14004H908.712V8.80004Z" fill="#00252C"/>
<path d="M904.159 0.722046V4.76805H901.765V12.356H897.131V4.76805H894.737V0.722046H904.159Z" fill="#00252C"/>
<path d="M1161.26 6.81201H1159.4V8.75801H1161.26V12.426H1156.84L1154.96 10.578V6.81201H1154V3.21401H1154.96V1.11401H1159.4V3.21401H1161.26V6.81201Z" fill="#00252C"/>
<path d="M1149.08 3.11603H1153.26V12.468H1150.51L1149.68 11.348L1148.6 12.468H1145.77L1144.01 10.62V3.11603H1148.18V8.71603H1149.08V3.11603Z" fill="#00252C"/>
<path d="M1135.45 12.496L1133.65 10.648V4.894L1135.45 3.06H1141.16L1142.97 4.894V10.648L1141.16 12.496H1135.45ZM1137.57 9.136H1139.09V6.42H1137.57V9.136Z" fill="#00252C"/>
<path d="M1132.89 3.18604V7.51204H1130.1V12.426H1125.51V3.07404H1129.92V4.11003L1131.03 3.18604H1132.89Z" fill="#00252C"/>
<path d="M1122.67 3.07404L1124.54 4.92204V10.578L1122.67 12.426H1119.4V15.464H1115.23V3.07404H1122.67ZM1120.51 9.10804V6.26604H1119.22V9.10804H1120.51Z" fill="#00252C"/>
<path d="M1112.88 12.426H1105.72V9.87804H1109.71V9.15004H1106.65L1105.65 8.18404V4.51604L1106.95 3.07404H1113.93V5.31404H1109.93V6.04204H1113.18L1114.19 7.00804V10.984L1112.88 12.426Z" fill="#00252C"/>
<path d="M1090.51 12.426V3.07404H1097.86L1099.74 4.92204V12.426H1095.55V6.88204H1094.66V12.426H1090.51Z" fill="#00252C"/>
<path d="M1081.9 3.07404H1089.46V12.426H1086.77L1085.91 11.292L1084.81 12.426H1081.79L1080.01 10.578V4.92204L1081.9 3.07404ZM1084.06 8.80004H1085.4V6.14004H1084.06V8.80004Z" fill="#00252C"/>
<path d="M1069.74 12.426V3.07404H1077.09L1078.97 4.92204V12.426H1074.78V6.88204H1073.89V12.426H1069.74Z" fill="#00252C"/>
<path d="M1068.63 2.96199H1064.18V0.231995H1068.63V2.96199ZM1068.63 12.426H1064.18V3.66199H1068.63V12.426Z" fill="#00252C"/>
<path d="M1055.56 3.07404H1063.12V12.426H1060.43L1059.56 11.292L1058.47 12.426H1055.44L1053.67 10.578V4.92204L1055.56 3.07404ZM1057.71 8.80004H1059.06V6.14004H1057.71V8.80004Z" fill="#00252C"/>
<path d="M1053.16 0.722046V4.76805H1050.77V12.356H1046.13V4.76805H1043.74V0.722046H1053.16Z" fill="#00252C"/>
</g>
<defs>
<clipPath id="clip0_58_368">
<rect width="1160.53" height="15.232" fill="white" transform="translate(0.737305 0.231995)"/>
</clipPath>
</defs>
</svg>
