<svg width="67" height="61" viewBox="0 0 67 61" fill="none" xmlns="http://www.w3.org/2000/svg">
<g clip-path="url(#clip0_58_378)">
<path d="M65.9785 29.4483L58.9802 22.4234C58.3858 21.8267 57.5341 21.6491 56.7848 21.8822L56.0189 21.1134C55.6456 20.7387 55.5737 20.1781 55.8447 19.7201C57.0364 17.7107 57.6641 15.407 57.6641 13.0561C57.6641 5.85623 51.8299 0 44.6575 0C37.4849 0 31.6509 5.85637 31.6509 13.0561C31.6509 16.9696 33.3735 20.4833 36.0998 22.8785L30.4288 29.4454L22.3304 23.9222C21.9406 23.6557 21.4124 23.7251 21.1055 24.0831L1.86637 46.362L1.86361 2.65837C1.86361 2.14212 1.44609 1.72302 0.931802 1.72302C0.417513 1.72302 0 2.14212 0 2.65837V60.0647C0 60.5809 0.417513 61 0.931802 61H58.1204C58.6347 61 59.0522 60.5809 59.0522 60.0647C59.0522 59.5484 58.6347 59.1293 58.1204 59.1293L1.86332 59.1321V49.218L21.9674 25.9366L30.0658 31.4626C30.4557 31.7291 30.9838 31.6597 31.2908 31.3016L37.5839 24.013C39.6217 25.3425 42.0494 26.1168 44.654 26.1168C46.996 26.1168 49.291 25.484 51.2928 24.2905C51.749 24.0185 52.3048 24.0879 52.6808 24.4654L53.4439 25.2314C53.3776 25.4423 53.3444 25.6616 53.3444 25.8864C53.3444 26.4721 53.5711 27.0244 53.9831 27.4352L60.9813 34.46C61.6698 35.1511 62.5712 35.4953 63.4753 35.4953C64.3795 35.4953 65.2837 35.1511 65.9693 34.46C67.3435 33.0806 67.3435 30.8324 65.9693 29.4502L65.9785 29.4483ZM50.3479 22.6788C48.6336 23.703 46.6677 24.2442 44.6603 24.2442C42.5202 24.2442 40.521 23.6336 38.8233 22.5817L39.9376 21.2911C41.3284 22.0987 42.9404 22.5623 44.6603 22.5623C49.8806 22.5623 54.1305 18.2991 54.1305 13.056C54.1305 7.81306 49.8834 3.54978 44.6603 3.54978C39.4372 3.54978 35.19 7.81299 35.19 13.056C35.19 15.8982 36.4426 18.4517 38.4168 20.1948L37.3191 21.4632C34.9882 19.4121 33.5117 16.4034 33.5117 13.0533C33.5117 6.88333 38.5108 1.86524 44.6574 1.86524C50.8039 1.86524 55.803 6.8834 55.803 13.0533C55.803 15.0683 55.2638 17.0418 54.2436 18.7626C53.5302 19.9672 53.7127 21.441 54.6998 22.4319L55.2888 23.0231L54.5892 23.7253L54.0003 23.1341C53.0132 22.1433 51.5449 21.9601 50.3449 22.6761L50.3479 22.6788ZM45.8631 17.1749C45.8907 17.1777 45.9156 17.1777 45.9433 17.1777C46.4216 17.1777 46.8281 16.8086 46.8696 16.3229L47.182 12.6259C47.2069 12.3233 47.0852 12.0264 46.853 11.8321C46.6207 11.6378 46.3083 11.5684 46.0152 11.6461L42.3875 12.6203C41.8926 12.7535 41.5967 13.267 41.7294 13.7639C41.8621 14.2607 42.3737 14.5577 42.8686 14.4244L43.5626 14.2385L39.6363 18.7875C38.0519 17.3859 37.0511 15.3375 37.0511 13.0588C37.0511 8.84835 40.4631 5.42343 44.6575 5.42343C48.852 5.42343 52.264 8.84842 52.264 13.0588C52.264 17.2693 48.852 20.6943 44.6575 20.6943C43.405 20.6943 42.2243 20.3862 41.1819 19.8477L45.0833 15.3291L45.0114 16.1674C44.9672 16.6808 45.3487 17.1333 45.8602 17.1777L45.8631 17.1749ZM64.6627 33.1371C64.0129 33.7894 62.9566 33.7894 62.3069 33.1371L55.3087 26.1123C55.2285 26.0318 55.2147 25.9346 55.2147 25.8847C55.2147 25.8347 55.2257 25.7376 55.3087 25.6571L57.211 23.7475C57.2718 23.6865 57.3548 23.6532 57.4377 23.6532C57.5207 23.6532 57.6036 23.6837 57.6644 23.7475L64.6627 30.7724C65.3124 31.4246 65.3124 32.4849 64.6627 33.1371ZM8.62993 46.471C8.11564 46.471 7.69813 46.8901 7.69813 47.4064V56.1296C7.69813 56.6459 8.11564 57.065 8.62993 57.065H15.7522C16.2665 57.065 16.684 56.6459 16.684 56.1296V47.4064C16.684 46.8901 16.2665 46.471 15.7522 46.471H8.62993ZM14.8208 55.1943H9.56173V48.3387H14.8208V55.1943ZM6.67494 11.399H12.5091C13.0234 11.399 13.4409 10.9799 13.4409 10.4636V4.60727C13.4409 4.09102 13.0234 3.67192 12.5091 3.67192H6.67494C6.16065 3.67192 5.74314 4.09102 5.74314 4.60727V10.4636C5.74314 10.9799 6.16065 11.399 6.67494 11.399ZM7.60674 5.54262H11.5801V9.53107H7.60674V5.54262ZM6.67494 20.8916H12.5091C13.0234 20.8916 13.4409 20.4725 13.4409 19.9563V14.0999C13.4409 13.5836 13.0234 13.1645 12.5091 13.1645H6.67494C6.16065 13.1645 5.74314 13.5836 5.74314 14.0999V19.9563C5.74314 20.4725 6.16065 20.8916 6.67494 20.8916ZM7.60674 15.0352H11.5801V19.0237H7.60674V15.0352ZM16.0152 9.43699C16.0152 8.92074 16.4327 8.50164 16.947 8.50164H27.5674C28.0817 8.50164 28.4992 8.92074 28.4992 9.43699C28.4992 9.95324 28.0817 10.3723 27.5674 10.3723H16.947C16.4327 10.3723 16.0152 9.95324 16.0152 9.43699ZM16.0152 5.64287C16.0152 5.12663 16.4327 4.70752 16.947 4.70752H27.5674C28.0817 4.70752 28.4992 5.12663 28.4992 5.64287C28.4992 6.15912 28.0817 6.57822 27.5674 6.57822H16.947C16.4327 6.57822 16.0152 6.15912 16.0152 5.64287ZM16.0152 15.1321C16.0152 14.6158 16.4327 14.1967 16.947 14.1967H27.5674C28.0817 14.1967 28.4992 14.6158 28.4992 15.1321C28.4992 15.6483 28.0817 16.0674 27.5674 16.0674H16.947C16.4327 16.0674 16.0152 15.6483 16.0152 15.1321ZM16.0152 18.9262C16.0152 18.4099 16.4327 17.9908 16.947 17.9908H27.5674C28.0817 17.9908 28.4992 18.4099 28.4992 18.9262C28.4992 19.4424 28.0817 19.8615 27.5674 19.8615H16.947C16.4327 19.8615 16.0152 19.4424 16.0152 18.9262ZM20.0051 33.3891C19.4908 33.3891 19.0733 33.8082 19.0733 34.3245V56.1315C19.0733 56.6478 19.4908 57.0669 20.0051 57.0669H27.1274C27.6417 57.0669 28.0592 56.6478 28.0592 56.1315V34.3245C28.0592 33.8082 27.6417 33.3891 27.1274 33.3891H20.0051ZM26.1959 55.1962H20.9369V35.2571H26.1959V55.1962ZM31.3803 37.9266C30.866 37.9266 30.4485 38.3457 30.4485 38.862V56.1315C30.4485 56.6478 30.866 57.0669 31.3803 57.0669H38.5026C39.0169 57.0669 39.4344 56.6478 39.4344 56.1315V38.862C39.4344 38.3457 39.0169 37.9266 38.5026 37.9266H31.3803ZM37.5712 55.1962H32.3121V39.7946H37.5712V55.1962ZM42.7555 28.3848C42.2412 28.3848 41.8237 28.8039 41.8237 29.3202V56.1315C41.8237 56.6478 42.2412 57.0669 42.7555 57.0669H49.8778C50.3921 57.0669 50.8096 56.6478 50.8096 56.1315V29.3202C50.8096 28.8039 50.3921 28.3848 49.8778 28.3848H42.7555ZM48.9464 55.1962H43.6873V30.2528H48.9464V55.1962Z" fill="white"/>
</g>
<defs>
<clipPath id="clip0_58_378">
<rect width="67" height="61" fill="white"/>
</clipPath>
</defs>
</svg>
