<svg width="60" height="60" viewBox="0 0 60 60" fill="none" xmlns="http://www.w3.org/2000/svg">
<g clip-path="url(#clip0_58_379)">
<path d="M34.2927 39.2931L32.2927 41.2931C31.9023 41.6836 31.9023 42.3167 32.2927 42.7072C32.6832 43.0976 33.3163 43.0976 33.7068 42.7072L33.9998 42.4143V49.0002H32.9998C32.4475 49.0002 31.9998 49.4479 31.9998 50.0002C31.9998 50.5524 32.4475 51.0002 32.9998 51.0002H36.9998C37.552 51.0002 37.9998 50.5524 37.9998 50.0002C37.9998 49.4479 37.552 49.0002 36.9998 49.0002H35.9998V40.0002C35.9642 39.0938 34.9443 38.6733 34.2927 39.2931Z" fill="white"/>
<path d="M30.9998 0.000149965C27.6936 0.000149965 25.0007 2.69325 25.0007 5.99965V18.9987H11.0027C7.69652 18.9987 5.00362 21.6917 5.00362 24.9981V33.9974C5.00362 34.4998 4.88653 34.9953 4.66187 35.4446L0.109867 44.5494C-0.319963 45.409 0.591927 46.321 1.45147 45.8911L10.5556 41.3387C11.0049 41.1141 11.5003 40.997 12.0027 40.997H23.0007V48.9964C23.0007 52.3028 25.6936 54.9959 28.9998 54.9959H39.9978C40.5914 54.9959 41.0701 55.0843 41.3081 55.2556C41.3514 55.2866 50.5489 59.89 50.5489 59.89C51.4084 60.3199 52.3203 59.4079 51.8905 58.5483L47.3385 49.4435C47.1138 48.9942 46.9967 48.4987 46.9967 47.9963V40.9968C46.9967 37.6904 44.3038 34.9973 40.9976 34.9973H32.9988V25.998H47.9968C48.4992 25.998 48.9946 26.1151 49.4439 26.3398L58.548 30.8922C59.4076 31.3221 60.3194 30.4101 59.8896 29.5505L55.3376 20.4457C55.113 19.9964 54.9959 19.5009 54.9959 18.9985V5.9995C54.9959 2.6931 52.303 0 48.9968 0L30.9998 0.000149965ZM48.9968 1.99995C51.2298 1.99995 52.9962 3.76655 52.9962 5.99965V19.9987C52.9962 22.2077 51.2056 23.9984 48.9968 23.9984C42.9977 23.9984 36.9988 23.9984 30.9998 23.9984C28.7668 23.9984 27.0004 22.2318 27.0004 19.9987V5.99967C27.0004 3.76657 28.7668 1.99997 30.9998 1.99997L48.9968 1.99995ZM25.0928 20.999C25.5715 23.8308 28.0352 25.9986 31.0001 25.9986V34.9978C31.0001 37.2309 29.2337 38.9975 27.0007 38.9975H11.0027C8.79392 38.9975 7.00342 37.2068 7.00342 34.9978C7.00347 31.6647 7.00344 28.3316 7.00344 24.9986C7.00344 22.7654 8.76984 20.9988 11.0028 20.9988L25.0928 20.999ZM40.9978 36.9979C43.2308 36.9979 44.9972 38.7645 44.9972 40.9977C44.9971 43.6642 44.9972 46.3305 44.9973 48.997C44.9975 51.206 43.207 52.9967 40.9982 52.9967C36.9986 52.9967 32.9991 52.9967 28.9992 52.9967C26.7662 52.9967 24.9998 51.2301 24.9998 48.997V40.9976H26.9995C29.6038 40.9976 31.8222 39.3234 32.6491 36.9979H40.9978Z" fill="white"/>
<path fill-rule="evenodd" clip-rule="evenodd" d="M39.9998 4.00012C37.2502 4.00012 34.9998 6.25052 34.9998 9.00012C34.9998 9.5524 35.4475 10.0001 35.9998 10.0001C36.552 10.0001 36.9998 9.5524 36.9998 9.00012C36.9998 7.33142 38.3311 6.00012 39.9998 6.00012C41.6685 6.00012 42.9998 7.33142 42.9998 9.00012C42.9998 10.6688 41.6685 12.0001 39.9998 12.0001C39.7345 12.0001 39.4802 12.1055 39.2926 12.293C39.1051 12.4806 38.9998 12.7349 38.9998 13.0001C38.9998 13.2653 39.1051 13.5197 39.2926 13.7072C39.4802 13.8948 39.7345 14.0001 39.9998 14.0001C41.6685 14.0001 42.9998 15.3314 42.9998 17.0001C42.9998 18.6688 41.6685 20.0001 39.9998 20.0001C38.3311 20.0001 36.9998 18.6688 36.9998 17.0001C36.9998 16.7349 36.8944 16.4806 36.7069 16.293C36.5193 16.1055 36.265 16.0001 35.9998 16.0001C35.7345 16.0001 35.4802 16.1055 35.2926 16.293C35.1051 16.4806 34.9998 16.7349 34.9998 17.0001C34.9998 19.7497 37.2502 22.0001 39.9998 22.0001C42.7494 22.0001 44.9998 19.7497 44.9998 17.0001C44.9998 15.37 44.2089 13.9144 42.992 13.0001C44.209 12.0858 44.9998 10.6302 44.9998 9.00012C44.9998 6.25052 42.7494 4.00012 39.9998 4.00012Z" fill="white"/>
<path fill-rule="evenodd" clip-rule="evenodd" d="M13.9997 28.0001C13.9997 28.5524 14.4474 29.0001 14.9997 29.0001C15.552 29.0001 15.9997 28.5524 15.9997 28.0001C15.9997 26.3314 17.331 25.0001 18.9997 25.0001C20.6684 25.0001 21.9997 26.3314 21.9997 28.0001C21.9997 29.5001 20.7767 31.0461 19.1325 32.338C17.4883 33.6298 15.5524 34.6056 14.5524 35.1056C13.6088 35.5777 13.9446 36.9999 14.9997 37.0001H22.9997C23.5519 37.0001 23.9997 36.5524 23.9997 36.0001C23.9997 35.4478 23.5519 35.0001 22.9997 35.0001H18.572C19.2428 34.5879 19.6899 34.4442 20.3669 33.9122C22.2227 32.454 23.9997 30.5001 23.9997 28.0001C23.9997 25.2505 21.7493 23.0001 18.9997 23.0001C16.2501 23.0001 13.9997 25.2505 13.9997 28.0001Z" fill="white"/>
</g>
<defs>
<clipPath id="clip0_58_379">
<rect width="59.9995" height="59.9999" fill="white"/>
</clipPath>
</defs>
</svg>
