<svg width="64" height="374" viewBox="0 0 64 374" fill="none" xmlns="http://www.w3.org/2000/svg">
<g clip-path="url(#clip0_59_387)">
<path fill-rule="evenodd" clip-rule="evenodd" d="M32.3606 8L37.3606 8L61.6106 8V13L36.9071 13C34.7476 24.7564 25.1116 33.897 13.1106 35.31L13.1106 340.588C25.3115 341.574 35.2142 350.685 37.4073 362.5H63.3894V367.5H37.8606L37.8606 367.505L35.3606 367.5H34.3653V367.498L32.8606 367.495C32.8858 355.355 23.0514 345.5 10.9114 345.5H8.11448L8.11448 343H8.1106L8.11061 33H8.12012V30.5H9.86058C22.287 30.5 32.3606 20.4264 32.3606 8Z" fill="#E1CEA1"/>
<path d="M8.1106 0L14.6058 3.75V11.25L8.1106 15L1.61541 11.25V3.75L8.1106 0Z" fill="#E1CEA1"/>
<path d="M8.1106 359L14.6058 362.75V370.25L8.1106 374L1.61541 370.25V362.75L8.1106 359Z" fill="#E1CEA1"/>
</g>
<defs>
<clipPath id="clip0_59_387">
<rect width="62.7788" height="374" fill="white" transform="translate(0.610596)"/>
</clipPath>
</defs>
</svg>
