<svg width="63" height="374" viewBox="0 0 63 374" fill="none" xmlns="http://www.w3.org/2000/svg">
<g clip-path="url(#clip0_59_388)">
<path fill-rule="evenodd" clip-rule="evenodd" d="M1.99991 13L26.4089 13C27.626 25.408 37.8065 35.186 50.3892 35.7728L50.3893 340.58C38.1897 341.516 28.2692 350.593 26.052 362.389L0.389303 362.389L0.389326 367.389L29.0005 367.389V367.386H30.5884C30.5884 355.299 40.3873 345.5 52.4749 345.5H55.3904V340.5H55.3893L55.3892 30.8046H51.5878V30.8007C40.5427 30.8007 31.5578 21.9801 31.293 10.9987L31.293 8.00001L1.99991 8V13Z" fill="#E1CEA1"/>
<path d="M54.8894 0L61.3846 3.75V11.25L54.8894 15L48.3942 11.25V3.75L54.8894 0Z" fill="#E1CEA1"/>
<path d="M54.8894 359L61.3846 362.75V370.25L54.8894 374L48.3942 370.25V362.75L54.8894 359Z" fill="#E1CEA1"/>
</g>
<defs>
<clipPath id="clip0_59_388">
<rect width="62" height="374" fill="white" transform="translate(0.389404)"/>
</clipPath>
</defs>
</svg>
