<svg width="266" height="23" viewBox="0 0 266 23" fill="none" xmlns="http://www.w3.org/2000/svg">
<g clip-path="url(#clip0_88_19)">
<path d="M7.5 7.782L13.9952 11.532V19.032L7.5 22.782L1.00481 19.032V11.532L7.5 7.782Z" fill="#A7403B"/>
<path d="M258.5 7.782L264.995 11.532V19.032L258.5 22.782L252.005 19.032V11.532L258.5 7.782Z" fill="#A7403B"/>
<path d="M89.9587 3.29H89.0277V4.263H89.9587V6.097H87.7467L86.8087 5.173V3.29H86.3257V1.491H86.8087V0.441H89.0277V1.491H89.9587V3.29Z" fill="black"/>
<path d="M83.8663 1.442H85.9593V6.118H84.5803L84.1673 5.558L83.6283 6.118H82.2143L81.3323 5.194V1.442H83.4183V4.242H83.8663V1.442Z" fill="black"/>
<path d="M77.0536 6.132L76.1506 5.208V2.331L77.0536 1.414H79.9096L80.8126 2.331V5.208L79.9096 6.132H77.0536ZM78.1106 4.452H78.8736V3.094H78.1106V4.452Z" fill="black"/>
<path d="M75.7718 1.477V3.64H74.3788V6.097H72.0828V1.421H74.2878V1.939L74.8408 1.477H75.7718Z" fill="black"/>
<path d="M70.6601 1.421L71.5981 2.345V5.173L70.6601 6.097H69.0291V7.616H66.9431V1.421H70.6601ZM69.5821 4.438V3.017H68.9381V4.438H69.5821Z" fill="black"/>
<path d="M65.7694 6.097H62.1854V4.823H64.1804V4.459H62.6544L62.1504 3.976V2.142L62.8014 1.421H66.2944V2.541H64.2924V2.905H65.9164L66.4204 3.388V5.376L65.7694 6.097Z" fill="black"/>
<path d="M54.5833 6.097V1.421H58.2583L59.1963 2.345V6.097H57.1033V3.325H56.6553V6.097H54.5833Z" fill="black"/>
<path d="M50.2783 1.421H54.0583V6.097H52.7143L52.2803 5.53L51.7343 6.097H50.2223L49.3333 5.173V2.345L50.2783 1.421ZM51.3563 4.284H52.0283V2.954H51.3563V4.284Z" fill="black"/>
<path d="M44.1995 6.097V1.421H47.8745L48.8125 2.345V6.097H46.7195V3.325H46.2715V6.097H44.1995Z" fill="black"/>
<path d="M43.6435 1.365H41.4175V0H43.6435V1.365ZM43.6435 6.097H41.4175V1.715H43.6435V6.097Z" fill="black"/>
<path d="M37.1054 1.421H40.8854V6.097H39.5414L39.1074 5.53L38.5614 6.097H37.0494L36.1604 5.173V2.345L37.1054 1.421ZM38.1834 4.284H38.8554V2.954H38.1834V4.284Z" fill="black"/>
<path d="M35.907 0.244999V2.268H34.71V6.062H32.393V2.268H31.196V0.244999H35.907Z" fill="black"/>
<path d="M161.959 3.29H161.028V4.263H161.959V6.097H159.747L158.809 5.173V3.29H158.326V1.491H158.809V0.441H161.028V1.491H161.959V3.29Z" fill="black"/>
<path d="M155.866 1.442H157.959V6.118H156.58L156.167 5.558L155.628 6.118H154.214L153.332 5.194V1.442H155.418V4.242H155.866V1.442Z" fill="black"/>
<path d="M149.054 6.132L148.151 5.208V2.331L149.054 1.414H151.91L152.813 2.331V5.208L151.91 6.132H149.054ZM150.111 4.452H150.874V3.094H150.111V4.452Z" fill="black"/>
<path d="M147.772 1.477V3.64H146.379V6.097H144.083V1.421H146.288V1.939L146.841 1.477H147.772Z" fill="black"/>
<path d="M142.66 1.421L143.598 2.345V5.173L142.66 6.097H141.029V7.616H138.943V1.421H142.66ZM141.582 4.438V3.017H140.938V4.438H141.582Z" fill="black"/>
<path d="M137.769 6.097H134.185V4.823H136.18V4.459H134.654L134.15 3.976V2.142L134.801 1.421H138.294V2.541H136.292V2.905H137.916L138.42 3.388V5.376L137.769 6.097Z" fill="black"/>
<path d="M126.583 6.097V1.421H130.258L131.196 2.345V6.097H129.103V3.325H128.655V6.097H126.583Z" fill="black"/>
<path d="M122.278 1.421H126.058V6.097H124.714L124.28 5.53L123.734 6.097H122.222L121.333 5.173V2.345L122.278 1.421ZM123.356 4.284H124.028V2.954H123.356V4.284Z" fill="black"/>
<path d="M116.199 6.097V1.421H119.874L120.812 2.345V6.097H118.719V3.325H118.271V6.097H116.199Z" fill="black"/>
<path d="M115.643 1.365H113.417V0H115.643V1.365ZM115.643 6.097H113.417V1.715H115.643V6.097Z" fill="black"/>
<path d="M109.105 1.421H112.885V6.097H111.541L111.107 5.53L110.561 6.097H109.049L108.16 5.173V2.345L109.105 1.421ZM110.183 4.284H110.855V2.954H110.183V4.284Z" fill="black"/>
<path d="M107.907 0.244999V2.268H106.71V6.062H104.393V2.268H103.196V0.244999H107.907Z" fill="black"/>
<path d="M230.959 3.29H230.028V4.263H230.959V6.097H228.747L227.809 5.173V3.29H227.326V1.491H227.809V0.441H230.028V1.491H230.959V3.29Z" fill="black"/>
<path d="M224.866 1.442H226.959V6.118H225.58L225.167 5.558L224.628 6.118H223.214L222.332 5.194V1.442H224.418V4.242H224.866V1.442Z" fill="black"/>
<path d="M218.054 6.132L217.151 5.208V2.331L218.054 1.414H220.91L221.813 2.331V5.208L220.91 6.132H218.054ZM219.111 4.452H219.874V3.094H219.111V4.452Z" fill="black"/>
<path d="M216.772 1.477V3.64H215.379V6.097H213.083V1.421H215.288V1.939L215.841 1.477H216.772Z" fill="black"/>
<path d="M211.66 1.421L212.598 2.345V5.173L211.66 6.097H210.029V7.616H207.943V1.421H211.66ZM210.582 4.438V3.017H209.938V4.438H210.582Z" fill="black"/>
<path d="M206.769 6.097H203.185V4.823H205.18V4.459H203.654L203.15 3.976V2.142L203.801 1.421H207.294V2.541H205.292V2.905H206.916L207.42 3.388V5.376L206.769 6.097Z" fill="black"/>
<path d="M195.583 6.097V1.421H199.258L200.196 2.345V6.097H198.103V3.325H197.655V6.097H195.583Z" fill="black"/>
<path d="M191.278 1.421H195.058V6.097H193.714L193.28 5.53L192.734 6.097H191.222L190.333 5.173V2.345L191.278 1.421ZM192.356 4.284H193.028V2.954H192.356V4.284Z" fill="black"/>
<path d="M185.199 6.097V1.421H188.874L189.812 2.345V6.097H187.719V3.325H187.271V6.097H185.199Z" fill="black"/>
<path d="M184.643 1.365H182.417V0H184.643V1.365ZM184.643 6.097H182.417V1.715H184.643V6.097Z" fill="black"/>
<path d="M178.105 1.421H181.885V6.097H180.541L180.107 5.53L179.561 6.097H178.049L177.16 5.173V2.345L178.105 1.421ZM179.183 4.284H179.855V2.954H179.183V4.284Z" fill="black"/>
<path d="M176.907 0.244999V2.268H175.71V6.062H173.393V2.268H172.196V0.244999H176.907Z" fill="black"/>
</g>
<defs>
<clipPath id="clip0_88_19">
<rect width="266" height="22.782" fill="white"/>
</clipPath>
</defs>
</svg>
