<svg width="71" height="62" viewBox="0 0 71 62" fill="none" xmlns="http://www.w3.org/2000/svg">
<g clip-path="url(#clip0_58_381)">
<path d="M70.4932 15.1025C70.4806 15.0585 70.4932 4.37469 70.4869 4.32715C70.4869 1.94175 68.5452 0 66.1597 0H4.32715C1.94174 0 0 1.94175 0 4.32715V51.5922C0 53.9776 1.94174 55.9194 4.32715 55.9194H12.8113C13.8372 55.9194 14.6649 55.0886 14.6649 54.0658C14.6649 53.043 13.8341 52.2122 12.8113 52.2122H4.32715C3.98727 52.2122 3.71034 51.9352 3.71034 51.5954V16.9627H66.7796V51.5954C66.7796 51.9352 66.5026 52.2122 66.1628 52.2122H57.6786C56.6559 52.2122 55.825 53.0429 55.825 54.0658C55.825 55.0885 56.6558 55.9194 57.6786 55.9194H66.1628C68.5482 55.9194 70.4899 53.9776 70.4899 51.5922C70.4994 51.5482 70.4773 15.1436 70.4962 15.1025H70.4932ZM3.70996 13.2489V4.32731C3.70996 3.98743 3.9869 3.7105 4.32678 3.7105H66.1594C66.4993 3.7105 66.7762 3.98744 66.7762 4.32731V13.2489L3.71016 13.2458L3.70996 13.2489Z" fill="white"/>
<path d="M11.3104 6.52319C8.87148 6.5641 8.87148 10.1926 11.3104 10.2336C13.7493 10.1926 13.7493 6.56412 11.3104 6.52319Z" fill="white"/>
<path d="M18.9486 6.52319C16.5097 6.5641 16.5097 10.1926 18.9486 10.2336C21.3875 10.1926 21.3875 6.56412 18.9486 6.52319Z" fill="white"/>
<path d="M59.8056 6.52319H40.14C37.7074 6.5641 37.698 10.1926 40.14 10.2336H59.8056C62.2382 10.1926 62.2476 6.56412 59.8056 6.52319Z" fill="white"/>
<path d="M42.6077 30.4411C41.8618 29.7393 40.688 29.7708 39.9831 30.5166L37.4843 33.1633C36.7699 32.9273 36.0209 32.792 35.2437 32.792C34.4632 32.792 33.7142 32.9273 32.9967 33.1633L30.5074 30.5166C29.8056 29.7708 28.6318 29.733 27.8859 30.438C27.1401 31.1397 27.1055 32.3136 27.8073 33.0626L29.8057 35.1836C28.7702 36.2379 27.9615 37.588 27.4706 39.1174L25.8656 38.252C24.9624 37.7642 23.8389 38.1009 23.3511 39.0041C22.8665 39.9042 23.2001 41.0308 24.1033 41.5186L26.9576 43.0607C27.0143 44.2628 27.2535 45.4084 27.6531 46.4595L25.4565 47.9103C23.4455 49.2855 25.447 52.3193 27.5021 51.007L29.5917 49.6255C32.509 53.0683 37.9848 53.0683 40.9021 49.6255C41.5252 49.959 43.2403 51.4256 44.0145 51.3123C45.7957 51.3532 46.5762 48.8828 45.0372 47.9103L42.8374 46.4564C43.234 45.4116 43.4731 44.2693 43.5298 43.0671L46.3904 41.5187C47.2905 41.031 47.6273 39.9043 47.1394 39.0043C46.6516 38.1011 45.5219 37.7675 44.625 38.2553L43.02 39.1238C42.529 37.5881 41.7202 36.2381 40.6818 35.1838L42.6833 33.0659C43.3851 32.32 43.3535 31.146 42.6077 30.4411ZM38.9477 38.9849C36.5339 39.715 33.9534 39.7118 31.5396 38.9849C33.2327 35.7183 37.2546 35.7183 38.9477 38.9849ZM35.2436 48.5357C32.726 48.5357 30.6772 45.8702 30.649 42.5816C32.1501 43.0158 33.6952 43.2519 35.2436 43.2519C36.7919 43.2519 38.3371 43.0158 39.8382 42.5816C39.8099 45.8702 37.7612 48.5357 35.2436 48.5357Z" fill="white"/>
<path d="M39.3408 22.0447C36.9459 21.5915 36.1938 25.1225 38.5729 25.6764C57.279 30.1797 54.5221 56.9737 35.2466 57.4893C15.9677 56.9701 13.2172 30.1799 31.9202 25.6764C34.2961 25.1351 33.5471 21.5853 31.1523 22.0447C22.0575 23.9707 15.4585 32.1152 15.4585 41.4082C15.4585 52.3189 24.3366 61.1962 35.2465 61.1962C58.9717 60.5574 62.361 27.5859 39.3408 22.0439L39.3408 22.0447Z" fill="white"/>
</g>
<defs>
<clipPath id="clip0_58_381">
<rect width="70.4962" height="61.1962" fill="white"/>
</clipPath>
</defs>
</svg>
