<svg width="73" height="55" viewBox="0 0 73 55" fill="none" xmlns="http://www.w3.org/2000/svg">
<g clip-path="url(#clip0_58_380)">
<path d="M68.4375 0H4.5625C2.04743 0 0 2.04743 0 4.5625V50.1875C0 52.7026 2.04743 54.75 4.5625 54.75H68.4375C70.9526 54.75 73 52.7026 73 50.1875V4.5625C73 2.04743 70.9526 0 68.4375 0ZM2.28125 4.5625C2.28125 3.30493 3.30493 2.28125 4.5625 2.28125H58.4482C58.3969 2.35539 58.3455 2.43238 58.2999 2.50938L57.2248 4.30014C56.7058 5.16701 55.7563 5.70312 54.7497 5.70312H2.28094L2.28125 4.5625ZM70.7188 50.1875C70.7188 51.4451 69.6951 52.4688 68.4375 52.4688H4.5625C3.30493 52.4688 2.28125 51.4451 2.28125 50.1875V7.98474H54.75C56.5551 7.98474 58.2546 7.02092 59.1813 5.47537L60.2564 3.6846C60.7754 2.81773 61.7249 2.28161 62.7315 2.28161H68.4347C69.6922 2.28161 70.7159 3.30529 70.7159 4.56286V50.1879L70.7188 50.1875Z" fill="white"/>
<path d="M62.7347 4.5625C62.1045 4.5625 61.5941 5.07293 61.5941 5.70312V6.84375C61.5941 7.47394 62.1045 7.98438 62.7347 7.98438C63.3649 7.98438 63.8754 7.47394 63.8754 6.84375V5.70312C63.8754 5.07293 63.3649 4.5625 62.7347 4.5625Z" fill="white"/>
<path d="M67.2972 4.5625C66.667 4.5625 66.1566 5.07293 66.1566 5.70312V6.84375C66.1566 7.47394 66.667 7.98438 67.2972 7.98438C67.9274 7.98438 68.4379 7.47394 68.4379 6.84375V5.70312C68.4379 5.07293 67.9274 4.5625 67.2972 4.5625Z" fill="white"/>
<path d="M39.42 17.6054C38.8041 16.596 37.6834 15.9686 36.5 15.9686C35.3166 15.9686 34.1988 16.596 33.58 17.6054L21.0328 38.1367C20.3883 39.1917 20.3626 40.5177 20.97 41.5928C21.5746 42.6707 22.718 43.3408 23.9527 43.3408H49.0465C50.2841 43.3408 51.4275 42.6707 52.0292 41.5928C52.6337 40.5149 52.6109 39.1889 51.9665 38.1367L39.42 17.6054ZM50.0422 40.4807C49.8426 40.84 49.4605 41.0624 49.047 41.0624H23.9533C23.5426 41.0624 23.1606 40.84 22.9581 40.4807C22.7585 40.1214 22.7642 39.6794 22.9809 39.3287L35.5281 18.7975C35.7334 18.461 36.107 18.25 36.5033 18.25C36.8968 18.25 37.2704 18.461 37.4785 18.7975L50.0258 39.3287C50.2425 39.6823 50.2482 40.1214 50.0486 40.4807H50.0422Z" fill="white"/>
<path d="M36.5 25.0938C35.8698 25.0938 35.3594 25.6042 35.3594 26.2344V33.0781C35.3594 33.7083 35.8698 34.2188 36.5 34.2188C37.1302 34.2188 37.6406 33.7083 37.6406 33.0781V26.2344C37.6406 25.6042 37.1302 25.0938 36.5 25.0938Z" fill="white"/>
<path d="M37.6403 36.5C37.6403 38.0199 35.359 38.0199 35.359 36.5C35.359 34.9801 37.6403 34.9801 37.6403 36.5Z" fill="white"/>
</g>
<defs>
<clipPath id="clip0_58_380">
<rect width="73" height="54.75" fill="white"/>
</clipPath>
</defs>
</svg>
