<svg width="252" height="54" viewBox="0 0 252 54" fill="none" xmlns="http://www.w3.org/2000/svg">
<g clip-path="url(#clip0_88_20)">
<path fill-rule="evenodd" clip-rule="evenodd" d="M228.625 0.782004L228.632 1.69488C228.728 14.3254 238.994 24.5139 251.625 24.5139L251.625 29.5139L251.625 29.5139L251.625 53.801L246.625 53.801L246.625 29.0686C234.94 26.9614 225.768 17.6012 223.957 5.80101L26.7892 5.80101C25.0141 16.9191 16.3884 25.7516 5.37593 27.8343L5.37582 53.801L0.375824 53.801L0.375932 28.301L0.37465 28.301L0.37465 23.301C12.387 23.301 22.125 13.563 22.125 1.55062L22.125 0.800979L27.125 0.800979L27.125 0.801013L226.124 0.801013L228.625 0.782004Z" fill="#00252C"/>
</g>
<defs>
<clipPath id="clip0_88_20">
<rect width="251.25" height="53.0191" fill="white" transform="translate(0.374756 0.781998)"/>
</clipPath>
</defs>
</svg>
